<svg version="1.1" xmlns="http://www.w3.org/2000/svg" width="500" height="400"><defs><clipPath id="BJVdKqNapSeV"><path fill="none" stroke="none" d="M 0.5 0.5 L 500.5 0.5 L 500.5 400.5 L 0.5 400.5 L 0.5 0.5 Z M 88.5 5.5 L 470.5 5.5 L 470.5 172.5 L 88.5 172.5 L 88.5 5.5 Z" clip-rule="evenodd"/></clipPath><clipPath id="SJZNrXLZmMaq"><path fill="none" stroke="none" d="M 88.5 5.5 L 470.5 5.5 L 470.5 172.5 L 88.5 172.5 L 88.5 5.5 Z"/></clipPath><clipPath id="ACiwQzCaOKJg"><path fill="none" stroke="none" d="M 88.5 5.5 L 470.5 5.5 L 470.5 172.5 L 88.5 172.5 L 88.5 5.5 Z"/></clipPath><clipPath id="UtTXlgKEmkxB"><path fill="none" stroke="none" d="M 88.5 5.5 L 470.5 5.5 L 470.5 172.5 L 88.5 172.5 L 88.5 5.5 Z"/></clipPath><clipPath id="CBulLtuPRihk"><path fill="none" stroke="none" d="M 88.5 5.5 L 470.5 5.5 L 470.5 172.5 L 88.5 172.5 L 88.5 5.5 Z"/></clipPath><clipPath id="KTCwMlTuHUTQ"><path fill="none" stroke="none" d="M 88.5 5.5 L 470.5 5.5 L 470.5 172.5 L 88.5 172.5 L 88.5 5.5 Z"/></clipPath><clipPath id="kPyMNIiBkCHf"><path fill="none" stroke="none" d="M 88.5 5.5 L 470.5 5.5 L 470.5 172.5 L 88.5 172.5 L 88.5 5.5 Z"/></clipPath><clipPath id="IiNsaThxBOfN"><path fill="none" stroke="none" d="M 88.5 5.5 L 470.5 5.5 L 470.5 172.5 L 88.5 172.5 L 88.5 5.5 Z"/></clipPath><clipPath id="vlvvhgfSswVH"><path fill="none" stroke="none" d="M 88.5 5.5 L 470.5 5.5 L 470.5 172.5 L 88.5 172.5 L 88.5 5.5 Z"/></clipPath></defs><path fill="#ffffff" stroke="none" paint-order="stroke" d="M 0.5 0.5 L 500.5 0.5 L 500.5 400.5 L 0.5 400.5 L 0.5 0.5 Z" clip-path="url(#BJVdKqNapSeV)"/><path fill="#ffffff" stroke="none" paint-order="stroke" d="M 88.5 5.5 L 470.5 5.5 L 470.5 172.5 L 88.5 172.5 L 88.5 5.5 Z"/><path fill="none" stroke="#e5e5e5" paint-order="fill" d="M 88.5 5.5 L 470.5 5.5 L 470.5 172.5 L 88.5 172.5 L 88.5 5.5 Z" stroke-linejoin="bevel" stroke-miterlimit="10"/><path fill="none" stroke="#e5e5e5" paint-order="fill" d="M 88.5 140.5 L 470.5 140.5 M 88.5 108.5 L 470.5 108.5 M 88.5 77.5 L 470.5 77.5 M 88.5 45.5 L 470.5 45.5 M 88.5 13.5 L 470.5 13.5" stroke-linejoin="bevel" stroke-miterlimit="10" clip-path="url(#ACiwQzCaOKJg)"/><path fill="rgb(31,119,180)" stroke="rgb(31,119,180)" paint-order="fill" d="M 98.04999542236328 171.49476623535156 L 109.51000213623047 171.49476623535156 L 109.51000213623047 172.5 L 98.04999542236328 172.5 L 98.04999542236328 171.49476623535156 Z" fill-opacity="1" clip-path="url(#UtTXlgKEmkxB)" stroke-opacity="1" stroke-linejoin="bevel" stroke-miterlimit="10"/><path fill="rgb(31,119,180)" stroke="rgb(31,119,180)" paint-order="fill" d="M 174.45001220703125 63.28116989135742 L 185.91000366210938 63.28116989135742 L 185.91000366210938 172.5 L 174.45001220703125 172.5 L 174.45001220703125 63.28116989135742 Z" fill-opacity="1" clip-path="url(#UtTXlgKEmkxB)" stroke-opacity="1" stroke-linejoin="bevel" stroke-miterlimit="10"/><path fill="rgb(31,119,180)" stroke="rgb(31,119,180)" paint-order="fill" d="M 250.8500213623047 132.80043029785156 L 262.3100280761719 132.80043029785156 L 262.3100280761719 172.5 L 250.8500213623047 172.5 L 250.8500213623047 132.80043029785156 Z" fill-opacity="1" clip-path="url(#UtTXlgKEmkxB)" stroke-opacity="1" stroke-linejoin="bevel" stroke-miterlimit="10"/><path fill="rgb(31,119,180)" stroke="rgb(31,119,180)" paint-order="fill" d="M 327.25 91.0478286743164 L 338.71002197265625 91.0478286743164 L 338.71002197265625 172.5 L 327.25 172.5 L 327.25 91.0478286743164 Z" fill-opacity="1" clip-path="url(#UtTXlgKEmkxB)" stroke-opacity="1" stroke-linejoin="bevel" stroke-miterlimit="10"/><path fill="rgb(31,119,180)" stroke="rgb(31,119,180)" paint-order="fill" d="M 403.64996337890625 85.95000457763672 L 415.1099853515625 85.95000457763672 L 415.1099853515625 172.5 L 403.64996337890625 172.5 L 403.64996337890625 85.95000457763672 Z" fill-opacity="1" clip-path="url(#UtTXlgKEmkxB)" stroke-opacity="1" stroke-linejoin="bevel" stroke-miterlimit="10"/><path fill="rgb(255,127,14)" stroke="rgb(255,127,14)" paint-order="fill" d="M 109.50999450683594 171.10076904296875 L 120.97000122070312 171.10076904296875 L 120.97000122070312 172.5 L 109.50999450683594 172.5 L 109.50999450683594 171.10076904296875 Z" fill-opacity="1" clip-path="url(#CBulLtuPRihk)" stroke-opacity="1" stroke-linejoin="bevel" stroke-miterlimit="10"/><path fill="rgb(255,127,14)" stroke="rgb(255,127,14)" paint-order="fill" d="M 185.91000366210938 65.18690490722656 L 197.3699951171875 65.18690490722656 L 197.3699951171875 172.5 L 185.91000366210938 172.5 L 185.91000366210938 65.18690490722656 Z" fill-opacity="1" clip-path="url(#CBulLtuPRihk)" stroke-opacity="1" stroke-linejoin="bevel" stroke-miterlimit="10"/><path fill="rgb(255,127,14)" stroke="rgb(255,127,14)" paint-order="fill" d="M 262.3099670410156 130.1573486328125 L 273.7699890136719 130.1573486328125 L 273.7699890136719 172.5 L 262.3099670410156 172.5 L 262.3099670410156 130.1573486328125 Z" fill-opacity="1" clip-path="url(#CBulLtuPRihk)" stroke-opacity="1" stroke-linejoin="bevel" stroke-miterlimit="10"/><path fill="rgb(255,127,14)" stroke="rgb(255,127,14)" paint-order="fill" d="M 338.7099914550781 89.89747619628906 L 350.1700134277344 89.89747619628906 L 350.1700134277344 172.5 L 338.7099914550781 172.5 L 338.7099914550781 89.89747619628906 Z" fill-opacity="1" clip-path="url(#CBulLtuPRihk)" stroke-opacity="1" stroke-linejoin="bevel" stroke-miterlimit="10"/><path fill="rgb(255,127,14)" stroke="rgb(255,127,14)" paint-order="fill" d="M 415.1099853515625 76.31232452392578 L 426.57000732421875 76.31232452392578 L 426.57000732421875 172.5 L 415.1099853515625 172.5 L 415.1099853515625 76.31232452392578 Z" fill-opacity="1" clip-path="url(#CBulLtuPRihk)" stroke-opacity="1" stroke-linejoin="bevel" stroke-miterlimit="10"/><path fill="rgb(44,160,44)" stroke="rgb(44,160,44)" paint-order="fill" d="M 120.9699935913086 170.40310668945312 L 132.42999267578125 170.40310668945312 L 132.42999267578125 172.5 L 120.9699935913086 172.5 L 120.9699935913086 170.40310668945312 Z" fill-opacity="1" clip-path="url(#KTCwMlTuHUTQ)" stroke-opacity="1" stroke-linejoin="bevel" stroke-miterlimit="10"/><path fill="rgb(44,160,44)" stroke="rgb(44,160,44)" paint-order="fill" d="M 197.37001037597656 70.61896514892578 L 208.8300018310547 70.61896514892578 L 208.8300018310547 172.5 L 197.37001037597656 172.5 L 197.37001037597656 70.61896514892578 Z" fill-opacity="1" clip-path="url(#KTCwMlTuHUTQ)" stroke-opacity="1" stroke-linejoin="bevel" stroke-miterlimit="10"/><path fill="rgb(44,160,44)" stroke="rgb(44,160,44)" paint-order="fill" d="M 273.7699890136719 133.53744506835938 L 285.2300109863281 133.53744506835938 L 285.2300109863281 172.5 L 273.7699890136719 172.5 L 273.7699890136719 133.53744506835938 Z" fill-opacity="1" clip-path="url(#KTCwMlTuHUTQ)" stroke-opacity="1" stroke-linejoin="bevel" stroke-miterlimit="10"/><path fill="rgb(44,160,44)" stroke="rgb(44,160,44)" paint-order="fill" d="M 350.16998291015625 86.3427734375 L 361.6300048828125 86.3427734375 L 361.6300048828125 172.5 L 350.16998291015625 172.5 L 350.16998291015625 86.3427734375 Z" fill-opacity="1" clip-path="url(#KTCwMlTuHUTQ)" stroke-opacity="1" stroke-linejoin="bevel" stroke-miterlimit="10"/><path fill="rgb(44,160,44)" stroke="rgb(44,160,44)" paint-order="fill" d="M 426.5699768066406 107.26798248291016 L 438.0299987792969 107.26798248291016 L 438.0299987792969 172.5 L 426.5699768066406 172.5 L 426.5699768066406 107.26798248291016 Z" fill-opacity="1" clip-path="url(#KTCwMlTuHUTQ)" stroke-opacity="1" stroke-linejoin="bevel" stroke-miterlimit="10"/><path fill="rgb(214,39,40)" stroke="rgb(214,39,40)" paint-order="fill" d="M 132.4300079345703 171.3470916748047 L 143.88999938964844 171.3470916748047 L 143.88999938964844 172.5 L 132.4300079345703 172.5 L 132.4300079345703 171.3470916748047 Z" fill-opacity="1" clip-path="url(#kPyMNIiBkCHf)" stroke-opacity="1" stroke-linejoin="bevel" stroke-miterlimit="10"/><path fill="rgb(214,39,40)" stroke="rgb(214,39,40)" paint-order="fill" d="M 208.8300018310547 67.33586883544922 L 220.2899932861328 67.33586883544922 L 220.2899932861328 172.5 L 208.8300018310547 172.5 L 208.8300018310547 67.33586883544922 Z" fill-opacity="1" clip-path="url(#kPyMNIiBkCHf)" stroke-opacity="1" stroke-linejoin="bevel" stroke-miterlimit="10"/><path fill="rgb(214,39,40)" stroke="rgb(214,39,40)" paint-order="fill" d="M 285.2300109863281 131.25634765625 L 296.6900329589844 131.25634765625 L 296.6900329589844 172.5 L 285.2300109863281 172.5 L 285.2300109863281 131.25634765625 Z" fill-opacity="1" clip-path="url(#kPyMNIiBkCHf)" stroke-opacity="1" stroke-linejoin="bevel" stroke-miterlimit="10"/><path fill="rgb(214,39,40)" stroke="rgb(214,39,40)" paint-order="fill" d="M 361.6300048828125 89.11971282958984 L 373.09002685546875 89.11971282958984 L 373.09002685546875 172.5 L 361.6300048828125 172.5 L 361.6300048828125 89.11971282958984 Z" fill-opacity="1" clip-path="url(#kPyMNIiBkCHf)" stroke-opacity="1" stroke-linejoin="bevel" stroke-miterlimit="10"/><path fill="rgb(214,39,40)" stroke="rgb(214,39,40)" paint-order="fill" d="M 438.0299987792969 87.31342315673828 L 449.4900207519531 87.31342315673828 L 449.4900207519531 172.5 L 438.0299987792969 172.5 L 438.0299987792969 87.31342315673828 Z" fill-opacity="1" clip-path="url(#kPyMNIiBkCHf)" stroke-opacity="1" stroke-linejoin="bevel" stroke-miterlimit="10"/><path fill="none" stroke="black" paint-order="fill" d="M 88.5 172.5 L 470.5 172.5" stroke-linejoin="bevel" stroke-miterlimit="10"/><path fill="none" stroke="black" paint-order="fill" d="M 126.5 178.5 L 126.5 170.5 M 203.5 178.5 L 203.5 170.5 M 279.5 178.5 L 279.5 170.5 M 355.5 178.5 L 355.5 170.5 M 432.5 178.5 L 432.5 170.5" stroke-linejoin="bevel" stroke-miterlimit="10"/><path fill="none" stroke="black" paint-order="fill" d="" stroke-linejoin="bevel" stroke-miterlimit="10"/><text fill="#444444" stroke="none" font-family="helvetica" font-size="13px" font-style="normal" font-weight="normal" text-decoration="normal" x="-21.9666748046875" y="188" text-anchor="start" dominant-baseline="alphabetic" transform="matrix(0.6216099682706644, -0.7833269096274834, 0.7833269096274834, 0.6216099682706644, -95.09600361234203, 168.6012294109328)">All main topics addressed</text><text fill="none" stroke="rgb(0,0,0)" font-family="helvetica" font-size="13px" font-style="normal" font-weight="normal" text-decoration="normal" x="-21.9666748046875" y="188" text-anchor="start" dominant-baseline="alphabetic" transform="matrix(0.6216099682706644, -0.7833269096274834, 0.7833269096274834, 0.6216099682706644, -95.09600361234203, 168.6012294109328)" stroke-opacity="0" stroke-linejoin="bevel" stroke-miterlimit="10">All main topics addressed</text><text fill="#444444" stroke="none" font-family="helvetica" font-size="13px" font-style="normal" font-weight="normal" text-decoration="normal" x="74.66667175292969" y="188" text-anchor="start" dominant-baseline="alphabetic" transform="matrix(0.6216099682706644, -0.7833269096274834, 0.7833269096274834, 0.6216099682706644, -66.1870017239566, 228.44741247804458)">Used Socratic method</text><text fill="none" stroke="rgb(0,0,0)" font-family="helvetica" font-size="13px" font-style="normal" font-weight="normal" text-decoration="normal" x="74.66667175292969" y="188" text-anchor="start" dominant-baseline="alphabetic" transform="matrix(0.6216099682706644, -0.7833269096274834, 0.7833269096274834, 0.6216099682706644, -66.1870017239566, 228.44741247804458)" stroke-opacity="0" stroke-linejoin="bevel" stroke-miterlimit="10">Used Socratic method</text><text fill="#444444" stroke="none" font-family="helvetica" font-size="13px" font-style="normal" font-weight="normal" text-decoration="normal" x="100.41667175292969" y="188" text-anchor="start" dominant-baseline="alphabetic" transform="matrix(0.6216099682706644, -0.7833269096274834, 0.7833269096274834, 0.6216099682706644, -37.27800560934486, 288.29358359253627)">Resolved the opening question</text><text fill="none" stroke="rgb(0,0,0)" font-family="helvetica" font-size="13px" font-style="normal" font-weight="normal" text-decoration="normal" x="100.41667175292969" y="188" text-anchor="start" dominant-baseline="alphabetic" transform="matrix(0.6216099682706644, -0.7833269096274834, 0.7833269096274834, 0.6216099682706644, -37.27800560934486, 288.29358359253627)" stroke-opacity="0" stroke-linejoin="bevel" stroke-miterlimit="10">Resolved the opening question</text><text fill="#444444" stroke="none" font-family="helvetica" font-size="13px" font-style="normal" font-weight="normal" text-decoration="normal" x="182.5833282470703" y="188" text-anchor="start" dominant-baseline="alphabetic" transform="matrix(0.6216099682706644, -0.7833269096274834, 0.7833269096274834, 0.6216099682706644, -8.369009494733064, 348.139754707028)">Adapted to student responses</text><text fill="none" stroke="rgb(0,0,0)" font-family="helvetica" font-size="13px" font-style="normal" font-weight="normal" text-decoration="normal" x="182.5833282470703" y="188" text-anchor="start" dominant-baseline="alphabetic" transform="matrix(0.6216099682706644, -0.7833269096274834, 0.7833269096274834, 0.6216099682706644, -8.369009494733064, 348.139754707028)" stroke-opacity="0" stroke-linejoin="bevel" stroke-miterlimit="10">Adapted to student responses</text><text fill="#444444" stroke="none" font-family="helvetica" font-size="13px" font-style="normal" font-weight="normal" text-decoration="normal" x="211.24998474121094" y="188" text-anchor="start" dominant-baseline="alphabetic" transform="matrix(0.6216099682706644, -0.7833269096274834, 0.7833269096274834, 0.6216099682706644, 20.539986619878732, 407.9859258215197)">Helped deepen student understanding</text><text fill="none" stroke="rgb(0,0,0)" font-family="helvetica" font-size="13px" font-style="normal" font-weight="normal" text-decoration="normal" x="211.24998474121094" y="188" text-anchor="start" dominant-baseline="alphabetic" transform="matrix(0.6216099682706644, -0.7833269096274834, 0.7833269096274834, 0.6216099682706644, 20.539986619878732, 407.9859258215197)" stroke-opacity="0" stroke-linejoin="bevel" stroke-miterlimit="10">Helped deepen student understanding</text><text fill="#444444" stroke="none" font-family="helvetica" font-size="15px" font-style="normal" font-weight="normal" text-decoration="normal" x="201.5" y="391.9517317377374" text-anchor="start" dominant-baseline="alphabetic" transform="matrix(1, 0, 0, 1, 0.5, 0.5)">Pedagogical Properties</text><text fill="none" stroke="rgb(0,0,0)" font-family="helvetica" font-size="15px" font-style="normal" font-weight="normal" text-decoration="normal" x="201.5" y="391.9517317377374" text-anchor="start" dominant-baseline="alphabetic" transform="matrix(1, 0, 0, 1, 0.5, 0.5)" stroke-opacity="0" stroke-linejoin="bevel" stroke-miterlimit="10">Pedagogical Properties</text><path fill="none" stroke="black" paint-order="fill" d="M 88.5 172.5 L 88.5 5.5" stroke-linejoin="bevel" stroke-miterlimit="10"/><path fill="none" stroke="black" paint-order="fill" d="M 82.5 172.5 L 90.5 172.5 M 82.5 140.5 L 90.5 140.5 M 82.5 108.5 L 90.5 108.5 M 82.5 77.5 L 90.5 77.5 M 82.5 45.5 L 90.5 45.5 M 82.5 13.5 L 90.5 13.5" stroke-linejoin="bevel" stroke-miterlimit="10"/><path fill="none" stroke="black" paint-order="fill" d="M 84.5 172.5 L 88.5 172.5 M 84.5 166.5 L 88.5 166.5 M 84.5 159.5 L 88.5 159.5 M 84.5 153.5 L 88.5 153.5 M 84.5 147.5 L 88.5 147.5 M 84.5 140.5 L 88.5 140.5 M 84.5 134.5 L 88.5 134.5 M 84.5 127.5 L 88.5 127.5 M 84.5 121.5 L 88.5 121.5 M 84.5 115.5 L 88.5 115.5 M 84.5 108.5 L 88.5 108.5 M 84.5 102.5 L 88.5 102.5 M 84.5 96.5 L 88.5 96.5 M 84.5 89.5 L 88.5 89.5 M 84.5 83.5 L 88.5 83.5 M 84.5 77.5 L 88.5 77.5 M 84.5 70.5 L 88.5 70.5 M 84.5 64.5 L 88.5 64.5 M 84.5 57.5 L 88.5 57.5 M 84.5 51.5 L 88.5 51.5 M 84.5 45.5 L 88.5 45.5 M 84.5 38.5 L 88.5 38.5 M 84.5 32.5 L 88.5 32.5 M 84.5 26.5 L 88.5 26.5 M 84.5 19.5 L 88.5 19.5 M 84.5 13.5 L 88.5 13.5 M 84.5 7.5 L 88.5 7.5" stroke-linejoin="bevel" stroke-miterlimit="10"/><text fill="#444444" stroke="none" font-family="helvetica" font-size="13px" font-style="normal" font-weight="normal" text-decoration="normal" x="69.76666688919067" y="177" text-anchor="start" dominant-baseline="alphabetic" transform="matrix(1, 0, 0, 1, 0.5, 0.5)">0</text><text fill="none" stroke="rgb(0,0,0)" font-family="helvetica" font-size="13px" font-style="normal" font-weight="normal" text-decoration="normal" x="69.76666688919067" y="177" text-anchor="start" dominant-baseline="alphabetic" transform="matrix(1, 0, 0, 1, 0.5, 0.5)" stroke-opacity="0" stroke-linejoin="bevel" stroke-miterlimit="10">0</text><text fill="#444444" stroke="none" font-family="helvetica" font-size="13px" font-style="normal" font-weight="normal" text-decoration="normal" x="58.91666603088379" y="145.1904754638672" text-anchor="start" dominant-baseline="alphabetic" transform="matrix(1, 0, 0, 1, 0.5, 0.5)">0.2</text><text fill="none" stroke="rgb(0,0,0)" font-family="helvetica" font-size="13px" font-style="normal" font-weight="normal" text-decoration="normal" x="58.91666603088379" y="145.1904754638672" text-anchor="start" dominant-baseline="alphabetic" transform="matrix(1, 0, 0, 1, 0.5, 0.5)" stroke-opacity="0" stroke-linejoin="bevel" stroke-miterlimit="10">0.2</text><text fill="#444444" stroke="none" font-family="helvetica" font-size="13px" font-style="normal" font-weight="normal" text-decoration="normal" x="58.91666603088379" y="113.38095092773438" text-anchor="start" dominant-baseline="alphabetic" transform="matrix(1, 0, 0, 1, 0.5, 0.5)">0.4</text><text fill="none" stroke="rgb(0,0,0)" font-family="helvetica" font-size="13px" font-style="normal" font-weight="normal" text-decoration="normal" x="58.91666603088379" y="113.38095092773438" text-anchor="start" dominant-baseline="alphabetic" transform="matrix(1, 0, 0, 1, 0.5, 0.5)" stroke-opacity="0" stroke-linejoin="bevel" stroke-miterlimit="10">0.4</text><text fill="#444444" stroke="none" font-family="helvetica" font-size="13px" font-style="normal" font-weight="normal" text-decoration="normal" x="58.91666603088379" y="81.57142639160156" text-anchor="start" dominant-baseline="alphabetic" transform="matrix(1, 0, 0, 1, 0.5, 0.5)">0.6</text><text fill="none" stroke="rgb(0,0,0)" font-family="helvetica" font-size="13px" font-style="normal" font-weight="normal" text-decoration="normal" x="58.91666603088379" y="81.57142639160156" text-anchor="start" dominant-baseline="alphabetic" transform="matrix(1, 0, 0, 1, 0.5, 0.5)" stroke-opacity="0" stroke-linejoin="bevel" stroke-miterlimit="10">0.6</text><text fill="#444444" stroke="none" font-family="helvetica" font-size="13px" font-style="normal" font-weight="normal" text-decoration="normal" x="58.91666603088379" y="49.761905670166016" text-anchor="start" dominant-baseline="alphabetic" transform="matrix(1, 0, 0, 1, 0.5, 0.5)">0.8</text><text fill="none" stroke="rgb(0,0,0)" font-family="helvetica" font-size="13px" font-style="normal" font-weight="normal" text-decoration="normal" x="58.91666603088379" y="49.761905670166016" text-anchor="start" dominant-baseline="alphabetic" transform="matrix(1, 0, 0, 1, 0.5, 0.5)" stroke-opacity="0" stroke-linejoin="bevel" stroke-miterlimit="10">0.8</text><text fill="#444444" stroke="none" font-family="helvetica" font-size="13px" font-style="normal" font-weight="normal" text-decoration="normal" x="69.76666688919067" y="17.952381134033203" text-anchor="start" dominant-baseline="alphabetic" transform="matrix(1, 0, 0, 1, 0.5, 0.5)">1</text><text fill="none" stroke="rgb(0,0,0)" font-family="helvetica" font-size="13px" font-style="normal" font-weight="normal" text-decoration="normal" x="69.76666688919067" y="17.952381134033203" text-anchor="start" dominant-baseline="alphabetic" transform="matrix(1, 0, 0, 1, 0.5, 0.5)" stroke-opacity="0" stroke-linejoin="bevel" stroke-miterlimit="10">1</text><text fill="#444444" stroke="none" font-family="helvetica" font-size="15px" font-style="normal" font-weight="normal" text-decoration="normal" x="-20.749998092651367" y="57.1" text-anchor="start" dominant-baseline="alphabetic" transform="matrix(6.123233995736766e-17, -1, 1, 6.123233995736766e-17, -37.08333396911621, 139.9166660308838)">Normalized Presence</text><text fill="none" stroke="rgb(0,0,0)" font-family="helvetica" font-size="15px" font-style="normal" font-weight="normal" text-decoration="normal" x="-20.749998092651367" y="57.1" text-anchor="start" dominant-baseline="alphabetic" transform="matrix(6.123233995736766e-17, -1, 1, 6.123233995736766e-17, -37.08333396911621, 139.9166660308838)" stroke-opacity="0" stroke-linejoin="bevel" stroke-miterlimit="10">Normalized Presence</text><text fill="#444444" stroke="none" font-family="helvetica" font-size="15px" font-style="normal" font-weight="normal" text-decoration="normal" x="-11.583333969116211" y="83.5" text-anchor="start" dominant-baseline="alphabetic" transform="matrix(6.123233995736766e-17, -1, 1, 6.123233995736766e-17, -37.08333396911621, 139.9166660308838)">Score (from 0 to 1)</text><text fill="none" stroke="rgb(0,0,0)" font-family="helvetica" font-size="15px" font-style="normal" font-weight="normal" text-decoration="normal" x="-11.583333969116211" y="83.5" text-anchor="start" dominant-baseline="alphabetic" transform="matrix(6.123233995736766e-17, -1, 1, 6.123233995736766e-17, -37.08333396911621, 139.9166660308838)" stroke-opacity="0" stroke-linejoin="bevel" stroke-miterlimit="10">Score (from 0 to 1)</text><path fill="rgb(255,255,255)" stroke="rgb(229,229,229)" paint-order="fill" d="M -17.649993896484375 15.5 L 576.6499938964844 15.5 L 576.6499938964844 57.5 L -17.649993896484375 57.5 L -17.649993896484375 15.5 Z" fill-opacity="0.9490196078431372" clip-path="url(#IiNsaThxBOfN)" stroke-opacity="0.5019607843137255" stroke-linejoin="bevel" stroke-miterlimit="10"/><g clip-path="url(#IiNsaThxBOfN)"><g transform="matrix(1, 0, 0, 1, -7.149993896484375, 26)"><path fill="rgb(31,119,180)" stroke="rgb(31,119,180)" paint-order="fill" d="M 2.5 2.5 L 18.5 2.5 L 18.5 18.5 L 2.5 18.5 L 2.5 2.5 Z" fill-opacity="1" stroke-opacity="1" stroke-linejoin="bevel" stroke-miterlimit="10"/></g></g><g clip-path="url(#IiNsaThxBOfN)"><text fill="#444444" stroke="none" font-family="helvetica" font-size="13px" font-style="normal" font-weight="normal" text-decoration="normal" x="17.850006103515625" y="41" text-anchor="start" dominant-baseline="alphabetic" transform="matrix(1, 0, 0, 1, 0.5, 0.5)">llama3.3:70b</text></g><g clip-path="url(#IiNsaThxBOfN)"><text fill="none" stroke="rgb(0,0,0)" font-family="helvetica" font-size="13px" font-style="normal" font-weight="normal" text-decoration="normal" x="17.850006103515625" y="41" text-anchor="start" dominant-baseline="alphabetic" transform="matrix(1, 0, 0, 1, 0.5, 0.5)" stroke-opacity="0" stroke-linejoin="bevel" stroke-miterlimit="10">llama3.3:70b</text></g><g clip-path="url(#IiNsaThxBOfN)"><g transform="matrix(1, 0, 0, 1, 95.31666564941406, 26)"><path fill="rgb(255,127,14)" stroke="rgb(255,127,14)" paint-order="fill" d="M 2.5 2.5 L 18.5 2.5 L 18.5 18.5 L 2.5 18.5 L 2.5 2.5 Z" fill-opacity="1" stroke-opacity="1" stroke-linejoin="bevel" stroke-miterlimit="10"/></g></g><g clip-path="url(#IiNsaThxBOfN)"><text fill="#444444" stroke="none" font-family="helvetica" font-size="13px" font-style="normal" font-weight="normal" text-decoration="normal" x="120.31666564941406" y="41" text-anchor="start" dominant-baseline="alphabetic" transform="matrix(1, 0, 0, 1, 0.5, 0.5)">gemma3:27b</text></g><g clip-path="url(#IiNsaThxBOfN)"><text fill="none" stroke="rgb(0,0,0)" font-family="helvetica" font-size="13px" font-style="normal" font-weight="normal" text-decoration="normal" x="120.31666564941406" y="41" text-anchor="start" dominant-baseline="alphabetic" transform="matrix(1, 0, 0, 1, 0.5, 0.5)" stroke-opacity="0" stroke-linejoin="bevel" stroke-miterlimit="10">gemma3:27b</text></g><g clip-path="url(#IiNsaThxBOfN)"><g transform="matrix(1, 0, 0, 1, 199.23333740234375, 26)"><path fill="rgb(44,160,44)" stroke="rgb(44,160,44)" paint-order="fill" d="M 2.5 2.5 L 18.5 2.5 L 18.5 18.5 L 2.5 18.5 L 2.5 2.5 Z" fill-opacity="1" stroke-opacity="1" stroke-linejoin="bevel" stroke-miterlimit="10"/></g></g><g clip-path="url(#IiNsaThxBOfN)"><text fill="#444444" stroke="none" font-family="helvetica" font-size="13px" font-style="normal" font-weight="normal" text-decoration="normal" x="224.23333740234375" y="41" text-anchor="start" dominant-baseline="alphabetic" transform="matrix(1, 0, 0, 1, 0.5, 0.5)">eurecom-ds/phi-3-mini-4k-socratic</text></g><g clip-path="url(#IiNsaThxBOfN)"><text fill="none" stroke="rgb(0,0,0)" font-family="helvetica" font-size="13px" font-style="normal" font-weight="normal" text-decoration="normal" x="224.23333740234375" y="41" text-anchor="start" dominant-baseline="alphabetic" transform="matrix(1, 0, 0, 1, 0.5, 0.5)" stroke-opacity="0" stroke-linejoin="bevel" stroke-miterlimit="10">eurecom-ds/phi-3-mini-4k-socratic</text></g><g clip-path="url(#IiNsaThxBOfN)"><g transform="matrix(1, 0, 0, 1, 423.79998779296875, 26)"><path fill="rgb(214,39,40)" stroke="rgb(214,39,40)" paint-order="fill" d="M 2.5 2.5 L 18.5 2.5 L 18.5 18.5 L 2.5 18.5 L 2.5 2.5 Z" fill-opacity="1" stroke-opacity="1" stroke-linejoin="bevel" stroke-miterlimit="10"/></g></g><g clip-path="url(#IiNsaThxBOfN)"><text fill="#444444" stroke="none" font-family="helvetica" font-size="13px" font-style="normal" font-weight="normal" text-decoration="normal" x="448.79998779296875" y="41" text-anchor="start" dominant-baseline="alphabetic" transform="matrix(1, 0, 0, 1, 0.5, 0.5)">mistral-small3.1:24b</text></g><g clip-path="url(#IiNsaThxBOfN)"><text fill="none" stroke="rgb(0,0,0)" font-family="helvetica" font-size="13px" font-style="normal" font-weight="normal" text-decoration="normal" x="448.79998779296875" y="41" text-anchor="start" dominant-baseline="alphabetic" transform="matrix(1, 0, 0, 1, 0.5, 0.5)" stroke-opacity="0" stroke-linejoin="bevel" stroke-miterlimit="10">mistral-small3.1:24b</text></g></svg>