<?xml version="1.0" encoding="UTF-8" standalone="no"?>
<!-- Created with Inkscape (http://www.inkscape.org/) -->

<svg
   width="210mm"
   height="297mm"
   viewBox="0 0 210 297"
   version="1.1"
   id="svg5"
   xml:space="preserve"
   inkscape:version="1.2.2 (732a01da63, 2022-12-09)"
   sodipodi:docname="pipeline.svg"
   xmlns:inkscape="http://www.inkscape.org/namespaces/inkscape"
   xmlns:sodipodi="http://sodipodi.sourceforge.net/DTD/sodipodi-0.dtd"
   xmlns="http://www.w3.org/2000/svg"
   xmlns:svg="http://www.w3.org/2000/svg"><sodipodi:namedview
     id="namedview7"
     pagecolor="#ffffff"
     bordercolor="#000000"
     borderopacity="0.25"
     inkscape:showpageshadow="2"
     inkscape:pageopacity="0.0"
     inkscape:pagecheckerboard="0"
     inkscape:deskcolor="#d1d1d1"
     inkscape:document-units="mm"
     showgrid="false"
     inkscape:zoom="1.3808221"
     inkscape:cx="408.81442"
     inkscape:cy="148.82438"
     inkscape:window-width="1920"
     inkscape:window-height="991"
     inkscape:window-x="-9"
     inkscape:window-y="-9"
     inkscape:window-maximized="1"
     inkscape:current-layer="layer1" /><defs
     id="defs2"><marker
       style="overflow:visible"
       id="Arrow2"
       refX="0"
       refY="0"
       orient="auto-start-reverse"
       inkscape:stockid="Arrow2"
       markerWidth="7.6999998"
       markerHeight="5.5999999"
       viewBox="0 0 7.7 5.6"
       inkscape:isstock="true"
       inkscape:collect="always"
       preserveAspectRatio="xMidYMid"><path
         transform="scale(0.7)"
         d="M -2,-4 9,0 -2,4 c 2,-2.33 2,-5.66 0,-8 z"
         style="fill:context-stroke;fill-rule:evenodd;stroke:none"
         id="arrow2L" /></marker><marker
       style="overflow:visible"
       id="Arrow2-6"
       refX="0"
       refY="0"
       orient="auto-start-reverse"
       inkscape:stockid="Arrow2"
       markerWidth="7.6999998"
       markerHeight="5.5999999"
       viewBox="0 0 7.7 5.6"
       inkscape:isstock="true"
       inkscape:collect="always"
       preserveAspectRatio="xMidYMid"><path
         transform="scale(0.7)"
         d="M -2,-4 9,0 -2,4 c 2,-2.33 2,-5.66 0,-8 z"
         style="fill:context-stroke;fill-rule:evenodd;stroke:none"
         id="arrow2L-0" /></marker><marker
       style="overflow:visible"
       id="Arrow2-2"
       refX="0"
       refY="0"
       orient="auto-start-reverse"
       inkscape:stockid="Arrow2"
       markerWidth="7.6999998"
       markerHeight="5.5999999"
       viewBox="0 0 7.7 5.6"
       inkscape:isstock="true"
       inkscape:collect="always"
       preserveAspectRatio="xMidYMid"><path
         transform="scale(0.7)"
         d="M -2,-4 9,0 -2,4 c 2,-2.33 2,-5.66 0,-8 z"
         style="fill:context-stroke;fill-rule:evenodd;stroke:none"
         id="arrow2L-6" /></marker><marker
       style="overflow:visible"
       id="Arrow2-2-8"
       refX="0"
       refY="0"
       orient="auto-start-reverse"
       inkscape:stockid="Arrow2"
       markerWidth="7.6999998"
       markerHeight="5.5999999"
       viewBox="0 0 7.7 5.6"
       inkscape:isstock="true"
       inkscape:collect="always"
       preserveAspectRatio="xMidYMid"><path
         transform="scale(0.7)"
         d="M -2,-4 9,0 -2,4 c 2,-2.33 2,-5.66 0,-8 z"
         style="fill:context-stroke;fill-rule:evenodd;stroke:none"
         id="arrow2L-6-7" /></marker></defs><g
     inkscape:label="Layer 1"
     inkscape:groupmode="layer"
     id="layer1"><path
       d="m 197.64543,37.476507 c -0.62883,0.133795 -1.12722,0.511762 -1.59884,1.214183 -0.25422,0.377971 -0.35121,0.488352 -0.60208,0.692386 -0.42145,0.337832 -0.61545,0.765974 -0.58535,1.264358 0.0134,0.214072 0.0401,0.301039 0.15721,0.52849 0.0736,0.150517 0.13714,0.284312 0.13714,0.297694 0,0.01339 -0.0435,0.097 -0.097,0.183966 -0.194,0.321107 -0.25421,0.73587 -0.15721,1.100459 l 0.0468,0.173934 -0.19066,0.187312 c -0.10704,0.103689 -0.23414,0.264244 -0.291,0.354554 l -0.097,0.167244 h -1.68247 c -1.80622,0 -1.77277,-0.0034 -1.93667,0.173931 -0.16725,0.17728 -0.17728,0.257554 -0.17728,1.281083 0,0.782698 0.01,0.9767 0.0502,1.077045 0.0702,0.167245 0.14049,0.24083 0.30104,0.314418 0.11707,0.05352 0.22411,0.06355 0.80946,0.06355 h 0.67566 l 0.01,1.879812 0.01,1.883156 0.0937,0.157209 c 0.0836,0.147173 0.33783,0.361246 0.42145,0.361246 0.0234,0 0.0368,0.127105 0.0368,0.364589 v 0.364589 l -0.50842,0.01339 c -0.55525,0.01671 -0.66228,0.04348 -0.89307,0.224104 -0.0669,0.05352 -0.16725,0.177277 -0.22077,0.277623 -0.0836,0.153866 -0.10034,0.220761 -0.11038,0.50173 l -0.0134,0.327796 h -0.0903 c -0.11372,0.0034 -0.33783,0.107035 -0.41476,0.194002 -0.10704,0.11707 -0.15386,0.311075 -0.15386,0.62549 0,0.451556 0.0836,0.635525 0.34786,0.755938 0.12711,0.06021 0.32111,0.06355 4.07404,0.06355 2.46182,0 3.96366,-0.01339 4.00046,-0.03346 0.0334,-0.01671 0.0803,-0.07358 0.10034,-0.130449 0.0334,-0.08028 0.0334,-0.113724 -0.01,-0.197348 -0.0268,-0.05352 -0.0769,-0.107034 -0.10369,-0.120413 -0.0301,-0.01004 -0.36124,-0.02007 -0.73586,-0.02007 h -0.68236 l -0.01,-0.371281 c -0.01,-0.354557 -0.007,-0.367936 0.0569,-0.347868 0.67566,0.204037 1.19746,0.284315 1.8564,0.284315 0.51846,0 0.77601,-0.03346 1.27439,-0.153863 0.62216,-0.153863 0.84961,-0.314418 0.84961,-0.59204 -0.003,-0.08362 -0.24418,-0.923183 -0.57867,-2.020297 -0.31776,-1.036906 -0.57532,-1.896536 -0.57532,-1.909918 0,-0.01672 0.0736,-0.07693 0.16055,-0.133792 0.0903,-0.05686 0.22745,-0.173934 0.30439,-0.257554 0.10369,-0.113728 0.1639,-0.15052 0.23749,-0.15052 0.18397,0 0.28431,-0.07024 0.72584,-0.50842 l 0.44152,-0.44152 0.92987,0.361243 c 0.86966,0.337832 1.24763,0.505076 1.24763,0.551904 0,0.01339 -0.17393,0.194002 -0.38466,0.404728 -0.43818,0.434831 -0.6188,0.689039 -0.7459,1.043596 -0.0803,0.224105 -0.087,0.297694 -0.10035,0.886387 l -0.0134,0.642215 0.0836,0.08362 c 0.11038,0.11038 0.23749,0.11038 0.34118,0.0034 0.0803,-0.08028 0.0836,-0.09366 0.0836,-0.608768 0,-0.866316 0.0769,-1.053632 0.69573,-1.682465 l 0.40807,-0.418106 0.0736,0.08362 c 0.11707,0.137137 0.291,0.538522 0.34452,0.786041 0.0401,0.190659 0.0502,0.605422 0.0502,2.274508 0,1.796192 -0.007,2.0504 -0.0535,2.117296 -0.0502,0.07359 -0.0636,0.07359 -0.78604,0.07359 h -0.73253 v -0.849638 c 0,-0.806109 -0.003,-0.852937 -0.0702,-0.936561 -0.0903,-0.113724 -0.23749,-0.117071 -0.34787,-0.0034 l -0.0836,0.08028 v 0.856284 0.852941 h -1.64902 -1.65237 l -0.0702,0.07693 c -0.097,0.103692 -0.097,0.257554 0.003,0.35121 l 0.0769,0.07359 h 2.65918 c 2.49526,0 2.6625,-0.0067 2.78961,-0.06355 0.17393,-0.07693 0.33783,-0.26759 0.38466,-0.438177 0.0267,-0.097 0.0334,-0.806113 0.0234,-2.31799 -0.0134,-2.391578 -0.007,-2.304611 -0.22411,-2.78627 -0.19735,-0.438178 -0.58535,-0.883045 -0.95663,-1.10046 -0.0903,-0.05352 -0.9466,-0.401385 -1.90323,-0.769317 l -1.73933,-0.672318 -0.007,-0.334486 -0.007,-0.331142 0.2308,-0.210727 0.22746,-0.210726 0.18061,0.190658 c 0.3646,0.39135 0.78605,0.582005 1.27774,0.582005 0.79608,0 1.46171,-0.518452 1.65905,-1.284426 0.0803,-0.311071 0.0836,-0.491694 0.0167,-0.799423 -0.0636,-0.311072 -0.22745,-0.602076 -0.47832,-0.852938 l -0.21072,-0.214072 0.0569,-0.220762 c 0.0903,-0.371278 0.0134,-0.796077 -0.20404,-1.113838 l -0.0903,-0.127106 0.12042,-0.194002 c 0.20738,-0.341171 0.26425,-0.695728 0.17059,-1.063664 -0.097,-0.367935 -0.19735,-0.505073 -0.70911,-0.970011 -0.097,-0.08696 -0.28431,-0.317761 -0.41811,-0.515105 -0.29769,-0.438177 -0.57197,-0.729181 -0.88973,-0.943254 -0.56528,-0.377968 -1.33795,-0.461588 -2.08051,-0.227448 -0.41811,0.130449 -0.4248,0.133792 -0.70911,0.04348 -0.57532,-0.183966 -1.03357,-0.220762 -1.48178,-0.12376 z m 0.93656,0.495037 c 0.1271,0.02675 0.33114,0.08362 0.45156,0.123763 0.27093,0.09031 0.52179,0.09031 0.78604,-0.0034 0.83621,-0.301036 1.53864,-0.190659 2.09389,0.32445 0.10703,0.097 0.30103,0.337832 0.43483,0.53518 0.16724,0.247519 0.36125,0.47497 0.63218,0.745903 0.36124,0.35121 0.40138,0.401385 0.45155,0.582008 0.0736,0.247518 0.0502,0.471623 -0.0702,0.679003 -0.17727,0.311075 -0.19735,0.361246 -0.194,0.50842 0,0.110381 0.0401,0.217415 0.14383,0.404728 0.17059,0.311075 0.20069,0.508419 0.12376,0.772663 -0.10035,0.351211 -0.0502,0.515109 0.25086,0.80277 0.13714,0.130449 0.23415,0.264243 0.30773,0.418106 0.0937,0.200691 0.10704,0.260898 0.10704,0.511763 0,0.254211 -0.01,0.307728 -0.11039,0.508419 -0.21741,0.444867 -0.6121,0.695732 -1.09376,0.695732 -0.37128,0 -0.58201,-0.09031 -0.85963,-0.367935 -0.12376,-0.12376 -0.23414,-0.264244 -0.24418,-0.311072 -0.0167,-0.06355 0.003,-0.157209 0.0636,-0.301036 0.18063,-0.431488 0.19401,-0.551905 0.21073,-1.846366 0.0134,-0.849595 0.007,-1.247633 -0.0234,-1.347979 -0.0535,-0.20738 -0.15721,-0.2609 -0.57866,-0.284314 -0.4248,-0.02343 -0.79273,-0.127103 -1.32122,-0.374625 -0.64222,-0.29769 -0.8496,-0.291001 -1.55202,0.0368 -0.47831,0.224105 -0.80946,0.314415 -1.24763,0.337829 -0.18397,0.01004 -0.37462,0.04014 -0.4248,0.0669 -0.19735,0.097 -0.20069,0.123759 -0.18731,1.562051 0.0134,1.227562 0.0201,1.321218 0.0903,1.552016 0.0401,0.137138 0.11038,0.317761 0.15386,0.40807 l 0.0803,0.160556 -0.10034,0.153862 c -0.19735,0.297694 -0.54856,0.518456 -0.87301,0.545213 l -0.194,0.02007 v -0.699078 c 0,-0.74925 -0.0201,-0.889734 -0.15721,-1.050286 -0.13045,-0.153863 -0.24418,-0.200691 -0.51176,-0.200691 -0.12711,0 -0.23414,-0.01004 -0.23414,-0.02343 0,-0.01339 0.087,-0.110381 0.194,-0.210726 0.24752,-0.234141 0.30772,-0.41811 0.2241,-0.685697 -0.097,-0.321107 -0.0502,-0.6188 0.13715,-0.889733 0.0702,-0.100349 0.097,-0.187312 0.10703,-0.334489 0.0134,-0.183966 0.007,-0.210727 -0.12711,-0.431485 -0.12376,-0.200694 -0.14382,-0.270936 -0.16055,-0.468281 -0.0134,-0.214072 -0.007,-0.254211 0.087,-0.444867 0.0803,-0.160555 0.15387,-0.250865 0.31776,-0.381313 0.25087,-0.200694 0.43818,-0.41811 0.72249,-0.836216 0.56529,-0.83287 1.24095,-1.143942 2.09389,-0.963322 z m 1.37139,3.237827 c 0.49839,0.247522 1.12723,0.424799 1.50854,0.424799 h 0.11373 v 0.983389 c 0,1.070357 -0.0301,1.388117 -0.15387,1.722603 -0.23748,0.62549 -0.78605,1.13391 -1.43495,1.327911 -0.24752,0.07359 -0.82283,0.08362 -1.08708,0.01671 -0.44821,-0.110381 -0.9399,-0.41811 -1.19077,-0.745906 -0.20069,-0.264244 -0.26759,-0.384657 -0.37128,-0.679007 l -0.0937,-0.267587 -0.01,-1.180737 -0.01,-1.177392 h 0.12711 c 0.38131,0 1.06366,-0.190658 1.53194,-0.428141 0.31776,-0.160556 0.37128,-0.173934 0.58535,-0.160556 0.13714,0.01004 0.26425,0.05352 0.48501,0.163899 z m -8.27853,3.88673 v 0.953286 h -0.28097 c -0.2241,0 -0.28431,-0.01004 -0.30103,-0.05352 -0.0267,-0.07024 -0.0267,-1.802881 0.003,-1.829642 0.01,-0.01339 0.14717,-0.02343 0.30104,-0.02343 h 0.27762 z m 2.60899,0 v 0.953286 h -1.05363 -1.05363 v -0.953286 -0.953287 h 1.05363 1.05363 z m 1.08374,-0.899766 c 0.01,0.03011 0.0201,0.438174 0.0201,0.913144 0,0.62549 -0.01,0.869666 -0.0401,0.899769 -0.0234,0.02343 -0.14383,0.04014 -0.30104,0.04014 h -0.2609 v -0.953287 -0.953287 h 0.28097 c 0.2241,0 0.28431,0.01004 0.30104,0.05352 z m 2.22433,1.354668 0.20738,0.190655 -0.01,0.324454 -0.01,0.327796 -1.72595,0.675661 c -0.94994,0.371282 -1.78281,0.705767 -1.84971,0.745906 -0.0702,0.04014 -0.13044,0.07359 -0.14048,0.07359 -0.007,0 -0.0134,-0.301036 -0.0134,-0.665625 v -0.668975 l 0.71246,-0.01004 c 0.71245,-0.01004 0.7158,-0.01004 0.84959,-0.100349 0.0836,-0.05686 0.16055,-0.143827 0.19735,-0.227448 0.0602,-0.130452 0.0635,-0.133795 0.23414,-0.133795 0.38131,0 0.85963,-0.230797 1.15063,-0.558594 0.0836,-0.09366 0.16055,-0.167241 0.17059,-0.163898 0.01,0 0.11372,0.08697 0.22745,0.190659 z m 1.12053,0.595386 c 0.51176,0.137138 1.05698,0.12376 1.51522,-0.03346 0.10369,-0.03346 0.20069,-0.06355 0.21742,-0.06355 0.0134,0 0.0268,0.08697 0.0268,0.197348 0,0.107035 0.0167,0.24083 0.0368,0.301037 0.0368,0.103691 0.0301,0.113727 -0.1639,0.31776 -0.15052,0.157209 -0.21407,0.250866 -0.24418,0.364593 -0.0368,0.147173 -0.0435,0.153863 -0.20738,0.194001 -0.21741,0.05352 -0.78938,0.04683 -1.01015,-0.01004 -0.12376,-0.03346 -0.17058,-0.06021 -0.17727,-0.110381 -0.0267,-0.187312 -0.0602,-0.244173 -0.23749,-0.431485 l -0.194,-0.204037 0.0167,-0.311072 c 0.0134,-0.297693 0.0201,-0.314418 0.087,-0.297693 0.0368,0.01004 0.18731,0.04683 0.33449,0.08697 z m -5.16447,2.207609 c 0,1.786156 0,1.802881 -0.0702,1.889844 -0.10034,0.127106 -0.21406,0.163899 -0.35455,0.117071 -0.21407,-0.07024 -0.21072,-0.03343 -0.21072,-2.020297 v -1.789499 h 0.31776 0.31776 z m 4.45536,-1.24429 c 0.10703,0.107034 0.194,0.214072 0.194,0.240829 0,0.05686 -0.46493,0.538523 -0.51845,0.538523 -0.0167,0 -0.18062,-0.147173 -0.3579,-0.32445 l -0.3278,-0.327796 0.3947,-0.153867 c 0.21406,-0.08696 0.39803,-0.157205 0.40807,-0.160551 0.007,-0.0034 0.10034,0.08362 0.20738,0.187312 z m 3.76966,0.133795 c 0.0234,0.01672 -0.60876,0.645557 -0.6489,0.645557 -0.0201,0 -0.15387,-0.120416 -0.30104,-0.26759 l -0.26425,-0.267586 0.21073,-0.214073 0.21072,-0.210726 0.38801,0.15052 c 0.21742,0.08362 0.39804,0.157209 0.40473,0.163898 z m -4.84671,0.632179 c 0.41142,0.414763 0.5519,0.515109 0.71915,0.515109 0.0602,0 0.14048,0.05352 0.25421,0.170587 0.13379,0.133795 0.30773,0.264244 0.45825,0.351211 0.007,0.0034 -0.25422,0.869665 -0.57867,1.929986 -0.3211,1.056975 -0.58535,1.963433 -0.58535,2.013604 0,0.07694 -0.01,0.08697 -0.0736,0.07024 -0.0435,-0.01003 -0.11038,-0.02007 -0.14717,-0.02007 -0.0702,0 -0.0736,-0.02007 -0.087,-0.344521 -0.01,-0.29769 -0.0234,-0.361243 -0.10035,-0.498384 -0.19065,-0.321107 -0.45824,-0.464934 -0.91983,-0.488348 l -0.31107,-0.01671 v -0.571973 c -0.003,-1.167355 -0.10704,-1.448324 -0.82618,-2.19423 -0.22746,-0.23414 -0.41142,-0.434831 -0.41142,-0.444866 0,-0.01339 0.0502,-0.04683 0.11038,-0.08028 0.14383,-0.08028 1.96678,-0.806113 2.03033,-0.809459 0.0267,-0.0034 0.23748,0.187316 0.46828,0.41811 z m 1.88985,0.03346 c 0.33783,0.07693 0.93322,0.07024 1.25432,-0.01672 l 0.25087,-0.0669 0.15052,0.15052 0.15052,0.150519 -0.15052,0.137138 c -0.20738,0.183966 -0.57197,0.354557 -0.83622,0.39135 -0.49838,0.0669 -1.03021,-0.097 -1.33794,-0.414764 l -0.11373,-0.11707 0.14718,-0.15052 c 0.087,-0.09031 0.16724,-0.143827 0.20069,-0.133791 0.0267,0.0067 0.15721,0.04013 0.28431,0.07024 z m -4.08742,1.628947 c 0.26424,0.364589 0.30104,0.508419 0.31776,1.317875 l 0.0134,0.712457 h -0.78938 -0.78939 v -0.361246 -0.3579 l 0.15386,-0.08028 c 0.17059,-0.09031 0.32111,-0.287657 0.37797,-0.488348 0.0201,-0.07693 0.0368,-0.41811 0.0368,-0.802767 v -0.668975 l 0.26759,0.26759 c 0.14717,0.147174 0.33449,0.354557 0.41142,0.461592 z m 4.42525,-0.381314 c 0.17393,0.02007 0.35456,0.02007 0.52849,0 0.14383,-0.01672 0.26759,-0.02675 0.27762,-0.02007 0.0201,0.02007 1.11385,3.612451 1.11385,3.659279 0,0.05352 -0.74591,0.277625 -0.78605,0.237487 -0.007,-0.0067 -0.0435,-0.257555 -0.0836,-0.558591 -0.0368,-0.30104 -0.0836,-0.578662 -0.10369,-0.612111 -0.0502,-0.09366 -0.19066,-0.137138 -0.30104,-0.09366 -0.16055,0.0669 -0.17059,0.160551 -0.097,0.73587 0.0368,0.284312 0.0669,0.538523 0.0669,0.558591 0,0.03346 -0.097,0.04348 -0.36793,0.04348 h -0.36794 v -0.09366 c 0.003,-0.05017 0.0301,-0.301036 0.0635,-0.55859 0.0368,-0.277622 0.0502,-0.498384 0.0334,-0.541869 -0.0401,-0.107035 -0.17393,-0.183966 -0.27428,-0.160552 -0.16389,0.04349 -0.19065,0.110381 -0.26424,0.705767 -0.0368,0.311072 -0.0702,0.568626 -0.0736,0.571969 -0.01,0.01339 -0.62883,-0.143827 -0.72583,-0.183966 l -0.087,-0.03679 0.49838,-1.632294 c 0.27428,-0.896422 0.52849,-1.732638 0.56528,-1.859744 0.0368,-0.123759 0.0769,-0.217416 0.0937,-0.210726 0.0134,0.01004 0.14383,0.03011 0.29101,0.05017 z m -2.95351,2.99365 c 0.14383,0.097 0.19066,0.220762 0.19066,0.505074 v 0.250865 h -2.32803 -2.32802 l 0.01,-0.280969 c 0.0134,-0.244176 0.0234,-0.294347 0.097,-0.371278 0.17059,-0.187312 0.12041,-0.183969 2.2745,-0.173934 1.8932,0.0067 1.99354,0.01004 2.08385,0.07024 z m 0.8429,1.57543 v 0.30104 l -2.95685,0.01003 c -2.34475,0.0067 -2.96355,0 -2.98696,-0.03346 -0.0301,-0.05017 -0.0368,-0.464934 -0.007,-0.541866 0.0201,-0.05017 0.30438,-0.05352 2.98696,-0.04683 l 2.96354,0.01004 z"
       id="path132"
       style="fill:#000000;stroke:none;stroke-width:0.00334486" /><path
       d="m 7.7626425,38.75167 c -0.735694,0.19619 -1.345269,0.683144 -1.671076,1.348776 -0.224212,0.458935 -0.276761,0.686649 -0.273258,1.208641 0,0.39587 0.01051,0.469443 0.108602,0.753212 0.143636,0.420391 0.315298,0.707665 0.613078,1.019461 l 0.248735,0.25924 h -0.472945 c -0.592059,0 -0.781238,0.04906 -0.991436,0.262752 -0.33982,0.339816 -0.329311,0.858309 0.02452,1.198125 0.143635,0.140135 0.332814,0.220712 0.511482,0.220712 0.164655,0 0.213702,0.04554 0.353834,0.353836 0.245231,0.514981 0.213702,0.980919 -0.08758,1.383799 -0.06656,0.09109 -0.112106,0.115614 -0.269755,0.133133 -0.238225,0.03153 -0.525496,0.192677 -0.637601,0.364337 -0.213702,0.325809 -0.175166,0.802263 0.08408,1.03698 0.04204,0.03857 0.07357,0.07707 0.07357,0.08759 0,0.01401 -0.105099,0.101593 -0.231217,0.196182 -0.437914,0.329315 -0.802257,0.872323 -0.949397,1.418837 -0.09459,0.353836 -0.08758,1.026472 0.02102,1.366287 0.143636,0.469443 0.336317,0.791747 0.669131,1.121062 0.493966,0.493965 0.966912,0.707666 1.688593,0.774228 0.255741,0.02105 2.970802,0.03153 7.6126815,0.02449 6.523153,-0.01049 7.227318,-0.01753 7.339424,-0.06659 0.290774,-0.133125 0.476448,-0.381856 0.514985,-0.690147 0.05255,-0.465937 -0.318801,-0.914363 -0.767223,-0.917869 -0.147139,0 -0.175165,-0.01401 -0.269755,-0.133125 -0.325808,-0.392372 -0.32931,-1.082519 -0.007,-1.594002 0.101596,-0.157647 0.115609,-0.164657 0.26625,-0.164657 0.683145,0 1.047489,-0.89334 0.567536,-1.394315 -0.220708,-0.23122 -0.336316,-0.26625 -0.903852,-0.280264 l -0.511483,-0.01401 0.175165,-0.161152 c 0.199689,-0.189179 0.430907,-0.500975 0.564032,-0.767225 0.332814,-0.662127 0.332814,-1.60451 -0.0035,-2.263132 -0.381859,-0.756717 -1.089528,-1.303231 -1.860255,-1.43285 l -0.252238,-0.04202 0.02102,-0.210203 c 0.02102,-0.241728 -0.03503,-0.451924 -0.178668,-0.637598 -0.115609,-0.154149 -0.409887,-0.294277 -0.609575,-0.294277 -0.154145,0 -0.168159,-0.0067 -0.276761,-0.17166 -0.161152,-0.238231 -0.224212,-0.434413 -0.220708,-0.721687 0,-0.26625 0.08408,-0.560527 0.231218,-0.809258 0.08058,-0.133125 0.105098,-0.150644 0.255741,-0.171661 0.231218,-0.03153 0.25574,-0.04202 0.430906,-0.150644 0.101596,-0.06658 0.189179,-0.161152 0.255742,-0.290779 0.23472,-0.4309 0.06306,-0.952899 -0.381861,-1.156084 -0.133125,-0.06307 -0.367846,-0.06659 -5.34254,-0.06307 -5.0307455,0 -5.2094145,0.0037 -5.4616525,0.06658 z m 10.6850805,0.557029 c 0.133125,0.133125 0.133125,0.259247 0,0.392372 l -0.101597,0.101593 h -4.974692 c -4.8555805,0 -4.9781965,0 -5.1989045,0.07003 -0.420397,0.12962 -0.718178,0.388867 -0.917866,0.805761 -0.101596,0.210196 -0.108602,0.255742 -0.108602,0.599062 0,0.353837 0.0035,0.378359 0.129622,0.630595 0.161152,0.32581 0.39237,0.553524 0.72168,0.707666 l 0.234722,0.112108 5.0447595,0.01753 c 3.885165,0.01401 5.062275,0.02801 5.118328,0.05954 0.147139,0.08408 0.164656,0.318806 0.03153,0.448426 l -0.08408,0.08758 h -5.090302 c -5.4826725,0 -5.2899915,0.0037 -5.6963745,-0.178663 -0.521992,-0.238231 -0.935382,-0.714676 -1.11405,-1.271706 -0.119113,-0.378351 -0.126119,-0.87582 -0.02102,-1.212138 0.07707,-0.234725 0.269755,-0.578046 0.427404,-0.756717 0.26625,-0.308291 0.767223,-0.602568 1.142076,-0.672636 0.101597,-0.02105 2.2421165,-0.03505 5.2619655,-0.03857 l 5.093804,-0.0037 z m -1.075515,1.25418 c -0.213701,0.521991 -0.199688,1.050994 0.03854,1.594009 0.02452,0.05954 -0.199689,0.06307 -4.438688,0.06307 -4.8836065,0 -4.6593955,0.01049 -4.9536735,-0.203193 -0.07357,-0.05602 -0.182171,-0.185674 -0.241727,-0.290772 -0.09109,-0.164657 -0.1051,-0.224216 -0.1051,-0.451931 0.0035,-0.311788 0.07357,-0.476446 0.297781,-0.679639 0.273258,-0.245233 -0.09809,-0.227714 4.9256475,-0.231219 h 4.561303 z m 2.126506,3.433237 c 0.82678,0.283769 1.394316,1.061503 1.408329,1.937331 0.0035,0.364345 -0.04904,0.602568 -0.213702,0.945896 -0.157649,0.336318 -0.550019,0.742696 -0.87933,0.907353 -0.182171,0.09459 -0.66913,0.248731 -0.781236,0.248731 -0.01401,0 -0.02803,-0.143633 -0.02803,-0.315293 0,-0.273261 0.01051,-0.318799 0.06306,-0.336318 0.714674,-0.220712 1.184116,-0.942391 1.0615,-1.632538 -0.07707,-0.441415 -0.346826,-0.844296 -0.707667,-1.054499 -0.357336,-0.210196 0.03503,-0.199687 -7.066165,-0.199687 -6.9295375,0 -6.6492735,0.0067 -6.7123325,-0.157647 -0.04555,-0.122617 -0.02102,-0.26625 0.06656,-0.353837 l 0.08408,-0.08407 6.7368555,0.0067 6.736855,0.01049 z m -0.430906,1.128065 c 0.206694,0.09459 0.37135,0.262752 0.469442,0.486962 0.05606,0.119111 0.06656,0.213701 0.05606,0.409891 -0.01401,0.315293 -0.140132,0.539503 -0.395874,0.71117 l -0.175166,0.119112 -0.02102,-0.189179 c -0.02452,-0.234725 -0.04904,-0.29078 -0.157649,-0.339823 -0.119113,-0.05258 -2.848188,-0.05602 -2.967299,0 -0.112106,0.05258 -0.164656,0.17166 -0.164656,0.381863 v 0.175166 h -4.50175 -4.5052505 l 0.05255,-0.0981 c 0.112106,-0.220711 0.168159,-0.543016 0.154146,-0.882831 -0.01752,-0.318807 -0.04204,-0.413389 -0.227715,-0.833788 -0.01401,-0.03505 1.170104,-0.04202 6.0887445,-0.03505 l 6.109763,0.01048 z m -0.623588,3.366683 c 0,0.907353 -0.01401,1.646551 -0.02803,1.646551 -0.01752,0 -0.238225,-0.133125 -0.497469,-0.297782 -0.315298,-0.199688 -0.504476,-0.297783 -0.571039,-0.297783 -0.07007,0 -0.255741,0.09809 -0.571038,0.297783 -0.255742,0.164657 -0.472947,0.297782 -0.483456,0.297782 -0.01401,0 -0.02102,-0.739198 -0.02102,-1.646551 v -1.646559 h 1.086024 1.086025 z m -2.732579,-0.753212 v 0.297775 H 10.754465 5.7937855 l -0.08408,-0.08758 c -0.147138,-0.143633 -0.112105,-0.36785 0.07007,-0.465937 0.04904,-0.02801 1.499414,-0.0385 5.0027195,-0.04202 h 4.92915 z m 0,1.156092 v 0.297775 l -4.613852,0.0067 -4.6173555,0.01049 -0.238225,0.112108 c -0.599065,0.283769 -0.949396,0.938886 -0.840793,1.572986 0.101595,0.581544 0.518489,1.040478 1.079018,1.184119 0.185674,0.04906 1.022964,0.05602 7.5145885,0.05602 8.005052,0 7.412993,-0.01753 7.490066,0.203193 0.04204,0.122617 -0.02102,0.297782 -0.129623,0.353836 -0.04904,0.02801 -2.196571,0.0385 -7.560131,0.03153 l -7.4900665,-0.01049 -0.234721,-0.09108 c -0.690151,-0.269756 -1.1666,-0.784744 -1.341766,-1.450369 -0.06656,-0.26625 -0.06656,-0.749707 0,-1.015957 0.154145,-0.595564 0.550019,-1.086031 1.086025,-1.348776 0.437913,-0.217206 0.164655,-0.206698 5.2479505,-0.206698 l 4.648885,-0.0037 z m 5.706883,-0.213708 c 0.08408,0.09109 0.105101,0.245233 0.04555,0.360847 -0.07707,0.140128 -0.178668,0.150636 -1.355778,0.143633 l -1.121058,-0.01049 -0.01051,-0.290779 -0.01051,-0.287267 h 1.187621 1.187619 z m -5.699876,1.565982 0.01051,0.528995 0.09809,0.08408 c 0.05255,0.04554 0.133126,0.08408 0.178669,0.08408 0.04555,0 0.367846,-0.182176 0.714674,-0.402881 l 0.637601,-0.40288 0.637602,0.40288 c 0.346827,0.220705 0.669131,0.402881 0.714674,0.402881 0.248734,0 0.294278,-0.115614 0.294278,-0.735693 v -0.490467 h 0.72168 c 0.672635,0 0.721681,0.0037 0.697158,0.05954 -0.182172,0.430907 -0.210198,0.557021 -0.206695,0.938885 0,0.325802 0.01752,0.423897 0.09109,0.620087 l 0.09109,0.238223 h -6.852464 c -5.2584615,0 -6.8804915,-0.01049 -6.9925965,-0.04202 -0.192682,-0.05602 -0.51849,-0.381863 -0.574543,-0.57454 -0.108602,-0.374853 -0.0035,-0.767225 0.273259,-1.005448 0.28727,-0.245234 -0.04204,-0.227715 4.9466665,-0.23122 l 4.508753,-0.0037 z"
       id="path198"
       style="fill:#000000;stroke:none;stroke-width:0.00350331" /><g
       id="g3699"
       transform="translate(-26.392624,12.562718)"><rect
         style="fill:none;stroke:#000000;stroke-width:0.346306;stroke-linejoin:round;stroke-dasharray:none;stroke-opacity:1"
         id="rect420"
         width="35.858906"
         height="17.18292"
         x="81.642624"
         y="24.830656"
         ry="0.28550377" /><text
         xml:space="preserve"
         style="font-size:2.82223px;font-family:sans-serif;-inkscape-font-specification:sans-serif;text-align:center;text-anchor:middle;fill:none;stroke:#000000;stroke-width:0.4;stroke-linejoin:round;stroke-dasharray:none;stroke-opacity:1"
         x="82.819908"
         y="28.884224"
         id="text1410"><tspan
           sodipodi:role="line"
           id="tspan1408"
           style="text-align:start;text-anchor:start;fill:#000000;fill-opacity:1;stroke:none;stroke-width:0.4"
           x="82.819908"
           y="28.884224">- Source content</tspan><tspan
           sodipodi:role="line"
           style="text-align:start;text-anchor:start;fill:#000000;fill-opacity:1;stroke:none;stroke-width:0.4"
           x="82.819908"
           y="32.41201"
           id="tspan1509">- Seed question</tspan><tspan
           sodipodi:role="line"
           style="text-align:start;text-anchor:start;fill:#000000;fill-opacity:1;stroke:none;stroke-width:0.4"
           x="82.819908"
           y="35.9398"
           id="tspan2237">- Main discussion topics</tspan><tspan
           sodipodi:role="line"
           style="text-align:start;text-anchor:start;fill:#000000;fill-opacity:1;stroke:none;stroke-width:0.4"
           x="82.819908"
           y="39.467587"
           id="tspan2965">- Interaction type</tspan></text></g><g
       id="g5550"
       transform="translate(0.08431828)"><g
         id="g5498"
         transform="translate(36.236446,-28.181322)"><path
           d="m 73.581101,52.139969 c -0.06574,0.0094 -0.182303,0.03947 -0.257477,0.0639 -0.07517,0.02631 -0.73108,0.343925 -1.456516,0.706646 -1.217832,0.608918 -1.324962,0.667178 -1.418929,0.761148 -0.302582,0.302579 -0.302582,0.802493 -0.0021,1.103193 0.08081,0.08081 0.171022,0.135316 0.484878,0.293184 0.212372,0.107124 0.389037,0.197334 0.392793,0.201092 0.0036,0.0038 -0.02258,0.09773 -0.06014,0.208612 -0.109004,0.328891 -0.133434,0.496157 -0.133434,0.870149 0,0.264996 0.0094,0.3646 0.04132,0.511191 0.101485,0.46421 0.310093,0.890827 0.590119,1.212202 l 0.09397,0.107123 -0.174784,0.05829 c -0.781816,0.257476 -1.3306,0.915257 -1.447123,1.73466 -0.03195,0.227408 -0.0169,0.360843 0.047,0.445417 0.127798,0.165384 0.357081,0.159747 0.48676,-0.01314 0.02819,-0.03756 0.04132,-0.09773 0.05261,-0.231164 0.04324,-0.524347 0.274388,-0.924651 0.687849,-1.193402 0.246202,-0.161629 0.46421,-0.225527 0.815646,-0.238684 l 0.253721,-0.0094 0.150347,0.06582 c 0.381518,0.167259 0.6747,0.227402 1.09756,0.227402 0.422854,0 0.716043,-0.06014 1.097554,-0.227402 l 0.150354,-0.06582 0.253714,0.0094 c 0.351443,0.01313 0.569451,0.07706 0.815646,0.238684 0.411587,0.266869 0.644632,0.669055 0.687856,1.19152 0.01313,0.15411 0.02251,0.187941 0.06766,0.248084 0.125923,0.163502 0.357081,0.157865 0.48676,-0.0169 0.103367,-0.139072 0.02819,-0.667174 -0.150354,-1.04493 -0.25747,-0.546902 -0.687849,-0.928413 -1.262938,-1.12011 l -0.176659,-0.05829 0.08833,-0.103367 c 0.204853,-0.23492 0.407824,-0.590119 0.507435,-0.888945 0.0996,-0.295056 0.127797,-0.482997 0.129672,-0.838196 0.0021,-0.373999 -0.02442,-0.539384 -0.133435,-0.870155 -0.03756,-0.110883 -0.0639,-0.204852 -0.06014,-0.208612 0.0035,-0.0038 0.180415,-0.09397 0.392786,-0.199212 0.317619,-0.159747 0.402186,-0.21237 0.484878,-0.293184 0.302582,-0.302579 0.3007,-0.802493 -0.0021,-1.106952 -0.09586,-0.09397 -0.199229,-0.148473 -1.462167,-0.779944 -1.071249,-0.533741 -1.392617,-0.685971 -1.511022,-0.716041 -0.17854,-0.04322 -0.479241,-0.06014 -0.648381,-0.03383 z m 0.464203,0.608919 c 0.07894,0.01879 0.537502,0.238681 1.430211,0.684094 1.368186,0.684093 1.356905,0.678455 1.356905,0.791217 0,0.112763 0.01129,0.107125 -1.356905,0.791218 -1.351275,0.676576 -1.433967,0.712281 -1.650094,0.712281 -0.216127,0 -0.298826,-0.03571 -1.650093,-0.712281 -1.368187,-0.684093 -1.356912,-0.678455 -1.356912,-0.791218 0,-0.112762 -0.01129,-0.107124 1.358793,-0.791217 0.791216,-0.39655 1.35503,-0.667179 1.418929,-0.684094 0.142828,-0.03383 0.306338,-0.03383 0.449166,0 z m -0.971638,3.38664 c 0.323257,0.152229 0.447292,0.182297 0.751755,0.182297 0.296938,0 0.44541,-0.03387 0.727317,-0.167266 l 0.172903,-0.08081 0.0057,0.33265 0.0057,0.334524 0.05453,0.06951 c 0.127798,0.16914 0.357081,0.161621 0.488641,-0.01505 0.03756,-0.04885 0.03947,-0.08082 0.04508,-0.539383 l 0.0057,-0.48676 0.223646,-0.11276 0.223646,-0.110884 0.047,0.144708 c 0.0639,0.201096 0.08645,0.321375 0.0996,0.539384 0.02066,0.347687 -0.05076,0.687856 -0.21049,1.014861 -0.635232,1.308051 -2.347343,1.597477 -3.373486,0.573215 -0.531858,-0.531865 -0.734836,-1.270464 -0.550651,-2.010937 0.01505,-0.06766 0.04132,-0.15411 0.05637,-0.191696 l 0.02819,-0.06954 0.490515,0.246201 c 0.270633,0.13531 0.590127,0.291301 0.708524,0.347681 z"
           id="path168"
           style="fill:#000000;stroke:none;stroke-width:0.00187937" /><path
           id="rect3701"
           style="fill:none;fill-opacity:1;stroke:#000000;stroke-width:0.428684;stroke-linejoin:round;stroke-dasharray:none;stroke-opacity:1"
           d="m 119.38551,49.653087 c 0.27274,0 0.49243,0.19051 0.49243,0.42703 V 62.13292 c 0,0 -0.21969,0.427032 -0.49243,0.427032 H 74.758004 l 0.0618,0.04744 -8.839857,1.462553 2.200441,-6.222817 V 50.08011 c 0,-0.23652 0.219685,-0.42703 0.492424,-0.42703 z"
           sodipodi:nodetypes="sscsccccsss" /><text
           xml:space="preserve"
           style="font-size:2.82223px;font-family:sans-serif;-inkscape-font-specification:sans-serif;text-align:start;text-anchor:start;fill:none;fill-opacity:1;stroke:#000000;stroke-width:0.4;stroke-linejoin:round;stroke-dasharray:none;stroke-opacity:1"
           x="78.68116"
           y="57.110935"
           id="text3939"><tspan
             sodipodi:role="line"
             id="tspan3937"
             style="fill:#000000;fill-opacity:1;stroke:none;stroke-width:0.4"
             x="78.68116"
             y="57.110935">What's the capital of Brazil?</tspan></text></g><g
         id="g5512"
         transform="translate(36.92471,-24.975841)"><g
           transform="matrix(0.00177567,0,0,-0.00177567,129.80776,74.556918)"
           fill="#000000"
           stroke="none"
           id="g154"><path
             d="m 1560,4834 c -103,-27 -180,-72 -262,-154 -132,-132 -184,-271 -176,-479 3,-107 13,-132 72,-175 39,-29 133,-29 172,0 60,44 68,66 75,192 3,73 11,131 21,153 24,56 83,114 138,138 l 49,21 1348,-2 c 1280,-3 1350,-4 1384,-21 47,-23 103,-79 126,-126 17,-34 18,-83 21,-744 2,-706 2,-708 -19,-758 -26,-61 -93,-122 -156,-143 -34,-12 -86,-16 -192,-16 -132,0 -150,-2 -185,-23 -109,-61 -106,-221 5,-277 33,-17 59,-20 191,-20 177,0 255,14 354,62 94,45 219,168 262,258 63,131 62,113 62,902 0,478 -4,735 -11,770 -42,207 -225,394 -430,443 -94,22 -2765,21 -2849,-1 z"
             id="path144" /><path
             d="m 2056,3977 c -109,-61 -106,-221 5,-277 38,-20 58,-20 938,-18 891,3 900,3 927,24 53,39 69,71 69,134 0,63 -16,95 -69,134 -27,21 -36,21 -929,23 l -902,3 z"
             id="path146" /><path
             d="m 995,3784 c -170,-26 -322,-122 -414,-260 -71,-105 -96,-190 -96,-324 0,-134 25,-219 96,-324 109,-164 284,-258 479,-260 164,-1 300,54 416,169 234,233 234,597 0,830 -75,74 -175,132 -267,154 -56,13 -172,21 -214,15 z m 195,-352 c 99,-50 147,-140 137,-259 -9,-112 -80,-196 -194,-229 -117,-34 -245,24 -306,140 -30,58 -30,174 0,232 74,139 223,187 363,116 z"
             id="path148" /><path
             d="m 2056,3337 c -109,-61 -106,-221 5,-277 36,-19 60,-20 499,-20 439,0 463,1 499,20 113,57 113,223 0,280 -36,19 -60,20 -501,20 -461,0 -463,0 -502,-23 z"
             id="path150" /><path
             d="m 3565,3346 c -16,-7 -40,-24 -52,-38 -13,-13 -187,-283 -389,-599 -201,-315 -371,-573 -377,-572 -7,1 -39,9 -72,18 -74,21 -199,16 -264,-11 -25,-10 -159,-78 -299,-151 -140,-74 -256,-132 -257,-131 -1,2 -14,42 -29,90 -142,443 -640,672 -1068,492 -219,-92 -378,-269 -459,-509 l -24,-70 -3,-738 c -2,-670 -1,-741 14,-772 24,-51 67,-78 133,-83 66,-4 111,20 145,78 21,34 21,51 26,755 l 5,720 23,54 c 68,161 212,275 378,301 202,31 408,-77 498,-262 40,-82 56,-163 56,-284 0,-68 4,-87 22,-114 33,-48 70,-72 120,-77 51,-6 32,-15 515,238 347,182 365,189 431,149 45,-28 72,-76 72,-131 0,-89 2,-88 -515,-363 -458,-244 -472,-251 -536,-254 -80,-5 -148,21 -202,76 -20,20 -86,125 -147,232 -61,107 -119,203 -128,214 -62,68 -190,59 -244,-17 -13,-19 -23,-51 -26,-84 -4,-52 -3,-56 113,-261 136,-239 178,-298 254,-356 70,-54 108,-74 196,-102 l 70,-22 5,-199 c 5,-185 7,-200 27,-229 66,-92 209,-84 267,16 19,32 21,55 24,242 l 3,208 82,44 c 45,25 260,139 477,254 412,219 463,252 526,346 73,107 95,268 54,397 l -19,63 390,613 c 215,337 395,629 400,648 11,39 0,96 -26,133 -37,52 -128,75 -190,48 z"
             id="path152" /></g><path
           id="rect3701-3"
           style="fill:none;fill-opacity:1;stroke:#000000;stroke-width:0.473335;stroke-linejoin:round;stroke-dasharray:none;stroke-opacity:1"
           d="m 87.541778,62.281405 c -0.280121,0 -0.505751,0.226144 -0.505751,0.506904 v 14.307187 c 0,0.280759 0.22563,0.506904 0.505751,0.506904 h 45.835262 l -0.0635,0.05633 9.0791,1.736113 -2.25999,-7.386747 v -9.219777 c 0,-0.280762 -0.22563,-0.506906 -0.50575,-0.506906 z"
           sodipodi:nodetypes="ssssccccsss" /><text
           xml:space="preserve"
           style="font-size:2.82223px;font-family:sans-serif;-inkscape-font-specification:sans-serif;text-align:start;text-anchor:start;fill:#000000;fill-opacity:1;stroke:none;stroke-width:0.4;stroke-linejoin:round;stroke-dasharray:none;stroke-opacity:1"
           x="88.047394"
           y="65.771011"
           id="text4669"><tspan
             sodipodi:role="line"
             style="stroke-width:0.4"
             x="88.047394"
             y="65.771011"
             id="tspan4671">What city became the capital </tspan><tspan
             sodipodi:role="line"
             style="stroke-width:0.4"
             x="88.047394"
             y="69.298798"
             id="tspan5416">when the government built </tspan><tspan
             sodipodi:role="line"
             style="stroke-width:0.4"
             x="88.047394"
             y="72.826584"
             id="tspan5418">a new one from scratch </tspan><tspan
             sodipodi:role="line"
             style="stroke-width:0.4"
             x="88.047394"
             y="76.354378"
             id="tspan5420">in the 1960s?</tspan></text></g><g
         id="g5520"
         transform="translate(39.392903,-22.11366)"><path
           d="m 70.120869,79.907323 c -0.06574,0.0094 -0.182303,0.03947 -0.257477,0.0639 -0.07517,0.02631 -0.73108,0.343925 -1.456516,0.706646 -1.217832,0.608918 -1.324962,0.667178 -1.418929,0.761148 -0.302582,0.302579 -0.302582,0.802493 -0.0021,1.103193 0.08081,0.08081 0.171022,0.135316 0.484878,0.293184 0.212372,0.107124 0.389037,0.197334 0.392793,0.201092 0.0036,0.0038 -0.02258,0.09773 -0.06014,0.208612 -0.109004,0.328891 -0.133434,0.496157 -0.133434,0.870149 0,0.264996 0.0094,0.3646 0.04132,0.511191 0.101485,0.46421 0.310093,0.890827 0.590119,1.212202 l 0.09397,0.107123 -0.174784,0.05829 c -0.781816,0.257476 -1.3306,0.915257 -1.447123,1.73466 -0.03195,0.227408 -0.0169,0.360843 0.047,0.445417 0.127798,0.165384 0.357081,0.159747 0.48676,-0.01314 0.02819,-0.03756 0.04132,-0.09773 0.05261,-0.231164 0.04324,-0.524347 0.274388,-0.924651 0.687849,-1.193402 0.246202,-0.161629 0.46421,-0.225527 0.815646,-0.238684 l 0.253721,-0.0094 0.150347,0.06582 c 0.381518,0.167259 0.6747,0.227402 1.09756,0.227402 0.422854,0 0.716043,-0.06014 1.097554,-0.227402 l 0.150354,-0.06582 0.253714,0.0094 c 0.351443,0.01313 0.569451,0.07706 0.815646,0.238684 0.411587,0.266869 0.644632,0.669055 0.687856,1.19152 0.01313,0.15411 0.02251,0.187941 0.06766,0.248084 0.125923,0.163502 0.357081,0.157865 0.48676,-0.0169 0.103367,-0.139072 0.02819,-0.667174 -0.150354,-1.04493 -0.25747,-0.546902 -0.687849,-0.928413 -1.262938,-1.12011 l -0.176659,-0.05829 0.08833,-0.103367 c 0.204853,-0.23492 0.407824,-0.590119 0.507435,-0.888945 0.0996,-0.295056 0.127797,-0.482997 0.129672,-0.838196 0.0021,-0.373999 -0.02442,-0.539384 -0.133435,-0.870155 -0.03756,-0.110883 -0.0639,-0.204852 -0.06014,-0.208612 0.0035,-0.0038 0.180415,-0.09397 0.392786,-0.199212 0.317619,-0.159747 0.402186,-0.21237 0.484878,-0.293184 0.302582,-0.302579 0.3007,-0.802493 -0.0021,-1.106952 -0.09586,-0.09397 -0.199229,-0.148473 -1.462167,-0.779944 -1.071249,-0.533741 -1.392617,-0.685971 -1.511022,-0.716041 -0.17854,-0.04322 -0.479241,-0.06014 -0.648381,-0.03383 z m 0.464203,0.608919 c 0.07894,0.01879 0.537502,0.238681 1.430211,0.684094 1.368186,0.684093 1.356905,0.678455 1.356905,0.791217 0,0.112763 0.01129,0.107125 -1.356905,0.791218 -1.351275,0.676576 -1.433967,0.712281 -1.650094,0.712281 -0.216127,0 -0.298826,-0.03571 -1.650093,-0.712281 -1.368187,-0.684093 -1.356912,-0.678455 -1.356912,-0.791218 0,-0.112762 -0.01129,-0.107124 1.358793,-0.791217 0.791216,-0.39655 1.35503,-0.667179 1.418929,-0.684094 0.142828,-0.03383 0.306338,-0.03383 0.449166,0 z m -0.971638,3.38664 c 0.323257,0.152229 0.447292,0.182297 0.751755,0.182297 0.296938,0 0.44541,-0.03387 0.727317,-0.167266 l 0.172903,-0.08081 0.0057,0.33265 0.0057,0.334524 0.05453,0.06951 c 0.127798,0.16914 0.357081,0.161621 0.488641,-0.01505 0.03756,-0.04885 0.03947,-0.08082 0.04508,-0.539383 l 0.0057,-0.48676 0.223646,-0.11276 0.223646,-0.110884 0.047,0.144708 c 0.0639,0.201096 0.08645,0.321375 0.0996,0.539384 0.02066,0.347687 -0.05076,0.687856 -0.21049,1.014861 -0.635232,1.308051 -2.347343,1.597477 -3.373486,0.573215 -0.531858,-0.531865 -0.734836,-1.270464 -0.550651,-2.010937 0.01505,-0.06766 0.04132,-0.15411 0.05637,-0.191696 l 0.02819,-0.06954 0.490515,0.246201 c 0.270633,0.13531 0.590127,0.291301 0.708524,0.347681 z"
           id="path168-7"
           style="fill:#000000;stroke:none;stroke-width:0.00187937" /><path
           id="rect3701-6"
           style="fill:none;fill-opacity:1;stroke:#000000;stroke-width:0.441034;stroke-linejoin:round;stroke-dasharray:none;stroke-opacity:1"
           d="m 119.40522,77.955778 c 0.28894,0 0.52166,0.190346 0.52166,0.426664 v 12.042479 c 0,0.236317 -0.23272,0.426665 -0.52166,0.426665 H 72.128757 l 0.06547,0.0474 -9.364563,1.4613 2.331052,-6.217486 v -7.76036 c 0,-0.236318 0.232725,-0.426664 0.521653,-0.426664 z"
           sodipodi:nodetypes="ssssccccsss" /><text
           xml:space="preserve"
           style="font-size:2.82223px;font-family:sans-serif;-inkscape-font-specification:sans-serif;text-align:start;text-anchor:start;fill:#000000;fill-opacity:1;stroke:none;stroke-width:0.4;stroke-linejoin:round;stroke-dasharray:none;stroke-opacity:1"
           x="74.706161"
           y="81.407005"
           id="text4669-5"><tspan
             sodipodi:role="line"
             style="stroke-width:0.4"
             x="74.706161"
             y="81.407005"
             id="tspan5482">Hmm... maybe Brasília? I </tspan><tspan
             sodipodi:role="line"
             style="stroke-width:0.4"
             x="74.706161"
             y="84.934792"
             id="tspan5484">remember it was a planned </tspan><tspan
             sodipodi:role="line"
             style="stroke-width:0.4"
             x="74.706161"
             y="88.462578"
             id="tspan5492">city.</tspan></text></g><rect
         style="fill:none;fill-opacity:1;stroke:#000000;stroke-width:0.315;stroke-linejoin:round;stroke-dasharray:2.52, 0.315;stroke-dashoffset:0;stroke-opacity:1"
         id="rect5522"
         width="81.534729"
         height="54.484913"
         x="100.07487"
         y="18.742378"
         ry="0.28184706" /></g><text
       xml:space="preserve"
       style="font-size:2.82223px;font-family:sans-serif;-inkscape-font-specification:sans-serif;text-align:start;text-anchor:start;fill:none;fill-opacity:1;stroke:#000000;stroke-width:0.315;stroke-linejoin:round;stroke-dasharray:2.52, 0.315;stroke-dashoffset:0;stroke-opacity:1"
       x="13.031146"
       y="60.054276"
       id="text6340"><tspan
         sodipodi:role="line"
         style="text-align:center;text-anchor:middle;fill:#000000;fill-opacity:1;stroke:none;stroke-width:0.315"
         x="13.031146"
         y="60.054276"
         id="tspan6342">Source content</tspan></text><text
       xml:space="preserve"
       style="font-size:2.82223px;font-family:sans-serif;-inkscape-font-specification:sans-serif;text-align:start;text-anchor:start;fill:none;fill-opacity:1;stroke:#000000;stroke-width:0.315;stroke-linejoin:round;stroke-dasharray:2.52, 0.315;stroke-dashoffset:0;stroke-opacity:1"
       x="38.841747"
       y="60.580399"
       id="text6340-9"><tspan
         sodipodi:role="line"
         style="text-align:center;text-anchor:middle;fill:#000000;fill-opacity:1;stroke:none;stroke-width:0.315"
         x="38.841747"
         y="60.580399"
         id="tspan6342-2">LLM</tspan><tspan
         sodipodi:role="line"
         style="font-size:2.11667px;text-align:center;text-anchor:middle;fill:#000000;fill-opacity:1;stroke:none;stroke-width:0.315"
         x="38.841747"
         y="64.108185"
         id="tspan6395">(seeding)</tspan></text><text
       xml:space="preserve"
       style="font-size:2.82223px;font-family:sans-serif;-inkscape-font-specification:sans-serif;text-align:start;text-anchor:start;fill:none;fill-opacity:1;stroke:#000000;stroke-width:0.315;stroke-linejoin:round;stroke-dasharray:2.52, 0.315;stroke-dashoffset:0;stroke-opacity:1"
       x="198.86012"
       y="59.88385"
       id="text6340-9-0"><tspan
         sodipodi:role="line"
         style="text-align:center;text-anchor:middle;fill:#000000;fill-opacity:1;stroke:none;stroke-width:0.315"
         x="198.86012"
         y="59.88385"
         id="tspan6342-2-9">LLM</tspan><tspan
         sodipodi:role="line"
         style="font-size:2.11667px;text-align:center;text-anchor:middle;fill:#000000;fill-opacity:1;stroke:none;stroke-width:0.315"
         x="198.86012"
         y="63.411636"
         id="tspan6395-3">(judgement)</tspan></text><text
       xml:space="preserve"
       style="font-size:2.82222px;font-family:sans-serif;-inkscape-font-specification:sans-serif;text-align:center;text-anchor:middle;fill:#000000;fill-opacity:1;stroke:none;stroke-width:0.315;stroke-linejoin:round;stroke-dasharray:2.52, 0.315;stroke-dashoffset:0;stroke-opacity:1"
       x="198.84325"
       y="67.985245"
       id="text6438"><tspan
         sodipodi:role="line"
         id="tspan6436"
         style="font-size:2.82222px;stroke-width:0.315"
         x="198.84325"
         y="67.985245">Feedback + </tspan><tspan
         sodipodi:role="line"
         style="font-size:2.82222px;stroke-width:0.315"
         x="198.84325"
         y="71.513023"
         id="tspan6444">Asessment</tspan></text><text
       xml:space="preserve"
       style="font-size:2.11667px;font-family:sans-serif;-inkscape-font-specification:sans-serif;text-align:center;text-anchor:middle;fill:#000000;fill-opacity:1;stroke:none;stroke-width:0.315;stroke-linejoin:round;stroke-dasharray:2.52, 0.315;stroke-dashoffset:0;stroke-opacity:1"
       x="186.67445"
       y="65.200264"
       id="text6442"><tspan
         sodipodi:role="line"
         id="tspan6440"
         style="stroke-width:0.315" /></text><path
       style="fill:none;fill-opacity:1;stroke:#000000;stroke-width:0.315;stroke-linejoin:round;stroke-dasharray:none;stroke-dashoffset:0;stroke-opacity:1;marker-end:url(#Arrow2)"
       d="m 22.989652,47.366692 5.51306,0.09824"
       id="path6671"
       sodipodi:nodetypes="cc" /><path
       style="fill:none;fill-opacity:1;stroke:#000000;stroke-width:0.315;stroke-linejoin:round;stroke-dasharray:none;stroke-dashoffset:0;stroke-opacity:1;marker-end:url(#Arrow2-6)"
       d="m 47.332759,47.464932 h 5.51306"
       id="path6671-6"
       sodipodi:nodetypes="cc" /><path
       style="fill:none;fill-opacity:1;stroke:#000000;stroke-width:0.315;stroke-linejoin:round;stroke-dasharray:none;stroke-dashoffset:0;stroke-opacity:1;marker-end:url(#Arrow2-2)"
       d="m 92.319914,47.464932 h 5.51306"
       id="path6671-1"
       sodipodi:nodetypes="cc" /><path
       style="fill:none;fill-opacity:1;stroke:#000000;stroke-width:0.315;stroke-linejoin:round;stroke-dasharray:none;stroke-dashoffset:0;stroke-opacity:1;marker-end:url(#Arrow2-2-8)"
       d="m 182.40111,47.464932 h 5.51306"
       id="path6671-1-9"
       sodipodi:nodetypes="cc" /><path
       style="fill:none;fill-opacity:1;stroke:#000000;stroke-width:0.315;stroke-linejoin:round;stroke-dasharray:none;stroke-dashoffset:0;stroke-opacity:1;marker-end:url(#Arrow2-2-8)"
       d="M 73.136558,36.255262 V 10.744628 L 199.07619,10.354943 v 24.040639"
       id="path7252"
       sodipodi:nodetypes="cccc" /><text
       xml:space="preserve"
       style="font-size:2.11667px;font-family:sans-serif;-inkscape-font-specification:sans-serif;text-align:center;text-anchor:middle;fill:none;stroke:#000000;stroke-width:0.315;stroke-linejoin:round"
       x="12.746057"
       y="64.32029"
       id="text483"><tspan
         sodipodi:role="line"
         id="tspan481"
         style="font-size:2.11667px;fill:#000000;fill-opacity:1;stroke:none;stroke-width:0.315"
         x="12.746057"
         y="64.32029">(textbooks)</tspan></text><g
       transform="matrix(0.00286539,0,0,-0.00286539,31.228614,54.791126)"
       fill="#000000"
       stroke="none"
       id="g357"><path
         d="m 3118,5024 c -126,-30 -195,-81 -333,-246 -163,-194 -219,-335 -219,-548 0,-146 15,-214 74,-335 72,-146 143,-220 260,-267 76,-31 257,-31 375,1 121,32 270,109 332,173 125,128 153,218 153,490 0,204 -9,277 -46,391 -86,261 -336,404 -596,341 z m 265,-178 c 66,-32 130,-98 163,-171 43,-93 56,-195 52,-408 -3,-175 -5,-196 -26,-241 -28,-61 -80,-125 -121,-149 l -30,-18 -29,58 c -66,132 -101,273 -109,446 l -6,117 h -78 -79 v -82 c 0,-169 45,-373 116,-527 19,-41 32,-76 30,-78 -2,-2 -41,-11 -87,-19 -153,-29 -248,-7 -323,76 -49,54 -102,167 -121,255 -43,206 12,383 185,587 126,150 203,192 336,184 50,-3 88,-12 127,-30 z"
         id="path345" /><path
         d="m 1640,4542 c -36,-9 -87,-30 -115,-46 -58,-34 -415,-382 -482,-471 -25,-33 -63,-96 -84,-140 -125,-261 -99,-522 71,-692 188,-188 477,-203 683,-37 26,22 126,140 223,264 232,298 285,405 301,610 10,132 -20,239 -96,340 -117,155 -310,222 -501,172 z m 255,-171 49,-22 -96,-92 c -101,-96 -128,-138 -153,-234 -27,-103 -27,-103 64,-103 h 78 l 7,41 c 13,79 47,128 154,217 l 49,41 13,-27 c 38,-82 16,-256 -50,-387 -55,-111 -358,-498 -424,-543 -107,-72 -234,-80 -350,-23 -109,53 -182,160 -193,280 l -6,58 39,6 c 22,4 75,10 119,13 108,9 158,-6 215,-63 l 44,-45 68,33 c 37,18 68,36 68,41 0,20 -92,117 -139,145 -74,44 -144,57 -268,49 -60,-4 -103,-3 -103,2 0,21 34,89 70,141 42,62 420,441 460,461 86,45 199,49 285,11 z"
         id="path347" /><path
         d="m 2790,3354 c -88,-11 -243,-49 -321,-79 -48,-18 -183,-82 -300,-141 -234,-118 -295,-164 -351,-270 -125,-234 -33,-527 203,-643 194,-95 515,-75 764,49 271,134 442,354 485,623 25,154 -7,274 -95,362 -70,71 -138,98 -254,101 -53,1 -112,0 -131,-2 z m 208,-169 c 108,-46 142,-144 107,-309 -40,-189 -185,-361 -394,-466 l -63,-31 -48,49 c -58,61 -98,140 -113,226 l -11,66 h -78 -78 v -27 c 1,-92 58,-246 120,-324 l 29,-36 -46,-7 c -116,-16 -257,1 -332,39 -107,54 -177,176 -168,293 6,78 44,158 97,206 50,45 432,237 551,277 159,53 356,73 427,44 z"
         id="path349" /><path
         d="m 852,2625 c -183,-52 -310,-179 -357,-361 -20,-78 -20,-402 0,-556 26,-201 93,-408 166,-518 103,-153 289,-242 474,-227 205,18 367,139 470,352 60,123 75,206 75,408 0,189 -15,296 -60,419 -109,302 -335,482 -620,494 -65,3 -112,-1 -148,-11 z m 233,-160 c 84,-22 132,-46 194,-95 l 55,-44 -93,-22 c -140,-35 -236,-95 -324,-205 -64,-81 -117,-223 -117,-316 0,-22 3,-23 79,-23 h 79 l 7,55 c 9,75 65,183 121,235 72,66 158,102 265,108 l 89,5 20,-47 c 42,-100 52,-157 57,-346 4,-142 1,-202 -10,-256 -33,-157 -133,-296 -255,-356 -60,-30 -75,-33 -157,-33 -82,0 -97,3 -157,33 -43,21 -83,51 -113,84 l -46,51 28,29 c 42,44 160,98 242,111 l 71,11 v 78 78 h -32 c -94,-1 -259,-58 -336,-117 -18,-14 -35,-23 -38,-20 -11,10 -53,200 -63,282 -17,138 -14,440 4,503 52,174 237,267 430,217 z"
         id="path351" /><path
         d="m 3521,2464 c -132,-35 -227,-113 -285,-234 -28,-59 -31,-74 -31,-161 0,-90 2,-99 38,-171 27,-56 53,-91 95,-128 163,-146 399,-262 624,-305 117,-23 272,-30 336,-16 166,35 298,167 333,333 35,161 -37,374 -172,510 -80,80 -210,148 -331,172 -105,22 -528,22 -607,0 z m 587,-159 c 216,-51 372,-232 372,-430 0,-165 -127,-282 -297,-273 l -57,3 -20,50 c -15,37 -20,75 -20,145 0,94 4,113 60,235 4,9 -114,75 -135,75 -13,0 -59,-110 -77,-186 -16,-67 -15,-203 2,-261 8,-30 -8,-30 -104,3 -218,75 -429,227 -460,332 -41,136 38,267 188,313 14,4 129,8 255,8 171,1 246,-3 293,-14 z"
         id="path353" /><path
         d="m 2486,1909 c -70,-14 -182,-69 -243,-118 -110,-88 -198,-239 -229,-391 -13,-67 -15,-111 -10,-210 14,-279 81,-487 259,-805 133,-236 363,-347 605,-290 196,46 360,216 401,413 14,67 14,460 1,572 -23,189 -95,407 -182,554 -103,174 -266,273 -463,281 -49,2 -112,0 -139,-6 z m 290,-193 c 93,-46 151,-111 209,-230 52,-107 87,-209 112,-326 15,-70 18,-132 18,-355 0,-198 -4,-280 -13,-307 l -13,-38 -51,26 c -125,63 -237,237 -238,367 v 27 h -80 -80 v -33 c 0,-51 35,-178 66,-239 54,-106 163,-221 247,-259 15,-7 26,-17 24,-23 -2,-6 -34,-27 -72,-46 -63,-32 -75,-35 -159,-35 -83,0 -98,3 -156,32 -91,45 -139,99 -221,248 -128,235 -174,370 -199,595 -13,105 -9,245 7,274 7,13 16,11 64,-12 81,-39 154,-98 208,-168 l 47,-62 59,44 c 32,24 60,46 63,48 7,8 -62,97 -120,153 -59,57 -162,126 -214,143 -19,6 -34,16 -34,22 0,5 28,38 63,72 95,95 181,129 311,122 65,-4 91,-10 152,-40 z"
         id="path355" /></g></g></svg>
