<?xml version="1.0" encoding="UTF-8" standalone="no"?>
<svg
   version="1.1"
   width="400"
   height="250"
   id="svg165"
   sodipodi:docname="success_rate_by_interaction_length.svg"
   inkscape:version="1.2.2 (732a01da63, 2022-12-09)"
   xmlns:inkscape="http://www.inkscape.org/namespaces/inkscape"
   xmlns:sodipodi="http://sodipodi.sourceforge.net/DTD/sodipodi-0.dtd"
   xmlns="http://www.w3.org/2000/svg"
   xmlns:svg="http://www.w3.org/2000/svg">
  <sodipodi:namedview
     id="namedview167"
     pagecolor="#ffffff"
     bordercolor="#000000"
     borderopacity="0.25"
     inkscape:showpageshadow="2"
     inkscape:pageopacity="0.0"
     inkscape:pagecheckerboard="0"
     inkscape:deskcolor="#d1d1d1"
     showgrid="false"
     inkscape:zoom="1.66"
     inkscape:cx="118.37349"
     inkscape:cy="70.783133"
     inkscape:window-width="1920"
     inkscape:window-height="991"
     inkscape:window-x="-9"
     inkscape:window-y="-9"
     inkscape:window-maximized="1"
     inkscape:current-layer="svg165" />
  <defs
     id="defs53">
    <clipPath
       id="xvOTSpeVQHCM">
      <path
         fill="none"
         stroke="none"
         d="M 0.5 0.5 L 400.5 0.5 L 400.5 250.5 L 0.5 250.5 L 0.5 0.5 Z M 64.5 5.5 L 370.5 5.5 L 370.5 202.5 L 64.5 202.5 L 64.5 5.5 Z"
         clip-rule="evenodd"
         id="path2" />
    </clipPath>
    <clipPath
       id="enSrCtSHNTuz">
      <path
         fill="none"
         stroke="none"
         d="M 64.5 5.5 L 370.5 5.5 L 370.5 202.5 L 64.5 202.5 L 64.5 5.5 Z"
         id="path5" />
    </clipPath>
    <clipPath
       id="LwMQEyqnfJTo">
      <path
         fill="none"
         stroke="none"
         d="M 64.5 5.5 L 370.5 5.5 L 370.5 202.5 L 64.5 202.5 L 64.5 5.5 Z"
         id="path8" />
    </clipPath>
    <clipPath
       id="XZySKvrpUmvV">
      <path
         fill="none"
         stroke="none"
         d="M 64.5 5.5 L 370.5 5.5 L 370.5 202.5 L 64.5 202.5 L 64.5 5.5 Z"
         id="path11" />
    </clipPath>
    <clipPath
       id="nwcWonCBUvOz">
      <path
         fill="none"
         stroke="none"
         d="M 64.5 5.5 L 370.5 5.5 L 370.5 202.5 L 64.5 202.5 L 64.5 5.5 Z"
         id="path14" />
    </clipPath>
    <clipPath
       id="JXaSUBuwIHFq">
      <path
         fill="none"
         stroke="none"
         d="M 64.5 5.5 L 370.5 5.5 L 370.5 202.5 L 64.5 202.5 L 64.5 5.5 Z"
         id="path17" />
    </clipPath>
    <clipPath
       id="rRLVIFWwSJLZ">
      <path
         fill="none"
         stroke="none"
         d="M 64.5 5.5 L 370.5 5.5 L 370.5 202.5 L 64.5 202.5 L 64.5 5.5 Z"
         id="path20" />
    </clipPath>
    <clipPath
       id="VtwfiOXBXaqC">
      <path
         fill="none"
         stroke="none"
         d="M 64.5 5.5 L 370.5 5.5 L 370.5 202.5 L 64.5 202.5 L 64.5 5.5 Z"
         id="path23" />
    </clipPath>
    <clipPath
       id="kETTrTgFxRXT">
      <path
         fill="none"
         stroke="none"
         d="M 64.5 5.5 L 370.5 5.5 L 370.5 202.5 L 64.5 202.5 L 64.5 5.5 Z"
         id="path26" />
    </clipPath>
    <clipPath
       id="zsKbrWnWrQkD">
      <path
         fill="none"
         stroke="none"
         d="M 64.5 5.5 L 370.5 5.5 L 370.5 202.5 L 64.5 202.5 L 64.5 5.5 Z"
         id="path29" />
    </clipPath>
    <clipPath
       id="oauzsUlglBeH">
      <path
         fill="none"
         stroke="none"
         d="M 64.5 5.5 L 370.5 5.5 L 370.5 202.5 L 64.5 202.5 L 64.5 5.5 Z"
         id="path32" />
    </clipPath>
    <clipPath
       id="oErmLnkJUuPK">
      <path
         fill="none"
         stroke="none"
         d="M 64.5 5.5 L 370.5 5.5 L 370.5 202.5 L 64.5 202.5 L 64.5 5.5 Z"
         id="path35" />
    </clipPath>
    <clipPath
       id="EtJccclEbRir">
      <path
         fill="none"
         stroke="none"
         d="M 64.5 5.5 L 370.5 5.5 L 370.5 202.5 L 64.5 202.5 L 64.5 5.5 Z"
         id="path38" />
    </clipPath>
    <clipPath
       id="NwhEFbUTbKKM">
      <path
         fill="none"
         stroke="none"
         d="M 64.5 5.5 L 370.5 5.5 L 370.5 202.5 L 64.5 202.5 L 64.5 5.5 Z"
         id="path41" />
    </clipPath>
    <clipPath
       id="ChPsspWODcsf">
      <path
         fill="none"
         stroke="none"
         d="M 64.5 5.5 L 370.5 5.5 L 370.5 202.5 L 64.5 202.5 L 64.5 5.5 Z"
         id="path44" />
    </clipPath>
    <clipPath
       id="TAMMTSybwoXE">
      <path
         fill="none"
         stroke="none"
         d="M 64.5 5.5 L 370.5 5.5 L 370.5 202.5 L 64.5 202.5 L 64.5 5.5 Z"
         id="path47" />
    </clipPath>
    <clipPath
       id="cgEgAbQsMllK">
      <path
         fill="none"
         stroke="none"
         d="M 64.5 5.5 L 370.5 5.5 L 370.5 202.5 L 64.5 202.5 L 64.5 5.5 Z"
         id="path50" />
    </clipPath>
    <marker
       style="overflow:visible"
       id="Arrow2"
       refX="0"
       refY="0"
       orient="auto-start-reverse"
       inkscape:stockid="Arrow2"
       markerWidth="7.6999998"
       markerHeight="5.5999999"
       viewBox="0 0 7.7 5.6"
       inkscape:isstock="true"
       inkscape:collect="always"
       preserveAspectRatio="xMidYMid">
      <path
         transform="scale(0.7)"
         d="M -2,-4 9,0 -2,4 c 2,-2.33 2,-5.66 0,-8 z"
         style="fill:context-stroke;fill-rule:evenodd;stroke:none"
         id="arrow2L" />
    </marker>
    <marker
       style="overflow:visible"
       id="Arrow2-5"
       refX="0"
       refY="0"
       orient="auto-start-reverse"
       inkscape:stockid="Arrow2"
       markerWidth="7.6999998"
       markerHeight="5.5999999"
       viewBox="0 0 7.7 5.6"
       inkscape:isstock="true"
       inkscape:collect="always"
       preserveAspectRatio="xMidYMid">
      <path
         transform="scale(0.7)"
         d="M -2,-4 9,0 -2,4 c 2,-2.33 2,-5.66 0,-8 z"
         style="fill:context-stroke;fill-rule:evenodd;stroke:none"
         id="arrow2L-19" />
    </marker>
    <marker
       style="overflow:visible"
       id="Arrow2-7"
       refX="0"
       refY="0"
       orient="auto-start-reverse"
       inkscape:stockid="Arrow2"
       markerWidth="7.6999998"
       markerHeight="5.5999999"
       viewBox="0 0 7.7 5.6"
       inkscape:isstock="true"
       inkscape:collect="always"
       preserveAspectRatio="xMidYMid">
      <path
         transform="scale(0.7)"
         d="M -2,-4 9,0 -2,4 c 2,-2.33 2,-5.66 0,-8 z"
         style="fill:context-stroke;fill-rule:evenodd;stroke:none"
         id="arrow2L-7" />
    </marker>
    <marker
       style="overflow:visible"
       id="Arrow2-8"
       refX="0"
       refY="0"
       orient="auto-start-reverse"
       inkscape:stockid="Arrow2"
       markerWidth="7.6999998"
       markerHeight="5.5999999"
       viewBox="0 0 7.7 5.6"
       inkscape:isstock="true"
       inkscape:collect="always"
       preserveAspectRatio="xMidYMid">
      <path
         transform="scale(0.7)"
         d="M -2,-4 9,0 -2,4 c 2,-2.33 2,-5.66 0,-8 z"
         style="fill:context-stroke;fill-rule:evenodd;stroke:none"
         id="arrow2L-1" />
    </marker>
    <marker
       style="overflow:visible"
       id="Arrow2-8-4-8"
       refX="0"
       refY="0"
       orient="auto-start-reverse"
       inkscape:stockid="Arrow2"
       markerWidth="7.6999998"
       markerHeight="5.5999999"
       viewBox="0 0 7.7 5.6"
       inkscape:isstock="true"
       inkscape:collect="always"
       preserveAspectRatio="xMidYMid">
      <path
         transform="scale(0.7)"
         d="M -2,-4 9,0 -2,4 c 2,-2.33 2,-5.66 0,-8 z"
         style="fill:context-stroke;fill-rule:evenodd;stroke:none"
         id="arrow2L-1-6-8" />
    </marker>
  </defs>
  <path
     fill="#ffffff"
     stroke="none"
     paint-order="stroke"
     d="M 0.5 0.5 L 400.5 0.5 L 400.5 250.5 L 0.5 250.5 L 0.5 0.5 Z"
     clip-path="url(#xvOTSpeVQHCM)"
     id="path55" />
  <path
     fill="#ffffff"
     stroke="none"
     paint-order="stroke"
     d="M 64.5 5.5 L 370.5 5.5 L 370.5 202.5 L 64.5 202.5 L 64.5 5.5 Z"
     id="path57" />
  <path
     fill="none"
     stroke="#e5e5e5"
     paint-order="fill"
     d="M 64.5 5.5 L 370.5 5.5 L 370.5 202.5 L 64.5 202.5 L 64.5 5.5 Z"
     stroke-linejoin="bevel"
     stroke-miterlimit="10"
     id="path59" />
  <path
     fill="none"
     stroke="#e5e5e5"
     paint-order="fill"
     d="M 78.5 202.5 L 78.5 5.5 M 118.5 202.5 L 118.5 5.5 M 157.5 202.5 L 157.5 5.5 M 197.5 202.5 L 197.5 5.5 M 237.5 202.5 L 237.5 5.5 M 277.5 202.5 L 277.5 5.5 M 316.5 202.5 L 316.5 5.5 M 356.5 202.5 L 356.5 5.5"
     stroke-linejoin="bevel"
     stroke-miterlimit="10"
     clip-path="url(#enSrCtSHNTuz)"
     id="path61" />
  <path
     fill="none"
     stroke="#e5e5e5"
     paint-order="fill"
     d="M 64.5 172.5 L 370.5 172.5 M 64.5 141.5 L 370.5 141.5 M 64.5 110.5 L 370.5 110.5 M 64.5 79.5 L 370.5 79.5 M 64.5 48.5 L 370.5 48.5 M 64.5 17.5 L 370.5 17.5"
     stroke-linejoin="bevel"
     stroke-miterlimit="10"
     clip-path="url(#LwMQEyqnfJTo)"
     id="path63" />
  <path
     fill="rgb(31,119,180)"
     stroke="none"
     paint-order="stroke"
     d="M 78.40908813476562 165.6705322265625 L 118.14935302734375 120.99242401123047 L 197.62986755371094 120.99242401123047 L 356.5909118652344 113.03252410888672 L 356.5909118652344 63.071533203125 L 197.62986755371094 72.57638549804688 L 118.14935302734375 72.57638549804688 L 78.40908813476562 129.19386291503906 Z"
     fill-opacity="0.30196078431372547"
     clip-path="url(#XZySKvrpUmvV)"
     id="path65" />
  <path
     fill="none"
     stroke="#1f77b4"
     paint-order="fill"
     d="M 78.40908813476562 150.21163940429688 L 118.14935302734375 99.00796508789062 L 197.62986755371094 99.00796508789062 L 356.5909118652344 90.17974090576172"
     stroke-linejoin="bevel"
     stroke-miterlimit="10"
     stroke-width="3"
     clip-path="url(#nwcWonCBUvOz)"
     id="path67" />
  <path
     fill="rgb(214,39,40)"
     stroke="none"
     paint-order="stroke"
     d="M 78.40908813476562 187.0262451171875 L 118.14935302734375 124.15957641601562 L 197.62986755371094 103.4074935913086 L 356.5909118652344 87.20762634277344 L 356.5909118652344 33.00921630859375 L 197.62986755371094 51.73885726928711 L 118.14935302734375 76.39513397216797 L 78.40908813476562 160.232421875 Z"
     fill-opacity="0.30196078431372547"
     clip-path="url(#JXaSUBuwIHFq)"
     id="path69" />
  <path
     fill="none"
     stroke="#d62728"
     paint-order="fill"
     d="M 78.40908813476562 176.69630432128906 L 118.14935302734375 102.53925323486328 L 197.62986755371094 79.58587646484375 L 356.5909118652344 61.92943572998047"
     stroke-linejoin="bevel"
     stroke-miterlimit="10"
     stroke-width="3"
     clip-path="url(#rRLVIFWwSJLZ)"
     id="path71" />
  <path
     fill="rgb(148,103,189)"
     stroke="none"
     paint-order="stroke"
     d="M 78.40908813476562 193.5454559326172 L 118.14935302734375 136.72164916992188 L 197.62986755371094 116.22345733642578 L 356.5909118652344 117.81547546386719 L 356.5909118652344 68.7674331665039 L 197.62986755371094 66.86650085449219 L 118.14935302734375 91.77667999267578 L 78.40908813476562 171.17796325683594 Z"
     fill-opacity="0.30196078431372547"
     clip-path="url(#VtwfiOXBXaqC)"
     id="path73" />
  <path
     fill="none"
     stroke="#9467bd"
     paint-order="fill"
     d="M 78.40908813476562 185.52452087402344 L 118.14935302734375 116.6644058227539 L 197.62986755371094 93.71102905273438 L 356.5909118652344 95.47667694091797"
     stroke-linejoin="bevel"
     stroke-miterlimit="10"
     stroke-width="3"
     clip-path="url(#kETTrTgFxRXT)"
     id="path75" />
  <path
     fill="rgb(44,160,44)"
     stroke="none"
     paint-order="stroke"
     d="M 78.40908813476562 178.72445678710938 L 118.14935302734375 105.01689147949219 L 197.62986755371094 88.83586120605469 L 356.5909118652344 96.9500732421875 L 356.5909118652344 44.22446823120117 L 197.62986755371094 34.873924255371094 L 118.14935302734375 53.62240982055664 L 78.40908813476562 147.5764923095703 Z"
     fill-opacity="0.30196078431372547"
     clip-path="url(#zsKbrWnWrQkD)"
     id="path77" />
  <path
     fill="none"
     stroke="#2ca02c"
     paint-order="fill"
     d="M 78.40908813476562 166.10244750976562 L 118.14935302734375 81.35152435302734 L 197.62986755371094 63.69508361816406 L 356.5909118652344 72.52330017089844"
     stroke-linejoin="bevel"
     stroke-miterlimit="10"
     stroke-width="3"
     clip-path="url(#oauzsUlglBeH)"
     id="path79" />
  <path
     fill="rgb(255,127,14)"
     stroke="none"
     paint-order="stroke"
     d="M 78.40908813476562 187.0262451171875 L 118.14935302734375 117.81547546386719 L 197.62986755371094 70.8327865600586 L 356.5909118652344 98.56734466552734 L 356.5909118652344 46.100154876708984 L 197.62986755371094 14.454545021057129 L 118.14935302734375 68.7674331665039 L 78.40908813476562 160.232421875 Z"
     fill-opacity="0.30196078431372547"
     clip-path="url(#oErmLnkJUuPK)"
     id="path81" />
  <path
     fill="none"
     stroke="#ff7f0e"
     paint-order="fill"
     d="M 78.40908813476562 176.69630432128906 L 118.14935302734375 95.47667694091797 L 197.62986755371094 44.27299499511719 L 356.5909118652344 74.28894805908203"
     stroke-linejoin="bevel"
     stroke-miterlimit="10"
     stroke-width="3"
     clip-path="url(#EtJccclEbRir)"
     id="path83" />
  <path
     fill="rgb(140,86,75)"
     stroke="none"
     paint-order="stroke"
     d="M 78.40908813476562 193.5454559326172 L 118.14935302734375 136.72164916992188 L 197.62986755371094 113.03252410888672 L 356.5909118652344 96.9500732421875 L 356.5909118652344 44.22446823120117 L 197.62986755371094 63.071533203125 L 118.14935302734375 91.77667999267578 L 78.40908813476562 171.17796325683594 Z"
     fill-opacity="0.30196078431372547"
     clip-path="url(#NwhEFbUTbKKM)"
     id="path85" />
  <path
     fill="none"
     stroke="#8c564b"
     paint-order="fill"
     d="M 78.40908813476562 185.52452087402344 L 118.14935302734375 116.6644058227539 L 197.62986755371094 90.17974090576172 L 356.5909118652344 72.52330017089844"
     stroke-linejoin="bevel"
     stroke-miterlimit="10"
     stroke-width="3"
     clip-path="url(#ChPsspWODcsf)"
     id="path87" />
  <path
     fill="none"
     stroke="black"
     paint-order="fill"
     d="M 64.5 202.5 L 370.5 202.5"
     stroke-linejoin="bevel"
     stroke-miterlimit="10"
     id="path89" />
  <path
     fill="none"
     stroke="black"
     paint-order="fill"
     d="M 78.5 208.5 L 78.5 200.5 M 118.5 208.5 L 118.5 200.5 M 157.5 208.5 L 157.5 200.5 M 197.5 208.5 L 197.5 200.5 M 237.5 208.5 L 237.5 200.5 M 277.5 208.5 L 277.5 200.5 M 316.5 208.5 L 316.5 200.5 M 356.5 208.5 L 356.5 200.5"
     stroke-linejoin="bevel"
     stroke-miterlimit="10"
     id="path91" />
  <path
     fill="none"
     stroke="black"
     paint-order="fill"
     d="M 70.5 206.5 L 70.5 202.5 M 78.5 206.5 L 78.5 202.5 M 86.5 206.5 L 86.5 202.5 M 94.5 206.5 L 94.5 202.5 M 102.5 206.5 L 102.5 202.5 M 110.5 206.5 L 110.5 202.5 M 118.5 206.5 L 118.5 202.5 M 126.5 206.5 L 126.5 202.5 M 134.5 206.5 L 134.5 202.5 M 141.5 206.5 L 141.5 202.5 M 149.5 206.5 L 149.5 202.5 M 157.5 206.5 L 157.5 202.5 M 165.5 206.5 L 165.5 202.5 M 173.5 206.5 L 173.5 202.5 M 181.5 206.5 L 181.5 202.5 M 189.5 206.5 L 189.5 202.5 M 197.5 206.5 L 197.5 202.5 M 205.5 206.5 L 205.5 202.5 M 213.5 206.5 L 213.5 202.5 M 221.5 206.5 L 221.5 202.5 M 229.5 206.5 L 229.5 202.5 M 237.5 206.5 L 237.5 202.5 M 245.5 206.5 L 245.5 202.5 M 253.5 206.5 L 253.5 202.5 M 261.5 206.5 L 261.5 202.5 M 269.5 206.5 L 269.5 202.5 M 277.5 206.5 L 277.5 202.5 M 285.5 206.5 L 285.5 202.5 M 293.5 206.5 L 293.5 202.5 M 300.5 206.5 L 300.5 202.5 M 308.5 206.5 L 308.5 202.5 M 316.5 206.5 L 316.5 202.5 M 324.5 206.5 L 324.5 202.5 M 332.5 206.5 L 332.5 202.5 M 340.5 206.5 L 340.5 202.5 M 348.5 206.5 L 348.5 202.5 M 356.5 206.5 L 356.5 202.5 M 364.5 206.5 L 364.5 202.5"
     stroke-linejoin="bevel"
     stroke-miterlimit="10"
     id="path93" />
  <text
     fill="#444444"
     stroke="none"
     font-family="helvetica"
     font-size="13px"
     font-style="normal"
     font-weight="normal"
     text-decoration="normal"
     x="74.29409790039062"
     y="222"
     text-anchor="start"
     dominant-baseline="alphabetic"
     transform="matrix(1, 0, 0, 1, 0.5, 0.5)"
     id="text95">2</text>
  <text
     fill="none"
     stroke="rgb(0,0,0)"
     font-family="helvetica"
     font-size="13px"
     font-style="normal"
     font-weight="normal"
     text-decoration="normal"
     x="74.29409790039062"
     y="222"
     text-anchor="start"
     dominant-baseline="alphabetic"
     transform="matrix(1, 0, 0, 1, 0.5, 0.5)"
     stroke-opacity="0"
     stroke-linejoin="bevel"
     stroke-miterlimit="10"
     id="text97">2</text>
  <text
     fill="#444444"
     stroke="none"
     font-family="helvetica"
     font-size="13px"
     font-style="normal"
     font-weight="normal"
     text-decoration="normal"
     x="114.03436279296875"
     y="222"
     text-anchor="start"
     dominant-baseline="alphabetic"
     transform="matrix(1, 0, 0, 1, 0.5, 0.5)"
     id="text99">4</text>
  <text
     fill="none"
     stroke="rgb(0,0,0)"
     font-family="helvetica"
     font-size="13px"
     font-style="normal"
     font-weight="normal"
     text-decoration="normal"
     x="114.03436279296875"
     y="222"
     text-anchor="start"
     dominant-baseline="alphabetic"
     transform="matrix(1, 0, 0, 1, 0.5, 0.5)"
     stroke-opacity="0"
     stroke-linejoin="bevel"
     stroke-miterlimit="10"
     id="text101">4</text>
  <text
     fill="#444444"
     stroke="none"
     font-family="helvetica"
     font-size="13px"
     font-style="normal"
     font-weight="normal"
     text-decoration="normal"
     x="153.77462768554688"
     y="222"
     text-anchor="start"
     dominant-baseline="alphabetic"
     transform="matrix(1, 0, 0, 1, 0.5, 0.5)"
     id="text103">6</text>
  <text
     fill="none"
     stroke="rgb(0,0,0)"
     font-family="helvetica"
     font-size="13px"
     font-style="normal"
     font-weight="normal"
     text-decoration="normal"
     x="153.77462768554688"
     y="222"
     text-anchor="start"
     dominant-baseline="alphabetic"
     transform="matrix(1, 0, 0, 1, 0.5, 0.5)"
     stroke-opacity="0"
     stroke-linejoin="bevel"
     stroke-miterlimit="10"
     id="text105">6</text>
  <text
     fill="#444444"
     stroke="none"
     font-family="helvetica"
     font-size="13px"
     font-style="normal"
     font-weight="normal"
     text-decoration="normal"
     x="193.51487731933594"
     y="222"
     text-anchor="start"
     dominant-baseline="alphabetic"
     transform="matrix(1, 0, 0, 1, 0.5, 0.5)"
     id="text107">8</text>
  <text
     fill="none"
     stroke="rgb(0,0,0)"
     font-family="helvetica"
     font-size="13px"
     font-style="normal"
     font-weight="normal"
     text-decoration="normal"
     x="193.51487731933594"
     y="222"
     text-anchor="start"
     dominant-baseline="alphabetic"
     transform="matrix(1, 0, 0, 1, 0.5, 0.5)"
     stroke-opacity="0"
     stroke-linejoin="bevel"
     stroke-miterlimit="10"
     id="text109">8</text>
  <text
     fill="#444444"
     stroke="none"
     font-family="helvetica"
     font-size="13px"
     font-style="normal"
     font-weight="normal"
     text-decoration="normal"
     x="229.64015197753906"
     y="222"
     text-anchor="start"
     dominant-baseline="alphabetic"
     transform="matrix(1, 0, 0, 1, 0.5, 0.5)"
     id="text111">10</text>
  <text
     fill="none"
     stroke="rgb(0,0,0)"
     font-family="helvetica"
     font-size="13px"
     font-style="normal"
     font-weight="normal"
     text-decoration="normal"
     x="229.64015197753906"
     y="222"
     text-anchor="start"
     dominant-baseline="alphabetic"
     transform="matrix(1, 0, 0, 1, 0.5, 0.5)"
     stroke-opacity="0"
     stroke-linejoin="bevel"
     stroke-miterlimit="10"
     id="text113">10</text>
  <text
     fill="#444444"
     stroke="none"
     font-family="helvetica"
     font-size="13px"
     font-style="normal"
     font-weight="normal"
     text-decoration="normal"
     x="269.3804016113281"
     y="222"
     text-anchor="start"
     dominant-baseline="alphabetic"
     transform="matrix(1, 0, 0, 1, 0.5, 0.5)"
     id="text115">12</text>
  <text
     fill="none"
     stroke="rgb(0,0,0)"
     font-family="helvetica"
     font-size="13px"
     font-style="normal"
     font-weight="normal"
     text-decoration="normal"
     x="269.3804016113281"
     y="222"
     text-anchor="start"
     dominant-baseline="alphabetic"
     transform="matrix(1, 0, 0, 1, 0.5, 0.5)"
     stroke-opacity="0"
     stroke-linejoin="bevel"
     stroke-miterlimit="10"
     id="text117">12</text>
  <text
     fill="#444444"
     stroke="none"
     font-family="helvetica"
     font-size="13px"
     font-style="normal"
     font-weight="normal"
     text-decoration="normal"
     x="309.12066650390625"
     y="222"
     text-anchor="start"
     dominant-baseline="alphabetic"
     transform="matrix(1, 0, 0, 1, 0.5, 0.5)"
     id="text119">14</text>
  <text
     fill="none"
     stroke="rgb(0,0,0)"
     font-family="helvetica"
     font-size="13px"
     font-style="normal"
     font-weight="normal"
     text-decoration="normal"
     x="309.12066650390625"
     y="222"
     text-anchor="start"
     dominant-baseline="alphabetic"
     transform="matrix(1, 0, 0, 1, 0.5, 0.5)"
     stroke-opacity="0"
     stroke-linejoin="bevel"
     stroke-miterlimit="10"
     id="text121">14</text>
  <text
     fill="#444444"
     stroke="none"
     font-family="helvetica"
     font-size="13px"
     font-style="normal"
     font-weight="normal"
     text-decoration="normal"
     x="348.8609313964844"
     y="222"
     text-anchor="start"
     dominant-baseline="alphabetic"
     transform="matrix(1, 0, 0, 1, 0.5, 0.5)"
     id="text123">16</text>
  <text
     fill="none"
     stroke="rgb(0,0,0)"
     font-family="helvetica"
     font-size="13px"
     font-style="normal"
     font-weight="normal"
     text-decoration="normal"
     x="348.8609313964844"
     y="222"
     text-anchor="start"
     dominant-baseline="alphabetic"
     transform="matrix(1, 0, 0, 1, 0.5, 0.5)"
     stroke-opacity="0"
     stroke-linejoin="bevel"
     stroke-miterlimit="10"
     id="text125">16</text>
  <text
     fill="#444444"
     stroke="none"
     font-family="helvetica"
     font-size="15px"
     font-style="normal"
     font-weight="normal"
     text-decoration="normal"
     x="156.9560546875"
     y="244"
     text-anchor="start"
     dominant-baseline="alphabetic"
     transform="matrix(1, 0, 0, 1, 0.5, 0.5)"
     id="text127">Interaction Length</text>
  <text
     fill="none"
     stroke="rgb(0,0,0)"
     font-family="helvetica"
     font-size="15px"
     font-style="normal"
     font-weight="normal"
     text-decoration="normal"
     x="156.9560546875"
     y="244"
     text-anchor="start"
     dominant-baseline="alphabetic"
     transform="matrix(1, 0, 0, 1, 0.5, 0.5)"
     stroke-opacity="0"
     stroke-linejoin="bevel"
     stroke-miterlimit="10"
     id="text129">Interaction Length</text>
  <path
     fill="none"
     stroke="black"
     paint-order="fill"
     d="M 64.5 202.5 L 64.5 5.5"
     stroke-linejoin="bevel"
     stroke-miterlimit="10"
     id="path131" />
  <path
     fill="none"
     stroke="black"
     paint-order="fill"
     d="M 58.5 172.5 L 66.5 172.5 M 58.5 141.5 L 66.5 141.5 M 58.5 110.5 L 66.5 110.5 M 58.5 79.5 L 66.5 79.5 M 58.5 48.5 L 66.5 48.5 M 58.5 17.5 L 66.5 17.5"
     stroke-linejoin="bevel"
     stroke-miterlimit="10"
     id="path133" />
  <path
     fill="none"
     stroke="black"
     paint-order="fill"
     d="M 60.5 178.5 L 64.5 178.5 M 60.5 184.5 L 64.5 184.5 M 60.5 190.5 L 64.5 190.5 M 60.5 197.5 L 64.5 197.5 M 60.5 172.5 L 64.5 172.5 M 60.5 166.5 L 64.5 166.5 M 60.5 159.5 L 64.5 159.5 M 60.5 153.5 L 64.5 153.5 M 60.5 147.5 L 64.5 147.5 M 60.5 141.5 L 64.5 141.5 M 60.5 135.5 L 64.5 135.5 M 60.5 129.5 L 64.5 129.5 M 60.5 122.5 L 64.5 122.5 M 60.5 116.5 L 64.5 116.5 M 60.5 110.5 L 64.5 110.5 M 60.5 104.5 L 64.5 104.5 M 60.5 98.5 L 64.5 98.5 M 60.5 91.5 L 64.5 91.5 M 60.5 85.5 L 64.5 85.5 M 60.5 79.5 L 64.5 79.5 M 60.5 73.5 L 64.5 73.5 M 60.5 67.5 L 64.5 67.5 M 60.5 61.5 L 64.5 61.5 M 60.5 54.5 L 64.5 54.5 M 60.5 48.5 L 64.5 48.5 M 60.5 42.5 L 64.5 42.5 M 60.5 36.5 L 64.5 36.5 M 60.5 30.5 L 64.5 30.5 M 60.5 23.5 L 64.5 23.5 M 60.5 17.5 L 64.5 17.5 M 60.5 11.5 L 64.5 11.5"
     stroke-linejoin="bevel"
     stroke-miterlimit="10"
     id="path135" />
  <text
     fill="#444444"
     stroke="none"
     font-family="helvetica"
     font-size="13px"
     font-style="normal"
     font-weight="normal"
     text-decoration="normal"
     x="27.6982421875"
     y="176.28219604492188"
     text-anchor="start"
     dominant-baseline="alphabetic"
     transform="matrix(1, 0, 0, 1, 0.5, 0.5)"
     id="text137">0.05</text>
  <text
     fill="none"
     stroke="rgb(0,0,0)"
     font-family="helvetica"
     font-size="13px"
     font-style="normal"
     font-weight="normal"
     text-decoration="normal"
     x="27.6982421875"
     y="176.28219604492188"
     text-anchor="start"
     dominant-baseline="alphabetic"
     transform="matrix(1, 0, 0, 1, 0.5, 0.5)"
     stroke-opacity="0"
     stroke-linejoin="bevel"
     stroke-miterlimit="10"
     id="text139">0.05</text>
  <text
     fill="#444444"
     stroke="none"
     font-family="helvetica"
     font-size="13px"
     font-style="normal"
     font-weight="normal"
     text-decoration="normal"
     x="34.92822265625"
     y="145.3834228515625"
     text-anchor="start"
     dominant-baseline="alphabetic"
     transform="matrix(1, 0, 0, 1, 0.5, 0.5)"
     id="text141">0.1</text>
  <text
     fill="none"
     stroke="rgb(0,0,0)"
     font-family="helvetica"
     font-size="13px"
     font-style="normal"
     font-weight="normal"
     text-decoration="normal"
     x="34.92822265625"
     y="145.3834228515625"
     text-anchor="start"
     dominant-baseline="alphabetic"
     transform="matrix(1, 0, 0, 1, 0.5, 0.5)"
     stroke-opacity="0"
     stroke-linejoin="bevel"
     stroke-miterlimit="10"
     id="text143">0.1</text>
  <text
     fill="#444444"
     stroke="none"
     font-family="helvetica"
     font-size="13px"
     font-style="normal"
     font-weight="normal"
     text-decoration="normal"
     x="27.6982421875"
     y="114.48464965820312"
     text-anchor="start"
     dominant-baseline="alphabetic"
     transform="matrix(1, 0, 0, 1, 0.5, 0.5)"
     id="text145">0.15</text>
  <text
     fill="none"
     stroke="rgb(0,0,0)"
     font-family="helvetica"
     font-size="13px"
     font-style="normal"
     font-weight="normal"
     text-decoration="normal"
     x="27.6982421875"
     y="114.48464965820312"
     text-anchor="start"
     dominant-baseline="alphabetic"
     transform="matrix(1, 0, 0, 1, 0.5, 0.5)"
     stroke-opacity="0"
     stroke-linejoin="bevel"
     stroke-miterlimit="10"
     id="text147">0.15</text>
  <text
     fill="#444444"
     stroke="none"
     font-family="helvetica"
     font-size="13px"
     font-style="normal"
     font-weight="normal"
     text-decoration="normal"
     x="34.92822265625"
     y="83.58587646484375"
     text-anchor="start"
     dominant-baseline="alphabetic"
     transform="matrix(1, 0, 0, 1, 0.5, 0.5)"
     id="text149">0.2</text>
  <text
     fill="none"
     stroke="rgb(0,0,0)"
     font-family="helvetica"
     font-size="13px"
     font-style="normal"
     font-weight="normal"
     text-decoration="normal"
     x="34.92822265625"
     y="83.58587646484375"
     text-anchor="start"
     dominant-baseline="alphabetic"
     transform="matrix(1, 0, 0, 1, 0.5, 0.5)"
     stroke-opacity="0"
     stroke-linejoin="bevel"
     stroke-miterlimit="10"
     id="text151">0.2</text>
  <text
     fill="#444444"
     stroke="none"
     font-family="helvetica"
     font-size="13px"
     font-style="normal"
     font-weight="normal"
     text-decoration="normal"
     x="27.6982421875"
     y="52.68710708618164"
     text-anchor="start"
     dominant-baseline="alphabetic"
     transform="matrix(1, 0, 0, 1, 0.5, 0.5)"
     id="text153">0.25</text>
  <text
     fill="none"
     stroke="rgb(0,0,0)"
     font-family="helvetica"
     font-size="13px"
     font-style="normal"
     font-weight="normal"
     text-decoration="normal"
     x="27.6982421875"
     y="52.68710708618164"
     text-anchor="start"
     dominant-baseline="alphabetic"
     transform="matrix(1, 0, 0, 1, 0.5, 0.5)"
     stroke-opacity="0"
     stroke-linejoin="bevel"
     stroke-miterlimit="10"
     id="text155">0.25</text>
  <text
     fill="#444444"
     stroke="none"
     font-family="helvetica"
     font-size="13px"
     font-style="normal"
     font-weight="normal"
     text-decoration="normal"
     x="34.92822265625"
     y="21.788333892822266"
     text-anchor="start"
     dominant-baseline="alphabetic"
     transform="matrix(1, 0, 0, 1, 0.5, 0.5)"
     id="text157">0.3</text>
  <text
     fill="none"
     stroke="rgb(0,0,0)"
     font-family="helvetica"
     font-size="13px"
     font-style="normal"
     font-weight="normal"
     text-decoration="normal"
     x="34.92822265625"
     y="21.788333892822266"
     text-anchor="start"
     dominant-baseline="alphabetic"
     transform="matrix(1, 0, 0, 1, 0.5, 0.5)"
     stroke-opacity="0"
     stroke-linejoin="bevel"
     stroke-miterlimit="10"
     id="text159">0.3</text>
  <text
     fill="#444444"
     stroke="none"
     font-family="helvetica"
     font-size="15px"
     font-style="normal"
     font-weight="normal"
     text-decoration="normal"
     x="-26.572509765625"
     y="100.5"
     text-anchor="start"
     dominant-baseline="alphabetic"
     transform="matrix(6.123233995736766e-17, -1, 1, 6.123233995736766e-17, -83.3017578125, 123.6982421875)"
     id="text161">Success Rate</text>
  <text
     fill="none"
     stroke="rgb(0,0,0)"
     font-family="helvetica"
     font-size="15px"
     font-style="normal"
     font-weight="normal"
     text-decoration="normal"
     x="-26.572509765625"
     y="100.5"
     text-anchor="start"
     dominant-baseline="alphabetic"
     transform="matrix(6.123233995736766e-17, -1, 1, 6.123233995736766e-17, -83.3017578125, 123.6982421875)"
     stroke-opacity="0"
     stroke-linejoin="bevel"
     stroke-miterlimit="10"
     id="text163">Success Rate</text>
  <text
     xml:space="preserve"
     style="font-size:10.6667px;font-family:sans-serif;-inkscape-font-specification:sans-serif;text-align:end;text-anchor:end;fill:#1f77b4;fill-opacity:1;stroke-width:1.506;stroke-opacity:0.972549"
     x="254.88557"
     y="138.06451"
     id="text429"><tspan
       sodipodi:role="line"
       id="tspan427"
       x="254.88557"
       y="138.06451"
       style="font-style:normal;font-variant:normal;font-weight:normal;font-stretch:normal;font-family:sans-serif;-inkscape-font-specification:sans-serif;fill:#1f77b4;fill-opacity:1">EULER</tspan></text>
  <text
     xml:space="preserve"
     style="font-size:10.6667px;font-family:sans-serif;-inkscape-font-specification:sans-serif;text-align:end;text-anchor:end;fill:#d62728;fill-opacity:1;stroke-width:1.506;stroke-opacity:0.972549"
     x="383.22787"
     y="21.599129"
     id="text429-9"><tspan
       sodipodi:role="line"
       id="tspan427-1"
       x="383.22787"
       y="21.599129"
       style="font-style:normal;font-variant:normal;font-weight:normal;font-stretch:normal;font-family:sans-serif;-inkscape-font-specification:sans-serif;fill:#d62728;fill-opacity:1">Gemma 3</tspan></text>
  <text
     xml:space="preserve"
     style="font-size:10.6667px;font-family:sans-serif;-inkscape-font-specification:sans-serif;text-align:end;text-anchor:end;fill:#9467bd;fill-opacity:1;stroke-width:1.506;stroke-opacity:0.972549"
     x="395.25693"
     y="100.51101"
     id="text429-9-9"><tspan
       sodipodi:role="line"
       id="tspan427-1-5"
       x="395.25693"
       y="100.51101"
       style="font-style:normal;font-variant:normal;font-weight:normal;font-stretch:normal;font-family:sans-serif;-inkscape-font-specification:sans-serif;fill:#9467bd;fill-opacity:1">GPT-4o</tspan></text>
  <text
     xml:space="preserve"
     style="font-size:10.6667px;font-family:sans-serif;-inkscape-font-specification:sans-serif;text-align:end;text-anchor:end;fill:#2ca02c;fill-opacity:1;stroke-width:1.506;stroke-opacity:0.972549"
     x="129.43013"
     y="44.972782"
     id="text429-9-9-4"><tspan
       sodipodi:role="line"
       id="tspan427-1-5-4"
       x="129.43013"
       y="44.972782"
       style="font-style:normal;font-variant:normal;font-weight:normal;font-stretch:normal;font-family:sans-serif;-inkscape-font-specification:sans-serif;fill:#2ca02c;fill-opacity:1">Llamma3.3</tspan></text>
  <text
     xml:space="preserve"
     style="font-size:10.6667px;font-family:sans-serif;-inkscape-font-specification:sans-serif;text-align:end;text-anchor:end;fill:#ff7f0e;fill-opacity:1;stroke-width:1.506;stroke-opacity:0.972549"
     x="181.13821"
     y="20.522795"
     id="text429-9-9-4-8"><tspan
       sodipodi:role="line"
       id="tspan427-1-5-4-5"
       x="181.13821"
       y="20.522795"
       style="font-style:normal;font-variant:normal;font-weight:normal;font-stretch:normal;font-family:sans-serif;-inkscape-font-specification:sans-serif;fill:#ff7f0e;fill-opacity:1">Mistral-small3.1</tspan></text>
  <text
     xml:space="preserve"
     style="font-size:10.6667px;font-family:sans-serif;-inkscape-font-specification:sans-serif;text-align:end;text-anchor:end;fill:#8c564b;fill-opacity:1;stroke-width:1.506;stroke-opacity:0.972549"
     x="362.92642"
     y="122.89469"
     id="text429-9-9-4-8-4"><tspan
       sodipodi:role="line"
       id="tspan427-1-5-4-5-1"
       x="362.92642"
       y="122.89469"
       style="font-style:normal;font-variant:normal;font-weight:normal;font-stretch:normal;font-family:sans-serif;-inkscape-font-specification:sans-serif;fill:#8c564b;fill-opacity:1">LearnLM 2.0</tspan></text>
  <path
     style="fill:none;fill-opacity:1;stroke:#2ca02c;stroke-width:1.506;stroke-opacity:1;marker-end:url(#Arrow2)"
     d="M 96.029184,47.777368 111.51693,72.141413"
     id="path6917"
     sodipodi:nodetypes="cc" />
  <path
     style="fill:none;fill-opacity:1;stroke:#1f77b4;stroke-width:1.506;stroke-opacity:1;marker-end:url(#Arrow2-5)"
     d="m 218.00172,128.74437 -9.11294,-19.25951"
     id="path6917-5"
     sodipodi:nodetypes="cc" />
  <path
     style="fill:none;fill-opacity:1;stroke:#8c564b;stroke-width:1.506;stroke-opacity:1;marker-end:url(#Arrow2-7)"
     d="m 294.33388,121.11189 c -10.05866,1.71019 -27.10474,-1.22285 -34.91269,-25.974195"
     id="path6917-2"
     sodipodi:nodetypes="cc" />
  <path
     style="fill:none;fill-opacity:1;stroke:#d62728;stroke-width:1.506;stroke-opacity:1;marker-end:url(#Arrow2-8)"
     d="m 368.07756,26.225378 c 20.56255,7.33055 22.28075,24.929079 -2.32303,32.856781"
     id="path6917-7"
     sodipodi:nodetypes="cc" />
  <path
     style="fill:none;fill-opacity:1;stroke:#ff7f0e;stroke-width:1.506;stroke-opacity:1;marker-end:url(#Arrow2-8-4-8)"
     d="m 184.77823,17.546282 c 4.11946,-1.261794 13.66189,-13.59781 14.9553,14.93951"
     id="path6917-7-9-1"
     sodipodi:nodetypes="cc" />
</svg>
