<?xml version="1.0" encoding="UTF-8" standalone="no"?>
<svg
   version="1.1"
   width="400"
   height="250"
   id="svg5696"
   sodipodi:docname="success_rate_by_opening_question_type.svg"
   inkscape:version="1.2.2 (732a01da63, 2022-12-09)"
   xmlns:inkscape="http://www.inkscape.org/namespaces/inkscape"
   xmlns:sodipodi="http://sodipodi.sourceforge.net/DTD/sodipodi-0.dtd"
   xmlns="http://www.w3.org/2000/svg"
   xmlns:svg="http://www.w3.org/2000/svg">
  <sodipodi:namedview
     id="namedview5698"
     pagecolor="#ffffff"
     bordercolor="#000000"
     borderopacity="0.25"
     inkscape:showpageshadow="2"
     inkscape:pageopacity="0.0"
     inkscape:pagecheckerboard="0"
     inkscape:deskcolor="#d1d1d1"
     showgrid="false"
     inkscape:zoom="2.3475945"
     inkscape:cx="186.78694"
     inkscape:cy="151.4316"
     inkscape:window-width="1920"
     inkscape:window-height="991"
     inkscape:window-x="-9"
     inkscape:window-y="-9"
     inkscape:window-maximized="1"
     inkscape:current-layer="svg5696" />
  <defs
     id="defs5610">
    <clipPath
       id="soXVgHwTwFff">
      <path
         fill="none"
         stroke="none"
         d="M 0.5 0.5 L 400.5 0.5 L 400.5 250.5 L 0.5 250.5 L 0.5 0.5 Z M 57.5 5.5 L 370.5 5.5 L 370.5 196.5 L 57.5 196.5 L 57.5 5.5 Z"
         clip-rule="evenodd"
         id="path5580" />
    </clipPath>
    <clipPath
       id="qTETvmpopigx">
      <path
         fill="none"
         stroke="none"
         d="M 57.5 5.5 L 370.5 5.5 L 370.5 196.5 L 57.5 196.5 L 57.5 5.5 Z"
         id="path5583" />
    </clipPath>
    <clipPath
       id="OnAIdQRTWzsp">
      <path
         fill="none"
         stroke="none"
         d="M 57.5 5.5 L 370.5 5.5 L 370.5 196.5 L 57.5 196.5 L 57.5 5.5 Z"
         id="path5586" />
    </clipPath>
    <clipPath
       id="ztZnomZwtDEo">
      <path
         fill="none"
         stroke="none"
         d="M 57.5 5.5 L 370.5 5.5 L 370.5 196.5 L 57.5 196.5 L 57.5 5.5 Z"
         id="path5589" />
    </clipPath>
    <clipPath
       id="HyDxkRWtdrGT">
      <path
         fill="none"
         stroke="none"
         d="M 57.5 5.5 L 370.5 5.5 L 370.5 196.5 L 57.5 196.5 L 57.5 5.5 Z"
         id="path5592" />
    </clipPath>
    <clipPath
       id="puIOpxIZnrGR">
      <path
         fill="none"
         stroke="none"
         d="M 57.5 5.5 L 370.5 5.5 L 370.5 196.5 L 57.5 196.5 L 57.5 5.5 Z"
         id="path5595" />
    </clipPath>
    <clipPath
       id="vFWIMDQDTBkC">
      <path
         fill="none"
         stroke="none"
         d="M 57.5 5.5 L 370.5 5.5 L 370.5 196.5 L 57.5 196.5 L 57.5 5.5 Z"
         id="path5598" />
    </clipPath>
    <clipPath
       id="ZfuHmHgkPkMC">
      <path
         fill="none"
         stroke="none"
         d="M 57.5 5.5 L 370.5 5.5 L 370.5 196.5 L 57.5 196.5 L 57.5 5.5 Z"
         id="path5601" />
    </clipPath>
    <clipPath
       id="mTQnlPoTHIiv">
      <path
         fill="none"
         stroke="none"
         d="M 57.5 5.5 L 370.5 5.5 L 370.5 196.5 L 57.5 196.5 L 57.5 5.5 Z"
         id="path5604" />
    </clipPath>
    <clipPath
       id="koCitbQQRmKh">
      <path
         fill="none"
         stroke="none"
         d="M 57.5 5.5 L 370.5 5.5 L 370.5 196.5 L 57.5 196.5 L 57.5 5.5 Z"
         id="path5607" />
    </clipPath>
  </defs>
  <path
     fill="#ffffff"
     stroke="none"
     paint-order="stroke"
     d="M 0.5 0.5 L 400.5 0.5 L 400.5 250.5 L 0.5 250.5 L 0.5 0.5 Z"
     clip-path="url(#soXVgHwTwFff)"
     id="path5612" />
  <path
     fill="#ffffff"
     stroke="none"
     paint-order="stroke"
     d="M 57.5 5.5 L 370.5 5.5 L 370.5 196.5 L 57.5 196.5 L 57.5 5.5 Z"
     id="path5614" />
  <path
     fill="none"
     stroke="#e5e5e5"
     paint-order="fill"
     d="M 57.5 5.5 L 370.5 5.5 L 370.5 196.5 L 57.5 196.5 L 57.5 5.5 Z"
     stroke-linejoin="bevel"
     stroke-miterlimit="10"
     id="path5616" />
  <path
     fill="none"
     stroke="#e5e5e5"
     paint-order="fill"
     d="M 57.5 158.5 L 370.5 158.5 M 57.5 120.5 L 370.5 120.5 M 57.5 81.5 L 370.5 81.5 M 57.5 43.5 L 370.5 43.5"
     stroke-linejoin="bevel"
     stroke-miterlimit="10"
     clip-path="url(#OnAIdQRTWzsp)"
     id="path5618" />
  <path
     fill="rgb(31,119,180)"
     stroke="rgb(31,119,180)"
     paint-order="fill"
     d="M 85.95454406738281 163.41339111328125 L 104.92424011230469 163.41339111328125 L 104.92424011230469 196.5 L 85.95454406738281 196.5 L 85.95454406738281 163.41339111328125 Z"
     fill-opacity="1"
     clip-path="url(#ztZnomZwtDEo)"
     stroke-opacity="1"
     stroke-linejoin="bevel"
     stroke-miterlimit="10"
     id="path5620" />
  <path
     fill="rgb(31,119,180)"
     stroke="rgb(31,119,180)"
     paint-order="fill"
     d="M 228.22726440429688 160.3648681640625 L 247.19696044921875 160.3648681640625 L 247.19696044921875 196.5 L 228.22726440429688 196.5 L 228.22726440429688 160.3648681640625 Z"
     fill-opacity="1"
     clip-path="url(#ztZnomZwtDEo)"
     stroke-opacity="1"
     stroke-linejoin="bevel"
     stroke-miterlimit="10"
     id="path5622" />
  <path
     fill="rgb(214,39,40)"
     stroke="rgb(214,39,40)"
     paint-order="fill"
     d="M 104.92424774169922 162.1796875 L 123.8939437866211 162.1796875 L 123.8939437866211 196.5 L 104.92424774169922 196.5 L 104.92424774169922 162.1796875 Z"
     fill-opacity="1"
     clip-path="url(#HyDxkRWtdrGT)"
     stroke-opacity="1"
     stroke-linejoin="bevel"
     stroke-miterlimit="10"
     id="path5624" />
  <path
     fill="rgb(214,39,40)"
     stroke="rgb(214,39,40)"
     paint-order="fill"
     d="M 247.1969757080078 147.45945739746094 L 266.16668701171875 147.45945739746094 L 266.16668701171875 196.5 L 247.1969757080078 196.5 L 247.1969757080078 147.45945739746094 Z"
     fill-opacity="1"
     clip-path="url(#HyDxkRWtdrGT)"
     stroke-opacity="1"
     stroke-linejoin="bevel"
     stroke-miterlimit="10"
     id="path5626" />
  <path
     fill="rgb(148,103,189)"
     stroke="rgb(148,103,189)"
     paint-order="fill"
     d="M 123.89393615722656 174.1171875 L 142.86363220214844 174.1171875 L 142.86363220214844 196.5 L 123.89393615722656 196.5 L 123.89393615722656 174.1171875 Z"
     fill-opacity="1"
     clip-path="url(#puIOpxIZnrGR)"
     stroke-opacity="1"
     stroke-linejoin="bevel"
     stroke-miterlimit="10"
     id="path5628" />
  <path
     fill="rgb(148,103,189)"
     stroke="rgb(148,103,189)"
     paint-order="fill"
     d="M 266.16668701171875 156.9234161376953 L 285.1363525390625 156.9234161376953 L 285.1363525390625 196.5 L 266.16668701171875 196.5 L 266.16668701171875 156.9234161376953 Z"
     fill-opacity="1"
     clip-path="url(#puIOpxIZnrGR)"
     stroke-opacity="1"
     stroke-linejoin="bevel"
     stroke-miterlimit="10"
     id="path5630" />
  <path
     fill="rgb(44,160,44)"
     stroke="rgb(44,160,44)"
     paint-order="fill"
     d="M 142.86363220214844 168.1484375 L 161.8333282470703 168.1484375 L 161.8333282470703 196.5 L 142.86363220214844 196.5 L 142.86363220214844 168.1484375 Z"
     fill-opacity="1"
     clip-path="url(#vFWIMDQDTBkC)"
     stroke-opacity="1"
     stroke-linejoin="bevel"
     stroke-miterlimit="10"
     id="path5632" />
  <path
     fill="rgb(44,160,44)"
     stroke="rgb(44,160,44)"
     paint-order="fill"
     d="M 285.1363525390625 149.18017578125 L 304.1060791015625 149.18017578125 L 304.1060791015625 196.5 L 285.1363525390625 196.5 L 285.1363525390625 149.18017578125 Z"
     fill-opacity="1"
     clip-path="url(#vFWIMDQDTBkC)"
     stroke-opacity="1"
     stroke-linejoin="bevel"
     stroke-miterlimit="10"
     id="path5634" />
  <path
     fill="rgb(255,127,14)"
     stroke="rgb(255,127,14)"
     paint-order="fill"
     d="M 161.8333282470703 163.671875 L 180.8030242919922 163.671875 L 180.8030242919922 196.5 L 161.8333282470703 196.5 L 161.8333282470703 163.671875 Z"
     fill-opacity="1"
     clip-path="url(#ZfuHmHgkPkMC)"
     stroke-opacity="1"
     stroke-linejoin="bevel"
     stroke-miterlimit="10"
     id="path5636" />
  <path
     fill="rgb(255,127,14)"
     stroke="rgb(255,127,14)"
     paint-order="fill"
     d="M 304.1060791015625 152.6216278076172 L 323.07574462890625 152.6216278076172 L 323.07574462890625 196.5 L 304.1060791015625 196.5 L 304.1060791015625 152.6216278076172 Z"
     fill-opacity="1"
     clip-path="url(#ZfuHmHgkPkMC)"
     stroke-opacity="1"
     stroke-linejoin="bevel"
     stroke-miterlimit="10"
     id="path5638" />
  <path
     fill="rgb(140,86,75)"
     stroke="rgb(140,86,75)"
     paint-order="fill"
     d="M 180.8030242919922 169.640625 L 199.77272033691406 169.640625 L 199.77272033691406 196.5 L 180.8030242919922 196.5 L 180.8030242919922 169.640625 Z"
     fill-opacity="1"
     clip-path="url(#mTQnlPoTHIiv)"
     stroke-opacity="1"
     stroke-linejoin="bevel"
     stroke-miterlimit="10"
     id="path5640" />
  <path
     fill="rgb(140,86,75)"
     stroke="rgb(140,86,75)"
     paint-order="fill"
     d="M 323.07574462890625 148.31982421875 L 342.04547119140625 148.31982421875 L 342.04547119140625 196.5 L 323.07574462890625 196.5 L 323.07574462890625 148.31982421875 Z"
     fill-opacity="1"
     clip-path="url(#mTQnlPoTHIiv)"
     stroke-opacity="1"
     stroke-linejoin="bevel"
     stroke-miterlimit="10"
     id="path5642" />
  <path
     fill="none"
     stroke="black"
     paint-order="fill"
     d="M 57.5 196.5 L 370.5 196.5"
     stroke-linejoin="bevel"
     stroke-miterlimit="10"
     id="path5644" />
  <path
     fill="none"
     stroke="black"
     paint-order="fill"
     d="M 142.5 202.5 L 142.5 194.5 M 285.5 202.5 L 285.5 194.5"
     stroke-linejoin="bevel"
     stroke-miterlimit="10"
     id="path5646" />
  <path
     fill="none"
     stroke="black"
     paint-order="fill"
     d=""
     stroke-linejoin="bevel"
     stroke-miterlimit="10"
     id="path5648" />
  <text
     fill="#444444"
     stroke="none"
     font-family="helvetica"
     font-size="13px"
     font-style="normal"
     font-weight="normal"
     text-decoration="normal"
     x="128.63682556152344"
     y="219"
     text-anchor="start"
     dominant-baseline="alphabetic"
     transform="matrix(1, 0, 0, 1, 0.5, 0.5)"
     id="text5650">OQ1</text>
  <text
     fill="none"
     stroke="rgb(0,0,0)"
     font-family="helvetica"
     font-size="13px"
     font-style="normal"
     font-weight="normal"
     text-decoration="normal"
     x="128.63682556152344"
     y="219"
     text-anchor="start"
     dominant-baseline="alphabetic"
     transform="matrix(1, 0, 0, 1, 0.5, 0.5)"
     stroke-opacity="0"
     stroke-linejoin="bevel"
     stroke-miterlimit="10"
     id="text5652">OQ1</text>
  <text
     fill="#444444"
     stroke="none"
     font-family="helvetica"
     font-size="13px"
     font-style="normal"
     font-weight="normal"
     text-decoration="normal"
     x="270.9095458984375"
     y="219"
     text-anchor="start"
     dominant-baseline="alphabetic"
     transform="matrix(1, 0, 0, 1, 0.5, 0.5)"
     id="text5654">OQ2</text>
  <text
     fill="none"
     stroke="rgb(0,0,0)"
     font-family="helvetica"
     font-size="13px"
     font-style="normal"
     font-weight="normal"
     text-decoration="normal"
     x="270.9095458984375"
     y="219"
     text-anchor="start"
     dominant-baseline="alphabetic"
     transform="matrix(1, 0, 0, 1, 0.5, 0.5)"
     stroke-opacity="0"
     stroke-linejoin="bevel"
     stroke-miterlimit="10"
     id="text5656">OQ2</text>
  <text
     fill="#444444"
     stroke="none"
     font-family="helvetica"
     font-size="15px"
     font-style="normal"
     font-weight="normal"
     text-decoration="normal"
     x="154.704833984375"
     y="244"
     text-anchor="start"
     dominant-baseline="alphabetic"
     transform="matrix(1, 0, 0, 1, 0.5, 0.5)"
     id="text5658">Opening question</text>
  <text
     fill="none"
     stroke="rgb(0,0,0)"
     font-family="helvetica"
     font-size="15px"
     font-style="normal"
     font-weight="normal"
     text-decoration="normal"
     x="154.704833984375"
     y="244"
     text-anchor="start"
     dominant-baseline="alphabetic"
     transform="matrix(1, 0, 0, 1, 0.5, 0.5)"
     stroke-opacity="0"
     stroke-linejoin="bevel"
     stroke-miterlimit="10"
     id="text5660">Opening question</text>
  <path
     fill="none"
     stroke="black"
     paint-order="fill"
     d="M 57.5 196.5 L 57.5 5.5"
     stroke-linejoin="bevel"
     stroke-miterlimit="10"
     id="path5662" />
  <path
     fill="none"
     stroke="black"
     paint-order="fill"
     d="M 51.5 196.5 L 59.5 196.5 M 51.5 158.5 L 59.5 158.5 M 51.5 120.5 L 59.5 120.5 M 51.5 81.5 L 59.5 81.5 M 51.5 43.5 L 59.5 43.5 M 51.5 5.5 L 59.5 5.5"
     stroke-linejoin="bevel"
     stroke-miterlimit="10"
     id="path5664" />
  <path
     fill="none"
     stroke="black"
     paint-order="fill"
     d="M 53.5 196.5 L 57.5 196.5 M 53.5 188.5 L 57.5 188.5 M 53.5 181.5 L 57.5 181.5 M 53.5 173.5 L 57.5 173.5 M 53.5 165.5 L 57.5 165.5 M 53.5 158.5 L 57.5 158.5 M 53.5 150.5 L 57.5 150.5 M 53.5 143.5 L 57.5 143.5 M 53.5 135.5 L 57.5 135.5 M 53.5 127.5 L 57.5 127.5 M 53.5 120.5 L 57.5 120.5 M 53.5 112.5 L 57.5 112.5 M 53.5 104.5 L 57.5 104.5 M 53.5 97.5 L 57.5 97.5 M 53.5 89.5 L 57.5 89.5 M 53.5 81.5 L 57.5 81.5 M 53.5 74.5 L 57.5 74.5 M 53.5 66.5 L 57.5 66.5 M 53.5 58.5 L 57.5 58.5 M 53.5 51.5 L 57.5 51.5 M 53.5 43.5 L 57.5 43.5 M 53.5 36.5 L 57.5 36.5 M 53.5 28.5 L 57.5 28.5 M 53.5 20.5 L 57.5 20.5 M 53.5 13.5 L 57.5 13.5 M 53.5 5.5 L 57.5 5.5"
     stroke-linejoin="bevel"
     stroke-miterlimit="10"
     id="path5666" />
  <text
     fill="#444444"
     stroke="none"
     font-family="helvetica"
     font-size="13px"
     font-style="normal"
     font-weight="normal"
     text-decoration="normal"
     x="38.77001953125"
     y="200.5"
     text-anchor="start"
     dominant-baseline="alphabetic"
     transform="matrix(1, 0, 0, 1, 0.5, 0.5)"
     id="text5668">0</text>
  <text
     fill="none"
     stroke="rgb(0,0,0)"
     font-family="helvetica"
     font-size="13px"
     font-style="normal"
     font-weight="normal"
     text-decoration="normal"
     x="38.77001953125"
     y="200.5"
     text-anchor="start"
     dominant-baseline="alphabetic"
     transform="matrix(1, 0, 0, 1, 0.5, 0.5)"
     stroke-opacity="0"
     stroke-linejoin="bevel"
     stroke-miterlimit="10"
     id="text5670">0</text>
  <text
     fill="#444444"
     stroke="none"
     font-family="helvetica"
     font-size="13px"
     font-style="normal"
     font-weight="normal"
     text-decoration="normal"
     x="27.92822265625"
     y="162.3000030517578"
     text-anchor="start"
     dominant-baseline="alphabetic"
     transform="matrix(1, 0, 0, 1, 0.5, 0.5)"
     id="text5672">0.2</text>
  <text
     fill="none"
     stroke="rgb(0,0,0)"
     font-family="helvetica"
     font-size="13px"
     font-style="normal"
     font-weight="normal"
     text-decoration="normal"
     x="27.92822265625"
     y="162.3000030517578"
     text-anchor="start"
     dominant-baseline="alphabetic"
     transform="matrix(1, 0, 0, 1, 0.5, 0.5)"
     stroke-opacity="0"
     stroke-linejoin="bevel"
     stroke-miterlimit="10"
     id="text5674">0.2</text>
  <text
     fill="#444444"
     stroke="none"
     font-family="helvetica"
     font-size="13px"
     font-style="normal"
     font-weight="normal"
     text-decoration="normal"
     x="27.92822265625"
     y="124.0999984741211"
     text-anchor="start"
     dominant-baseline="alphabetic"
     transform="matrix(1, 0, 0, 1, 0.5, 0.5)"
     id="text5676">0.4</text>
  <text
     fill="none"
     stroke="rgb(0,0,0)"
     font-family="helvetica"
     font-size="13px"
     font-style="normal"
     font-weight="normal"
     text-decoration="normal"
     x="27.92822265625"
     y="124.0999984741211"
     text-anchor="start"
     dominant-baseline="alphabetic"
     transform="matrix(1, 0, 0, 1, 0.5, 0.5)"
     stroke-opacity="0"
     stroke-linejoin="bevel"
     stroke-miterlimit="10"
     id="text5678">0.4</text>
  <text
     fill="#444444"
     stroke="none"
     font-family="helvetica"
     font-size="13px"
     font-style="normal"
     font-weight="normal"
     text-decoration="normal"
     x="27.92822265625"
     y="85.9000015258789"
     text-anchor="start"
     dominant-baseline="alphabetic"
     transform="matrix(1, 0, 0, 1, 0.5, 0.5)"
     id="text5680">0.6</text>
  <text
     fill="none"
     stroke="rgb(0,0,0)"
     font-family="helvetica"
     font-size="13px"
     font-style="normal"
     font-weight="normal"
     text-decoration="normal"
     x="27.92822265625"
     y="85.9000015258789"
     text-anchor="start"
     dominant-baseline="alphabetic"
     transform="matrix(1, 0, 0, 1, 0.5, 0.5)"
     stroke-opacity="0"
     stroke-linejoin="bevel"
     stroke-miterlimit="10"
     id="text5682">0.6</text>
  <text
     fill="#444444"
     stroke="none"
     font-family="helvetica"
     font-size="13px"
     font-style="normal"
     font-weight="normal"
     text-decoration="normal"
     x="27.92822265625"
     y="47.70000076293945"
     text-anchor="start"
     dominant-baseline="alphabetic"
     transform="matrix(1, 0, 0, 1, 0.5, 0.5)"
     id="text5684">0.8</text>
  <text
     fill="none"
     stroke="rgb(0,0,0)"
     font-family="helvetica"
     font-size="13px"
     font-style="normal"
     font-weight="normal"
     text-decoration="normal"
     x="27.92822265625"
     y="47.70000076293945"
     text-anchor="start"
     dominant-baseline="alphabetic"
     transform="matrix(1, 0, 0, 1, 0.5, 0.5)"
     stroke-opacity="0"
     stroke-linejoin="bevel"
     stroke-miterlimit="10"
     id="text5686">0.8</text>
  <text
     fill="#444444"
     stroke="none"
     font-family="helvetica"
     font-size="13px"
     font-style="normal"
     font-weight="normal"
     text-decoration="normal"
     x="38.77001953125"
     y="9.5"
     text-anchor="start"
     dominant-baseline="alphabetic"
     transform="matrix(1, 0, 0, 1, 0.5, 0.5)"
     id="text5688">1</text>
  <text
     fill="none"
     stroke="rgb(0,0,0)"
     font-family="helvetica"
     font-size="13px"
     font-style="normal"
     font-weight="normal"
     text-decoration="normal"
     x="38.77001953125"
     y="9.5"
     text-anchor="start"
     dominant-baseline="alphabetic"
     transform="matrix(1, 0, 0, 1, 0.5, 0.5)"
     stroke-opacity="0"
     stroke-linejoin="bevel"
     stroke-miterlimit="10"
     id="text5690">1</text>
  <text
     fill="#444444"
     stroke="none"
     font-family="helvetica"
     font-size="15px"
     font-style="normal"
     font-weight="normal"
     text-decoration="normal"
     x="-23.423828125"
     y="97.5"
     text-anchor="start"
     dominant-baseline="alphabetic"
     transform="matrix(6.123233995736766e-17, -1, 1, 6.123233995736766e-17, -80.07177734375, 120.92822265625)"
     id="text5692">Success rate</text>
  <text
     fill="none"
     stroke="rgb(0,0,0)"
     font-family="helvetica"
     font-size="15px"
     font-style="normal"
     font-weight="normal"
     text-decoration="normal"
     x="-23.423828125"
     y="97.5"
     text-anchor="start"
     dominant-baseline="alphabetic"
     transform="matrix(6.123233995736766e-17, -1, 1, 6.123233995736766e-17, -80.07177734375, 120.92822265625)"
     stroke-opacity="0"
     stroke-linejoin="bevel"
     stroke-miterlimit="10"
     id="text5694">Success rate</text>
  <text
     xml:space="preserve"
     style="font-size:10.6667px;font-family:sans-serif;-inkscape-font-specification:sans-serif;text-align:end;text-anchor:end;fill:#1f77b4;fill-opacity:1;stroke-width:1.506;stroke-opacity:0.972549"
     x="285.74988"
     y="-28.120701"
     id="text429"
     transform="rotate(39.052519)"><tspan
       sodipodi:role="line"
       id="tspan427"
       x="285.74988"
       y="-28.120701"
       style="font-style:normal;font-variant:normal;font-weight:normal;font-stretch:normal;font-family:sans-serif;-inkscape-font-specification:sans-serif;fill:#1f77b4;fill-opacity:1">Socratic LLM</tspan></text>
  <text
     xml:space="preserve"
     style="font-size:10.6667px;font-family:sans-serif;-inkscape-font-specification:sans-serif;text-align:end;text-anchor:end;fill:#d62728;fill-opacity:1;stroke-width:1.506;stroke-opacity:0.972549"
     x="288.02844"
     y="-46.081566"
     id="text429-9"
     transform="rotate(39.052519)"><tspan
       sodipodi:role="line"
       id="tspan427-1"
       x="288.02844"
       y="-46.081566"
       style="font-style:normal;font-variant:normal;font-weight:normal;font-stretch:normal;font-family:sans-serif;-inkscape-font-specification:sans-serif;fill:#d62728;fill-opacity:1">Gemma 3</tspan></text>
  <text
     xml:space="preserve"
     style="font-size:10.6667px;font-family:sans-serif;-inkscape-font-specification:sans-serif;text-align:end;text-anchor:end;fill:#9467bd;fill-opacity:1;stroke-width:1.506;stroke-opacity:0.972549"
     x="309.56451"
     y="-55.597397"
     id="text429-9-9"
     transform="rotate(39.052519)"><tspan
       sodipodi:role="line"
       id="tspan427-1-5"
       x="309.56451"
       y="-55.597397"
       style="font-style:normal;font-variant:normal;font-weight:normal;font-stretch:normal;font-family:sans-serif;-inkscape-font-specification:sans-serif;fill:#9467bd;fill-opacity:1">GPT-4o</tspan></text>
  <text
     xml:space="preserve"
     style="font-size:10.6667px;font-family:sans-serif;-inkscape-font-specification:sans-serif;text-align:end;text-anchor:end;fill:#2ca02c;fill-opacity:1;stroke-width:1.506;stroke-opacity:0.972549"
     x="319.81451"
     y="-68.004112"
     id="text429-9-9-4"
     transform="rotate(39.052519)"><tspan
       sodipodi:role="line"
       id="tspan427-1-5-4"
       x="319.81451"
       y="-68.004112"
       style="font-style:normal;font-variant:normal;font-weight:normal;font-stretch:normal;font-family:sans-serif;-inkscape-font-specification:sans-serif;fill:#2ca02c;fill-opacity:1">Llamma3.3</tspan></text>
  <text
     xml:space="preserve"
     style="font-size:10.6667px;font-family:sans-serif;-inkscape-font-specification:sans-serif;text-align:end;text-anchor:end;fill:#ff7f0e;fill-opacity:1;stroke-width:1.506;stroke-opacity:0.972549"
     x="338.20099"
     y="-81.818291"
     id="text429-9-9-4-8"
     transform="rotate(39.052519)"><tspan
       sodipodi:role="line"
       id="tspan427-1-5-4-5"
       x="338.20099"
       y="-81.818291"
       style="font-style:normal;font-variant:normal;font-weight:normal;font-stretch:normal;font-family:sans-serif;-inkscape-font-specification:sans-serif;fill:#ff7f0e;fill-opacity:1">Mistral-small3.1</tspan></text>
  <text
     xml:space="preserve"
     style="font-size:10.6667px;font-family:sans-serif;-inkscape-font-specification:sans-serif;text-align:end;text-anchor:end;fill:#8c564b;fill-opacity:1;stroke-width:1.506;stroke-opacity:0.972549"
     x="349.5502"
     y="-95.308037"
     id="text429-9-9-4-8-4"
     transform="rotate(39.052519)"><tspan
       sodipodi:role="line"
       id="tspan427-1-5-4-5-1"
       x="349.5502"
       y="-95.308037"
       style="font-style:normal;font-variant:normal;font-weight:normal;font-stretch:normal;font-family:sans-serif;-inkscape-font-specification:sans-serif;fill:#8c564b;fill-opacity:1">LearnLM 2.0</tspan></text>
</svg>
