<svg version="1.1" xmlns="http://www.w3.org/2000/svg" width="400" height="250"><defs><clipPath id="PmKCcIHrRBGw"><path fill="none" stroke="none" d="M 0.5 0.5 L 400.5 0.5 L 400.5 250.5 L 0.5 250.5 L 0.5 0.5 Z M 69.5 5.5 L 370.5 5.5 L 370.5 196.5 L 69.5 196.5 L 69.5 5.5 Z" clip-rule="evenodd"/></clipPath><clipPath id="bGcRJNvzJcpN"><path fill="none" stroke="none" d="M 69.5 5.5 L 370.5 5.5 L 370.5 196.5 L 69.5 196.5 L 69.5 5.5 Z"/></clipPath><clipPath id="ynleBmhQwRFq"><path fill="none" stroke="none" d="M 69.5 5.5 L 370.5 5.5 L 370.5 196.5 L 69.5 196.5 L 69.5 5.5 Z"/></clipPath><clipPath id="DJaMHLkoiToo"><path fill="none" stroke="none" d="M 69.5 5.5 L 370.5 5.5 L 370.5 196.5 L 69.5 196.5 L 69.5 5.5 Z"/></clipPath><clipPath id="depDTrorNKVv"><path fill="none" stroke="none" d="M 69.5 5.5 L 370.5 5.5 L 370.5 196.5 L 69.5 196.5 L 69.5 5.5 Z"/></clipPath><clipPath id="zkmtBHuWnQps"><path fill="none" stroke="none" d="M 69.5 5.5 L 370.5 5.5 L 370.5 196.5 L 69.5 196.5 L 69.5 5.5 Z"/></clipPath><clipPath id="RTfGFMdlkGKR"><path fill="none" stroke="none" d="M 69.5 5.5 L 370.5 5.5 L 370.5 196.5 L 69.5 196.5 L 69.5 5.5 Z"/></clipPath><clipPath id="JMTVnaQqVgAh"><path fill="none" stroke="none" d="M 69.5 5.5 L 370.5 5.5 L 370.5 196.5 L 69.5 196.5 L 69.5 5.5 Z"/></clipPath><clipPath id="qOcVFEUlHsDT"><path fill="none" stroke="none" d="M 69.5 5.5 L 370.5 5.5 L 370.5 196.5 L 69.5 196.5 L 69.5 5.5 Z"/></clipPath><clipPath id="ZzAVLEByMlOE"><path fill="none" stroke="none" d="M 69.5 5.5 L 370.5 5.5 L 370.5 196.5 L 69.5 196.5 L 69.5 5.5 Z"/></clipPath><clipPath id="qsNexuaAHfKu"><path fill="none" stroke="none" d="M 69.5 5.5 L 370.5 5.5 L 370.5 196.5 L 69.5 196.5 L 69.5 5.5 Z"/></clipPath><clipPath id="ZGDbCQLLVFpu"><path fill="none" stroke="none" d="M 69.5 5.5 L 370.5 5.5 L 370.5 196.5 L 69.5 196.5 L 69.5 5.5 Z"/></clipPath><clipPath id="PlurStIzhOGN"><path fill="none" stroke="none" d="M 69.5 5.5 L 370.5 5.5 L 370.5 196.5 L 69.5 196.5 L 69.5 5.5 Z"/></clipPath></defs><path fill="#ffffff" stroke="none" paint-order="stroke" d="M 0.5 0.5 L 400.5 0.5 L 400.5 250.5 L 0.5 250.5 L 0.5 0.5 Z" clip-path="url(#PmKCcIHrRBGw)"/><path fill="#ffffff" stroke="none" paint-order="stroke" d="M 69.5 5.5 L 370.5 5.5 L 370.5 196.5 L 69.5 196.5 L 69.5 5.5 Z"/><path fill="none" stroke="#e5e5e5" paint-order="fill" d="M 69.5 5.5 L 370.5 5.5 L 370.5 196.5 L 69.5 196.5 L 69.5 5.5 Z" stroke-linejoin="bevel" stroke-miterlimit="10"/><path fill="none" stroke="#e5e5e5" paint-order="fill" d="M 83.5 196.5 L 83.5 5.5 M 122.5 196.5 L 122.5 5.5 M 161.5 196.5 L 161.5 5.5 M 200.5 196.5 L 200.5 5.5 M 239.5 196.5 L 239.5 5.5 M 278.5 196.5 L 278.5 5.5 M 317.5 196.5 L 317.5 5.5 M 356.5 196.5 L 356.5 5.5" stroke-linejoin="bevel" stroke-miterlimit="10" clip-path="url(#bGcRJNvzJcpN)"/><path fill="none" stroke="#e5e5e5" paint-order="fill" d="M 69.5 172.5 L 370.5 172.5 M 69.5 141.5 L 370.5 141.5 M 69.5 110.5 L 370.5 110.5 M 69.5 79.5 L 370.5 79.5 M 69.5 48.5 L 370.5 48.5 M 69.5 17.5 L 370.5 17.5" stroke-linejoin="bevel" stroke-miterlimit="10" clip-path="url(#ynleBmhQwRFq)"/><path fill="rgb(31,119,180)" stroke="none" paint-order="stroke" d="M 83.18181610107422 166.33071899414062 L 122.2727279663086 121.3769760131836 L 200.4545440673828 121.3769760131836 L 356.81817626953125 113.36796569824219 L 356.81817626953125 63.09874725341797 L 200.4545440673828 72.66223907470703 L 122.2727279663086 72.66223907470703 L 83.18181610107422 129.62901306152344 Z" fill-opacity="0.30196078431372547" clip-path="url(#DJaMHLkoiToo)"/><path fill="none" stroke="#1f77b4" paint-order="fill" d="M 83.18181610107422 150.77645874023438 L 122.2727279663086 99.25688171386719 L 200.4545440673828 99.25688171386719 L 356.81817626953125 90.37419891357422" stroke-linejoin="bevel" stroke-miterlimit="10" stroke-width="3" clip-path="url(#depDTrorNKVv)"/><path fill="rgb(214,39,40)" stroke="none" paint-order="stroke" d="M 83.18181610107422 187.81817626953125 L 122.2727279663086 124.56367492675781 L 200.4545440673828 103.68355560302734 L 356.81817626953125 87.38374328613281 L 356.81817626953125 32.85095977783203 L 200.4545440673828 51.6961555480957 L 122.2727279663086 76.50454711914062 L 83.18181610107422 160.8590545654297 Z" fill-opacity="0.30196078431372547" clip-path="url(#zkmtBHuWnQps)"/><path fill="none" stroke="#d62728" paint-order="fill" d="M 83.18181610107422 177.4245147705078 L 122.2727279663086 102.8099594116211 L 200.4545440673828 79.71497344970703 L 356.81817626953125 61.94960403442383" stroke-linejoin="bevel" stroke-miterlimit="10" stroke-width="3" clip-path="url(#RTfGFMdlkGKR)"/><path fill="rgb(44,160,44)" stroke="none" paint-order="stroke" d="M 83.18181610107422 179.46517944335938 L 122.2727279663086 105.3028793334961 L 200.4545440673828 89.02202606201172 L 356.81817626953125 97.1863021850586 L 356.81817626953125 44.135406494140625 L 200.4545440673828 34.7271728515625 L 122.2727279663086 53.59132766723633 L 83.18181610107422 148.12506103515625 Z" fill-opacity="0.30196078431372547" clip-path="url(#JMTVnaQqVgAh)"/><path fill="none" stroke="#2ca02c" paint-order="fill" d="M 83.18181610107422 166.76528930664062 L 122.2727279663086 81.49151611328125 L 200.4545440673828 63.72614288330078 L 356.81817626953125 72.60882568359375" stroke-linejoin="bevel" stroke-miterlimit="10" stroke-width="3" clip-path="url(#qOcVFEUlHsDT)"/><path fill="rgb(255,127,14)" stroke="none" paint-order="stroke" d="M 83.18181610107422 187.81817626953125 L 122.2727279663086 118.18042755126953 L 200.4545440673828 70.90787506103516 L 356.81817626953125 98.81354522705078 L 356.81817626953125 46.02266311645508 L 200.4545440673828 14.181818008422852 L 122.2727279663086 68.82978057861328 L 83.18181610107422 160.8590545654297 Z" fill-opacity="0.30196078431372547" clip-path="url(#ZzAVLEByMlOE)"/><path fill="none" stroke="#ff7f0e" paint-order="fill" d="M 83.18181610107422 177.4245147705078 L 122.2727279663086 95.70381164550781 L 200.4545440673828 44.18423080444336 L 356.81817626953125 74.38536071777344" stroke-linejoin="bevel" stroke-miterlimit="10" stroke-width="3" clip-path="url(#qsNexuaAHfKu)"/><path fill="none" stroke="black" paint-order="fill" d="M 69.5 196.5 L 370.5 196.5" stroke-linejoin="bevel" stroke-miterlimit="10"/><path fill="none" stroke="black" paint-order="fill" d="M 83.5 202.5 L 83.5 194.5 M 122.5 202.5 L 122.5 194.5 M 161.5 202.5 L 161.5 194.5 M 200.5 202.5 L 200.5 194.5 M 239.5 202.5 L 239.5 194.5 M 278.5 202.5 L 278.5 194.5 M 317.5 202.5 L 317.5 194.5 M 356.5 202.5 L 356.5 194.5" stroke-linejoin="bevel" stroke-miterlimit="10"/><path fill="none" stroke="black" paint-order="fill" d="M 75.5 200.5 L 75.5 196.5 M 83.5 200.5 L 83.5 196.5 M 91.5 200.5 L 91.5 196.5 M 98.5 200.5 L 98.5 196.5 M 106.5 200.5 L 106.5 196.5 M 114.5 200.5 L 114.5 196.5 M 122.5 200.5 L 122.5 196.5 M 130.5 200.5 L 130.5 196.5 M 137.5 200.5 L 137.5 196.5 M 145.5 200.5 L 145.5 196.5 M 153.5 200.5 L 153.5 196.5 M 161.5 200.5 L 161.5 196.5 M 169.5 200.5 L 169.5 196.5 M 177.5 200.5 L 177.5 196.5 M 184.5 200.5 L 184.5 196.5 M 192.5 200.5 L 192.5 196.5 M 200.5 200.5 L 200.5 196.5 M 208.5 200.5 L 208.5 196.5 M 216.5 200.5 L 216.5 196.5 M 223.5 200.5 L 223.5 196.5 M 231.5 200.5 L 231.5 196.5 M 239.5 200.5 L 239.5 196.5 M 247.5 200.5 L 247.5 196.5 M 255.5 200.5 L 255.5 196.5 M 263.5 200.5 L 263.5 196.5 M 270.5 200.5 L 270.5 196.5 M 278.5 200.5 L 278.5 196.5 M 286.5 200.5 L 286.5 196.5 M 294.5 200.5 L 294.5 196.5 M 302.5 200.5 L 302.5 196.5 M 309.5 200.5 L 309.5 196.5 M 317.5 200.5 L 317.5 196.5 M 325.5 200.5 L 325.5 196.5 M 333.5 200.5 L 333.5 196.5 M 341.5 200.5 L 341.5 196.5 M 349.5 200.5 L 349.5 196.5 M 356.5 200.5 L 356.5 196.5 M 364.5 200.5 L 364.5 196.5" stroke-linejoin="bevel" stroke-miterlimit="10"/><text fill="#444444" stroke="none" font-family="helvetica" font-size="13px" font-style="normal" font-weight="normal" text-decoration="normal" x="79.06514954566956" y="217" text-anchor="start" dominant-baseline="alphabetic" transform="matrix(1, 0, 0, 1, 0.5, 0.5)">2</text><text fill="none" stroke="rgb(0,0,0)" font-family="helvetica" font-size="13px" font-style="normal" font-weight="normal" text-decoration="normal" x="79.06514954566956" y="217" text-anchor="start" dominant-baseline="alphabetic" transform="matrix(1, 0, 0, 1, 0.5, 0.5)" stroke-opacity="0" stroke-linejoin="bevel" stroke-miterlimit="10">2</text><text fill="#444444" stroke="none" font-family="helvetica" font-size="13px" font-style="normal" font-weight="normal" text-decoration="normal" x="118.15606141090393" y="217" text-anchor="start" dominant-baseline="alphabetic" transform="matrix(1, 0, 0, 1, 0.5, 0.5)">4</text><text fill="none" stroke="rgb(0,0,0)" font-family="helvetica" font-size="13px" font-style="normal" font-weight="normal" text-decoration="normal" x="118.15606141090393" y="217" text-anchor="start" dominant-baseline="alphabetic" transform="matrix(1, 0, 0, 1, 0.5, 0.5)" stroke-opacity="0" stroke-linejoin="bevel" stroke-miterlimit="10">4</text><text fill="#444444" stroke="none" font-family="helvetica" font-size="13px" font-style="normal" font-weight="normal" text-decoration="normal" x="157.24696564674377" y="217" text-anchor="start" dominant-baseline="alphabetic" transform="matrix(1, 0, 0, 1, 0.5, 0.5)">6</text><text fill="none" stroke="rgb(0,0,0)" font-family="helvetica" font-size="13px" font-style="normal" font-weight="normal" text-decoration="normal" x="157.24696564674377" y="217" text-anchor="start" dominant-baseline="alphabetic" transform="matrix(1, 0, 0, 1, 0.5, 0.5)" stroke-opacity="0" stroke-linejoin="bevel" stroke-miterlimit="10">6</text><text fill="#444444" stroke="none" font-family="helvetica" font-size="13px" font-style="normal" font-weight="normal" text-decoration="normal" x="196.33787751197815" y="217" text-anchor="start" dominant-baseline="alphabetic" transform="matrix(1, 0, 0, 1, 0.5, 0.5)">8</text><text fill="none" stroke="rgb(0,0,0)" font-family="helvetica" font-size="13px" font-style="normal" font-weight="normal" text-decoration="normal" x="196.33787751197815" y="217" text-anchor="start" dominant-baseline="alphabetic" transform="matrix(1, 0, 0, 1, 0.5, 0.5)" stroke-opacity="0" stroke-linejoin="bevel" stroke-miterlimit="10">8</text><text fill="#444444" stroke="none" font-family="helvetica" font-size="13px" font-style="normal" font-weight="normal" text-decoration="normal" x="231.81212282180786" y="217" text-anchor="start" dominant-baseline="alphabetic" transform="matrix(1, 0, 0, 1, 0.5, 0.5)">10</text><text fill="none" stroke="rgb(0,0,0)" font-family="helvetica" font-size="13px" font-style="normal" font-weight="normal" text-decoration="normal" x="231.81212282180786" y="217" text-anchor="start" dominant-baseline="alphabetic" transform="matrix(1, 0, 0, 1, 0.5, 0.5)" stroke-opacity="0" stroke-linejoin="bevel" stroke-miterlimit="10">10</text><text fill="#444444" stroke="none" font-family="helvetica" font-size="13px" font-style="normal" font-weight="normal" text-decoration="normal" x="270.9030194282532" y="217" text-anchor="start" dominant-baseline="alphabetic" transform="matrix(1, 0, 0, 1, 0.5, 0.5)">12</text><text fill="none" stroke="rgb(0,0,0)" font-family="helvetica" font-size="13px" font-style="normal" font-weight="normal" text-decoration="normal" x="270.9030194282532" y="217" text-anchor="start" dominant-baseline="alphabetic" transform="matrix(1, 0, 0, 1, 0.5, 0.5)" stroke-opacity="0" stroke-linejoin="bevel" stroke-miterlimit="10">12</text><text fill="#444444" stroke="none" font-family="helvetica" font-size="13px" font-style="normal" font-weight="normal" text-decoration="normal" x="309.99393129348755" y="217" text-anchor="start" dominant-baseline="alphabetic" transform="matrix(1, 0, 0, 1, 0.5, 0.5)">14</text><text fill="none" stroke="rgb(0,0,0)" font-family="helvetica" font-size="13px" font-style="normal" font-weight="normal" text-decoration="normal" x="309.99393129348755" y="217" text-anchor="start" dominant-baseline="alphabetic" transform="matrix(1, 0, 0, 1, 0.5, 0.5)" stroke-opacity="0" stroke-linejoin="bevel" stroke-miterlimit="10">14</text><text fill="#444444" stroke="none" font-family="helvetica" font-size="13px" font-style="normal" font-weight="normal" text-decoration="normal" x="349.0848431587219" y="217" text-anchor="start" dominant-baseline="alphabetic" transform="matrix(1, 0, 0, 1, 0.5, 0.5)">16</text><text fill="none" stroke="rgb(0,0,0)" font-family="helvetica" font-size="13px" font-style="normal" font-weight="normal" text-decoration="normal" x="349.0848431587219" y="217" text-anchor="start" dominant-baseline="alphabetic" transform="matrix(1, 0, 0, 1, 0.5, 0.5)" stroke-opacity="0" stroke-linejoin="bevel" stroke-miterlimit="10">16</text><text fill="#444444" stroke="none" font-family="helvetica" font-size="15px" font-style="normal" font-weight="normal" text-decoration="normal" x="159.5" y="242" text-anchor="start" dominant-baseline="alphabetic" transform="matrix(1, 0, 0, 1, 0.5, 0.5)">Interaction Length</text><text fill="none" stroke="rgb(0,0,0)" font-family="helvetica" font-size="15px" font-style="normal" font-weight="normal" text-decoration="normal" x="159.5" y="242" text-anchor="start" dominant-baseline="alphabetic" transform="matrix(1, 0, 0, 1, 0.5, 0.5)" stroke-opacity="0" stroke-linejoin="bevel" stroke-miterlimit="10">Interaction Length</text><path fill="none" stroke="black" paint-order="fill" d="M 69.5 196.5 L 69.5 5.5" stroke-linejoin="bevel" stroke-miterlimit="10"/><path fill="none" stroke="black" paint-order="fill" d="M 63.5 172.5 L 71.5 172.5 M 63.5 141.5 L 71.5 141.5 M 63.5 110.5 L 71.5 110.5 M 63.5 79.5 L 71.5 79.5 M 63.5 48.5 L 71.5 48.5 M 63.5 17.5 L 71.5 17.5" stroke-linejoin="bevel" stroke-miterlimit="10"/><path fill="none" stroke="black" paint-order="fill" d="M 65.5 179.5 L 69.5 179.5 M 65.5 185.5 L 69.5 185.5 M 65.5 191.5 L 69.5 191.5 M 65.5 172.5 L 69.5 172.5 M 65.5 166.5 L 69.5 166.5 M 65.5 160.5 L 69.5 160.5 M 65.5 154.5 L 69.5 154.5 M 65.5 148.5 L 69.5 148.5 M 65.5 141.5 L 69.5 141.5 M 65.5 135.5 L 69.5 135.5 M 65.5 129.5 L 69.5 129.5 M 65.5 123.5 L 69.5 123.5 M 65.5 117.5 L 69.5 117.5 M 65.5 110.5 L 69.5 110.5 M 65.5 104.5 L 69.5 104.5 M 65.5 98.5 L 69.5 98.5 M 65.5 92.5 L 69.5 92.5 M 65.5 85.5 L 69.5 85.5 M 65.5 79.5 L 69.5 79.5 M 65.5 73.5 L 69.5 73.5 M 65.5 67.5 L 69.5 67.5 M 65.5 61.5 L 69.5 61.5 M 65.5 54.5 L 69.5 54.5 M 65.5 48.5 L 69.5 48.5 M 65.5 42.5 L 69.5 42.5 M 65.5 36.5 L 69.5 36.5 M 65.5 29.5 L 69.5 29.5 M 65.5 23.5 L 69.5 23.5 M 65.5 17.5 L 69.5 17.5 M 65.5 11.5 L 69.5 11.5" stroke-linejoin="bevel" stroke-miterlimit="10"/><text fill="#444444" stroke="none" font-family="helvetica" font-size="13px" font-style="normal" font-weight="normal" text-decoration="normal" x="32.683332443237305" y="177.48316955566406" text-anchor="start" dominant-baseline="alphabetic" transform="matrix(1, 0, 0, 1, 0.5, 0.5)">0.05</text><text fill="none" stroke="rgb(0,0,0)" font-family="helvetica" font-size="13px" font-style="normal" font-weight="normal" text-decoration="normal" x="32.683332443237305" y="177.48316955566406" text-anchor="start" dominant-baseline="alphabetic" transform="matrix(1, 0, 0, 1, 0.5, 0.5)" stroke-opacity="0" stroke-linejoin="bevel" stroke-miterlimit="10">0.05</text><text fill="#444444" stroke="none" font-family="helvetica" font-size="13px" font-style="normal" font-weight="normal" text-decoration="normal" x="39.91666603088379" y="146.39378356933594" text-anchor="start" dominant-baseline="alphabetic" transform="matrix(1, 0, 0, 1, 0.5, 0.5)">0.1</text><text fill="none" stroke="rgb(0,0,0)" font-family="helvetica" font-size="13px" font-style="normal" font-weight="normal" text-decoration="normal" x="39.91666603088379" y="146.39378356933594" text-anchor="start" dominant-baseline="alphabetic" transform="matrix(1, 0, 0, 1, 0.5, 0.5)" stroke-opacity="0" stroke-linejoin="bevel" stroke-miterlimit="10">0.1</text><text fill="#444444" stroke="none" font-family="helvetica" font-size="13px" font-style="normal" font-weight="normal" text-decoration="normal" x="32.683332443237305" y="115.30437469482422" text-anchor="start" dominant-baseline="alphabetic" transform="matrix(1, 0, 0, 1, 0.5, 0.5)">0.15</text><text fill="none" stroke="rgb(0,0,0)" font-family="helvetica" font-size="13px" font-style="normal" font-weight="normal" text-decoration="normal" x="32.683332443237305" y="115.30437469482422" text-anchor="start" dominant-baseline="alphabetic" transform="matrix(1, 0, 0, 1, 0.5, 0.5)" stroke-opacity="0" stroke-linejoin="bevel" stroke-miterlimit="10">0.15</text><text fill="#444444" stroke="none" font-family="helvetica" font-size="13px" font-style="normal" font-weight="normal" text-decoration="normal" x="39.91666603088379" y="84.21497344970703" text-anchor="start" dominant-baseline="alphabetic" transform="matrix(1, 0, 0, 1, 0.5, 0.5)">0.2</text><text fill="none" stroke="rgb(0,0,0)" font-family="helvetica" font-size="13px" font-style="normal" font-weight="normal" text-decoration="normal" x="39.91666603088379" y="84.21497344970703" text-anchor="start" dominant-baseline="alphabetic" transform="matrix(1, 0, 0, 1, 0.5, 0.5)" stroke-opacity="0" stroke-linejoin="bevel" stroke-miterlimit="10">0.2</text><text fill="#444444" stroke="none" font-family="helvetica" font-size="13px" font-style="normal" font-weight="normal" text-decoration="normal" x="32.683332443237305" y="53.12557601928711" text-anchor="start" dominant-baseline="alphabetic" transform="matrix(1, 0, 0, 1, 0.5, 0.5)">0.25</text><text fill="none" stroke="rgb(0,0,0)" font-family="helvetica" font-size="13px" font-style="normal" font-weight="normal" text-decoration="normal" x="32.683332443237305" y="53.12557601928711" text-anchor="start" dominant-baseline="alphabetic" transform="matrix(1, 0, 0, 1, 0.5, 0.5)" stroke-opacity="0" stroke-linejoin="bevel" stroke-miterlimit="10">0.25</text><text fill="#444444" stroke="none" font-family="helvetica" font-size="13px" font-style="normal" font-weight="normal" text-decoration="normal" x="39.91666603088379" y="22.036174774169922" text-anchor="start" dominant-baseline="alphabetic" transform="matrix(1, 0, 0, 1, 0.5, 0.5)">0.3</text><text fill="none" stroke="rgb(0,0,0)" font-family="helvetica" font-size="13px" font-style="normal" font-weight="normal" text-decoration="normal" x="39.91666603088379" y="22.036174774169922" text-anchor="start" dominant-baseline="alphabetic" transform="matrix(1, 0, 0, 1, 0.5, 0.5)" stroke-opacity="0" stroke-linejoin="bevel" stroke-miterlimit="10">0.3</text><text fill="#444444" stroke="none" font-family="helvetica" font-size="15px" font-style="normal" font-weight="normal" text-decoration="normal" x="-21.566667556762695" y="95.5" text-anchor="start" dominant-baseline="alphabetic" transform="matrix(6.123233995736766e-17, -1, 1, 6.123233995736766e-17, -75.3166675567627, 125.6833324432373)">Success Rate</text><text fill="none" stroke="rgb(0,0,0)" font-family="helvetica" font-size="15px" font-style="normal" font-weight="normal" text-decoration="normal" x="-21.566667556762695" y="95.5" text-anchor="start" dominant-baseline="alphabetic" transform="matrix(6.123233995736766e-17, -1, 1, 6.123233995736766e-17, -75.3166675567627, 125.6833324432373)" stroke-opacity="0" stroke-linejoin="bevel" stroke-miterlimit="10">Success Rate</text></svg>