<svg version="1.1" xmlns="http://www.w3.org/2000/svg" width="400" height="250"><defs><clipPath id="RFqTpBXcuIUr"><path fill="none" stroke="none" d="M 0.5 0.5 L 400.5 0.5 L 400.5 250.5 L 0.5 250.5 L 0.5 0.5 Z M 57.5 5.5 L 370.5 5.5 L 370.5 196.5 L 57.5 196.5 L 57.5 5.5 Z" clip-rule="evenodd"/></clipPath><clipPath id="sZLMOnEhUsSN"><path fill="none" stroke="none" d="M 57.5 5.5 L 370.5 5.5 L 370.5 196.5 L 57.5 196.5 L 57.5 5.5 Z"/></clipPath><clipPath id="aTlDzCXmIAMp"><path fill="none" stroke="none" d="M 57.5 5.5 L 370.5 5.5 L 370.5 196.5 L 57.5 196.5 L 57.5 5.5 Z"/></clipPath><clipPath id="ruzVLNlrKdCD"><path fill="none" stroke="none" d="M 57.5 5.5 L 370.5 5.5 L 370.5 196.5 L 57.5 196.5 L 57.5 5.5 Z"/></clipPath><clipPath id="kcXGuhyDIQBd"><path fill="none" stroke="none" d="M 57.5 5.5 L 370.5 5.5 L 370.5 196.5 L 57.5 196.5 L 57.5 5.5 Z"/></clipPath><clipPath id="JBBnhkOxmGoa"><path fill="none" stroke="none" d="M 57.5 5.5 L 370.5 5.5 L 370.5 196.5 L 57.5 196.5 L 57.5 5.5 Z"/></clipPath><clipPath id="XOybprLuHmkh"><path fill="none" stroke="none" d="M 57.5 5.5 L 370.5 5.5 L 370.5 196.5 L 57.5 196.5 L 57.5 5.5 Z"/></clipPath><clipPath id="JEmeIWbGoWbz"><path fill="none" stroke="none" d="M 57.5 5.5 L 370.5 5.5 L 370.5 196.5 L 57.5 196.5 L 57.5 5.5 Z"/></clipPath><clipPath id="tJsIhXlRWcOr"><path fill="none" stroke="none" d="M 57.5 5.5 L 370.5 5.5 L 370.5 196.5 L 57.5 196.5 L 57.5 5.5 Z"/></clipPath><clipPath id="SlVOpBOXBZWe"><path fill="none" stroke="none" d="M 57.5 5.5 L 370.5 5.5 L 370.5 196.5 L 57.5 196.5 L 57.5 5.5 Z"/></clipPath></defs><path fill="#ffffff" stroke="none" paint-order="stroke" d="M 0.5 0.5 L 400.5 0.5 L 400.5 250.5 L 0.5 250.5 L 0.5 0.5 Z" clip-path="url(#RFqTpBXcuIUr)"/><path fill="#ffffff" stroke="none" paint-order="stroke" d="M 57.5 5.5 L 370.5 5.5 L 370.5 196.5 L 57.5 196.5 L 57.5 5.5 Z"/><path fill="none" stroke="#e5e5e5" paint-order="fill" d="M 57.5 5.5 L 370.5 5.5 L 370.5 196.5 L 57.5 196.5 L 57.5 5.5 Z" stroke-linejoin="bevel" stroke-miterlimit="10"/><path fill="none" stroke="#e5e5e5" paint-order="fill" d="M 57.5 158.5 L 370.5 158.5 M 57.5 120.5 L 370.5 120.5 M 57.5 81.5 L 370.5 81.5 M 57.5 43.5 L 370.5 43.5" stroke-linejoin="bevel" stroke-miterlimit="10" clip-path="url(#aTlDzCXmIAMp)"/><path fill="rgb(31,119,180)" stroke="rgb(31,119,180)" paint-order="fill" d="M 75.7922134399414 182.52438354492188 L 81.21212005615234 182.52438354492188 L 81.21212005615234 196.5 L 75.7922134399414 196.5 L 75.7922134399414 182.52438354492188 Z" fill-opacity="1" clip-path="url(#ruzVLNlrKdCD)" stroke-opacity="1" stroke-linejoin="bevel" stroke-miterlimit="10"/><path fill="rgb(31,119,180)" stroke="rgb(31,119,180)" paint-order="fill" d="M 116.44155883789062 163.28260803222656 L 121.86146545410156 163.28260803222656 L 121.86146545410156 196.5 L 116.44155883789062 196.5 L 116.44155883789062 163.28260803222656 Z" fill-opacity="1" clip-path="url(#ruzVLNlrKdCD)" stroke-opacity="1" stroke-linejoin="bevel" stroke-miterlimit="10"/><path fill="rgb(31,119,180)" stroke="rgb(31,119,180)" paint-order="fill" d="M 157.09091186523438 164.0660400390625 L 162.51083374023438 164.0660400390625 L 162.51083374023438 196.5 L 157.09091186523438 196.5 L 157.09091186523438 164.0660400390625 Z" fill-opacity="1" clip-path="url(#ruzVLNlrKdCD)" stroke-opacity="1" stroke-linejoin="bevel" stroke-miterlimit="10"/><path fill="rgb(31,119,180)" stroke="rgb(31,119,180)" paint-order="fill" d="M 197.74026489257812 162.7941131591797 L 203.16018676757812 162.7941131591797 L 203.16018676757812 196.5 L 197.74026489257812 196.5 L 197.74026489257812 162.7941131591797 Z" fill-opacity="1" clip-path="url(#ruzVLNlrKdCD)" stroke-opacity="1" stroke-linejoin="bevel" stroke-miterlimit="10"/><path fill="rgb(31,119,180)" stroke="rgb(31,119,180)" paint-order="fill" d="M 238.3896026611328 165.94000244140625 L 243.8095245361328 165.94000244140625 L 243.8095245361328 196.5 L 238.3896026611328 196.5 L 238.3896026611328 165.94000244140625 Z" fill-opacity="1" clip-path="url(#ruzVLNlrKdCD)" stroke-opacity="1" stroke-linejoin="bevel" stroke-miterlimit="10"/><path fill="rgb(31,119,180)" stroke="rgb(31,119,180)" paint-order="fill" d="M 279.0389404296875 162.39285278320312 L 284.4588623046875 162.39285278320312 L 284.4588623046875 196.5 L 279.0389404296875 196.5 L 279.0389404296875 162.39285278320312 Z" fill-opacity="1" clip-path="url(#ruzVLNlrKdCD)" stroke-opacity="1" stroke-linejoin="bevel" stroke-miterlimit="10"/><path fill="rgb(31,119,180)" stroke="rgb(31,119,180)" paint-order="fill" d="M 319.68829345703125 134.0576934814453 L 325.10821533203125 134.0576934814453 L 325.10821533203125 196.5 L 319.68829345703125 196.5 L 319.68829345703125 134.0576934814453 Z" fill-opacity="1" clip-path="url(#ruzVLNlrKdCD)" stroke-opacity="1" stroke-linejoin="bevel" stroke-miterlimit="10"/><path fill="rgb(214,39,40)" stroke="rgb(214,39,40)" paint-order="fill" d="M 81.21212768554688 159.925537109375 L 86.63203430175781 159.925537109375 L 86.63203430175781 196.5 L 81.21212768554688 196.5 L 81.21212768554688 159.925537109375 Z" fill-opacity="1" clip-path="url(#kcXGuhyDIQBd)" stroke-opacity="1" stroke-linejoin="bevel" stroke-miterlimit="10"/><path fill="rgb(214,39,40)" stroke="rgb(214,39,40)" paint-order="fill" d="M 121.8614730834961 136.8125 L 127.28137969970703 136.8125 L 127.28137969970703 196.5 L 121.8614730834961 196.5 L 121.8614730834961 136.8125 Z" fill-opacity="1" clip-path="url(#kcXGuhyDIQBd)" stroke-opacity="1" stroke-linejoin="bevel" stroke-miterlimit="10"/><path fill="rgb(214,39,40)" stroke="rgb(214,39,40)" paint-order="fill" d="M 162.5108184814453 163.4423065185547 L 167.9307403564453 163.4423065185547 L 167.9307403564453 196.5 L 162.5108184814453 196.5 L 162.5108184814453 163.4423065185547 Z" fill-opacity="1" clip-path="url(#kcXGuhyDIQBd)" stroke-opacity="1" stroke-linejoin="bevel" stroke-miterlimit="10"/><path fill="rgb(214,39,40)" stroke="rgb(214,39,40)" paint-order="fill" d="M 203.16017150878906 157.59259033203125 L 208.58009338378906 157.59259033203125 L 208.58009338378906 196.5 L 203.16017150878906 196.5 L 203.16017150878906 157.59259033203125 Z" fill-opacity="1" clip-path="url(#kcXGuhyDIQBd)" stroke-opacity="1" stroke-linejoin="bevel" stroke-miterlimit="10"/><path fill="rgb(214,39,40)" stroke="rgb(214,39,40)" paint-order="fill" d="M 243.8095245361328 140.3235321044922 L 249.2294464111328 140.3235321044922 L 249.2294464111328 196.5 L 243.8095245361328 196.5 L 243.8095245361328 140.3235321044922 Z" fill-opacity="1" clip-path="url(#kcXGuhyDIQBd)" stroke-opacity="1" stroke-linejoin="bevel" stroke-miterlimit="10"/><path fill="rgb(214,39,40)" stroke="rgb(214,39,40)" paint-order="fill" d="M 284.4588928222656 154.47999572753906 L 289.8788146972656 154.47999572753906 L 289.8788146972656 196.5 L 284.4588928222656 196.5 L 284.4588928222656 154.47999572753906 Z" fill-opacity="1" clip-path="url(#kcXGuhyDIQBd)" stroke-opacity="1" stroke-linejoin="bevel" stroke-miterlimit="10"/><path fill="rgb(214,39,40)" stroke="rgb(214,39,40)" paint-order="fill" d="M 325.10821533203125 156.7083282470703 L 330.52813720703125 156.7083282470703 L 330.52813720703125 196.5 L 325.10821533203125 196.5 L 325.10821533203125 156.7083282470703 Z" fill-opacity="1" clip-path="url(#kcXGuhyDIQBd)" stroke-opacity="1" stroke-linejoin="bevel" stroke-miterlimit="10"/><path fill="rgb(148,103,189)" stroke="rgb(148,103,189)" paint-order="fill" d="M 86.63204193115234 189.55455017089844 L 92.05194854736328 189.55455017089844 L 92.05194854736328 196.5 L 86.63204193115234 196.5 L 86.63204193115234 189.55455017089844 Z" fill-opacity="1" clip-path="url(#JBBnhkOxmGoa)" stroke-opacity="1" stroke-linejoin="bevel" stroke-miterlimit="10"/><path fill="rgb(148,103,189)" stroke="rgb(148,103,189)" paint-order="fill" d="M 127.28137969970703 159.76922607421875 L 132.7012939453125 159.76922607421875 L 132.7012939453125 196.5 L 127.28137969970703 196.5 L 127.28137969970703 159.76922607421875 Z" fill-opacity="1" clip-path="url(#JBBnhkOxmGoa)" stroke-opacity="1" stroke-linejoin="bevel" stroke-miterlimit="10"/><path fill="rgb(148,103,189)" stroke="rgb(148,103,189)" paint-order="fill" d="M 167.9307403564453 149.7244873046875 L 173.3506622314453 149.7244873046875 L 173.3506622314453 196.5 L 167.9307403564453 196.5 L 167.9307403564453 149.7244873046875 Z" fill-opacity="1" clip-path="url(#JBBnhkOxmGoa)" stroke-opacity="1" stroke-linejoin="bevel" stroke-miterlimit="10"/><path fill="rgb(148,103,189)" stroke="rgb(148,103,189)" paint-order="fill" d="M 208.580078125 152.42308044433594 L 214 152.42308044433594 L 214 196.5 L 208.580078125 196.5 L 208.580078125 152.42308044433594 Z" fill-opacity="1" clip-path="url(#JBBnhkOxmGoa)" stroke-opacity="1" stroke-linejoin="bevel" stroke-miterlimit="10"/><path fill="rgb(148,103,189)" stroke="rgb(148,103,189)" paint-order="fill" d="M 249.22943115234375 158.3000030517578 L 254.64935302734375 158.3000030517578 L 254.64935302734375 196.5 L 249.22943115234375 196.5 L 249.22943115234375 158.3000030517578 Z" fill-opacity="1" clip-path="url(#JBBnhkOxmGoa)" stroke-opacity="1" stroke-linejoin="bevel" stroke-miterlimit="10"/><path fill="rgb(148,103,189)" stroke="rgb(148,103,189)" paint-order="fill" d="M 289.8787841796875 158.3000030517578 L 295.2987060546875 158.3000030517578 L 295.2987060546875 196.5 L 289.8787841796875 196.5 L 289.8787841796875 158.3000030517578 Z" fill-opacity="1" clip-path="url(#JBBnhkOxmGoa)" stroke-opacity="1" stroke-linejoin="bevel" stroke-miterlimit="10"/><path fill="rgb(148,103,189)" stroke="rgb(148,103,189)" paint-order="fill" d="M 330.52813720703125 172.625 L 335.94805908203125 172.625 L 335.94805908203125 196.5 L 330.52813720703125 196.5 L 330.52813720703125 172.625 Z" fill-opacity="1" clip-path="url(#JBBnhkOxmGoa)" stroke-opacity="1" stroke-linejoin="bevel" stroke-miterlimit="10"/><path fill="rgb(44,160,44)" stroke="rgb(44,160,44)" paint-order="fill" d="M 92.05194854736328 152.42308044433594 L 97.47185516357422 152.42308044433594 L 97.47185516357422 196.5 L 92.05194854736328 196.5 L 92.05194854736328 152.42308044433594 Z" fill-opacity="1" clip-path="url(#XOybprLuHmkh)" stroke-opacity="1" stroke-linejoin="bevel" stroke-miterlimit="10"/><path fill="rgb(44,160,44)" stroke="rgb(44,160,44)" paint-order="fill" d="M 132.7012939453125 147.88182067871094 L 138.1212158203125 147.88182067871094 L 138.1212158203125 196.5 L 132.7012939453125 196.5 L 132.7012939453125 147.88182067871094 Z" fill-opacity="1" clip-path="url(#XOybprLuHmkh)" stroke-opacity="1" stroke-linejoin="bevel" stroke-miterlimit="10"/><path fill="rgb(44,160,44)" stroke="rgb(44,160,44)" paint-order="fill" d="M 173.35064697265625 160.46226501464844 L 178.77056884765625 160.46226501464844 L 178.77056884765625 196.5 L 173.35064697265625 196.5 L 173.35064697265625 160.46226501464844 Z" fill-opacity="1" clip-path="url(#XOybprLuHmkh)" stroke-opacity="1" stroke-linejoin="bevel" stroke-miterlimit="10"/><path fill="rgb(44,160,44)" stroke="rgb(44,160,44)" paint-order="fill" d="M 214 178.3095245361328 L 219.419921875 178.3095245361328 L 219.419921875 196.5 L 214 196.5 L 214 178.3095245361328 Z" fill-opacity="1" clip-path="url(#XOybprLuHmkh)" stroke-opacity="1" stroke-linejoin="bevel" stroke-miterlimit="10"/><path fill="rgb(44,160,44)" stroke="rgb(44,160,44)" paint-order="fill" d="M 254.64935302734375 128.58888244628906 L 260.06927490234375 128.58888244628906 L 260.06927490234375 196.5 L 254.64935302734375 196.5 L 254.64935302734375 128.58888244628906 Z" fill-opacity="1" clip-path="url(#XOybprLuHmkh)" stroke-opacity="1" stroke-linejoin="bevel" stroke-miterlimit="10"/><path fill="rgb(44,160,44)" stroke="rgb(44,160,44)" paint-order="fill" d="M 295.2987060546875 160.6875 L 300.7186279296875 160.6875 L 300.7186279296875 196.5 L 295.2987060546875 196.5 L 295.2987060546875 160.6875 Z" fill-opacity="1" clip-path="url(#XOybprLuHmkh)" stroke-opacity="1" stroke-linejoin="bevel" stroke-miterlimit="10"/><path fill="rgb(44,160,44)" stroke="rgb(44,160,44)" paint-order="fill" d="M 335.94805908203125 165.24545288085938 L 341.36798095703125 165.24545288085938 L 341.36798095703125 196.5 L 335.94805908203125 196.5 L 335.94805908203125 165.24545288085938 Z" fill-opacity="1" clip-path="url(#XOybprLuHmkh)" stroke-opacity="1" stroke-linejoin="bevel" stroke-miterlimit="10"/><path fill="rgb(255,127,14)" stroke="rgb(255,127,14)" paint-order="fill" d="M 97.47186279296875 150.82608032226562 L 102.89176940917969 150.82608032226562 L 102.89176940917969 196.5 L 97.47186279296875 196.5 L 97.47186279296875 150.82608032226562 Z" fill-opacity="1" clip-path="url(#JEmeIWbGoWbz)" stroke-opacity="1" stroke-linejoin="bevel" stroke-miterlimit="10"/><path fill="rgb(255,127,14)" stroke="rgb(255,127,14)" paint-order="fill" d="M 138.1212158203125 166.53921508789062 L 143.5411376953125 166.53921508789062 L 143.5411376953125 196.5 L 138.1212158203125 196.5 L 138.1212158203125 166.53921508789062 Z" fill-opacity="1" clip-path="url(#JEmeIWbGoWbz)" stroke-opacity="1" stroke-linejoin="bevel" stroke-miterlimit="10"/><path fill="rgb(255,127,14)" stroke="rgb(255,127,14)" paint-order="fill" d="M 178.7705535888672 157.43182373046875 L 184.1904754638672 157.43182373046875 L 184.1904754638672 196.5 L 178.7705535888672 196.5 L 178.7705535888672 157.43182373046875 Z" fill-opacity="1" clip-path="url(#JEmeIWbGoWbz)" stroke-opacity="1" stroke-linejoin="bevel" stroke-miterlimit="10"/><path fill="rgb(255,127,14)" stroke="rgb(255,127,14)" paint-order="fill" d="M 219.41990661621094 154.8272705078125 L 224.83982849121094 154.8272705078125 L 224.83982849121094 196.5 L 219.41990661621094 196.5 L 219.41990661621094 154.8272705078125 Z" fill-opacity="1" clip-path="url(#JEmeIWbGoWbz)" stroke-opacity="1" stroke-linejoin="bevel" stroke-miterlimit="10"/><path fill="rgb(255,127,14)" stroke="rgb(255,127,14)" paint-order="fill" d="M 260.0692443847656 152.1607208251953 L 265.4891662597656 152.1607208251953 L 265.4891662597656 196.5 L 260.0692443847656 196.5 L 260.0692443847656 152.1607208251953 Z" fill-opacity="1" clip-path="url(#JEmeIWbGoWbz)" stroke-opacity="1" stroke-linejoin="bevel" stroke-miterlimit="10"/><path fill="rgb(255,127,14)" stroke="rgb(255,127,14)" paint-order="fill" d="M 300.7185974121094 172.1170196533203 L 306.1385192871094 172.1170196533203 L 306.1385192871094 196.5 L 300.7185974121094 196.5 L 300.7185974121094 172.1170196533203 Z" fill-opacity="1" clip-path="url(#JEmeIWbGoWbz)" stroke-opacity="1" stroke-linejoin="bevel" stroke-miterlimit="10"/><path fill="rgb(255,127,14)" stroke="rgb(255,127,14)" paint-order="fill" d="M 341.3679504394531 144.06863403320312 L 346.7878723144531 144.06863403320312 L 346.7878723144531 196.5 L 341.3679504394531 196.5 L 341.3679504394531 144.06863403320312 Z" fill-opacity="1" clip-path="url(#JEmeIWbGoWbz)" stroke-opacity="1" stroke-linejoin="bevel" stroke-miterlimit="10"/><path fill="rgb(140,86,75)" stroke="rgb(140,86,75)" paint-order="fill" d="M 102.89177703857422 156.85848999023438 L 108.31168365478516 156.85848999023438 L 108.31168365478516 196.5 L 102.89177703857422 196.5 L 102.89177703857422 156.85848999023438 Z" fill-opacity="1" clip-path="url(#tJsIhXlRWcOr)" stroke-opacity="1" stroke-linejoin="bevel" stroke-miterlimit="10"/><path fill="rgb(140,86,75)" stroke="rgb(140,86,75)" paint-order="fill" d="M 143.54112243652344 156.85848999023438 L 148.96104431152344 156.85848999023438 L 148.96104431152344 196.5 L 143.54112243652344 196.5 L 143.54112243652344 156.85848999023438 Z" fill-opacity="1" clip-path="url(#tJsIhXlRWcOr)" stroke-opacity="1" stroke-linejoin="bevel" stroke-miterlimit="10"/><path fill="rgb(140,86,75)" stroke="rgb(140,86,75)" paint-order="fill" d="M 184.1904754638672 158.3000030517578 L 189.6103973388672 158.3000030517578 L 189.6103973388672 196.5 L 184.1904754638672 196.5 L 184.1904754638672 158.3000030517578 Z" fill-opacity="1" clip-path="url(#tJsIhXlRWcOr)" stroke-opacity="1" stroke-linejoin="bevel" stroke-miterlimit="10"/><path fill="rgb(140,86,75)" stroke="rgb(140,86,75)" paint-order="fill" d="M 224.83981323242188 151.79786682128906 L 230.25973510742188 151.79786682128906 L 230.25973510742188 196.5 L 224.83981323242188 196.5 L 224.83981323242188 151.79786682128906 Z" fill-opacity="1" clip-path="url(#tJsIhXlRWcOr)" stroke-opacity="1" stroke-linejoin="bevel" stroke-miterlimit="10"/><path fill="rgb(140,86,75)" stroke="rgb(140,86,75)" paint-order="fill" d="M 265.4891662597656 141.40383911132812 L 270.9090881347656 141.40383911132812 L 270.9090881347656 196.5 L 265.4891662597656 196.5 L 265.4891662597656 141.40383911132812 Z" fill-opacity="1" clip-path="url(#tJsIhXlRWcOr)" stroke-opacity="1" stroke-linejoin="bevel" stroke-miterlimit="10"/><path fill="rgb(140,86,75)" stroke="rgb(140,86,75)" paint-order="fill" d="M 306.1385192871094 165.80357360839844 L 311.5584411621094 165.80357360839844 L 311.5584411621094 196.5 L 306.1385192871094 196.5 L 306.1385192871094 165.80357360839844 Z" fill-opacity="1" clip-path="url(#tJsIhXlRWcOr)" stroke-opacity="1" stroke-linejoin="bevel" stroke-miterlimit="10"/><path fill="rgb(140,86,75)" stroke="rgb(140,86,75)" paint-order="fill" d="M 346.7878723144531 161.77272033691406 L 352.2077941894531 161.77272033691406 L 352.2077941894531 196.5 L 346.7878723144531 196.5 L 346.7878723144531 161.77272033691406 Z" fill-opacity="1" clip-path="url(#tJsIhXlRWcOr)" stroke-opacity="1" stroke-linejoin="bevel" stroke-miterlimit="10"/><path fill="none" stroke="black" paint-order="fill" d="M 57.5 196.5 L 370.5 196.5" stroke-linejoin="bevel" stroke-miterlimit="10"/><path fill="none" stroke="black" paint-order="fill" d="M 92.5 202.5 L 92.5 194.5 M 132.5 202.5 L 132.5 194.5 M 173.5 202.5 L 173.5 194.5 M 214.5 202.5 L 214.5 194.5 M 254.5 202.5 L 254.5 194.5 M 295.5 202.5 L 295.5 194.5 M 335.5 202.5 L 335.5 194.5" stroke-linejoin="bevel" stroke-miterlimit="10"/><path fill="none" stroke="black" paint-order="fill" d="" stroke-linejoin="bevel" stroke-miterlimit="10"/><text fill="#444444" stroke="none" font-family="helvetica" font-size="13px" font-style="normal" font-weight="normal" text-decoration="normal" x="79.26605987548828" y="219" text-anchor="start" dominant-baseline="alphabetic" transform="matrix(1, 0, 0, 1, 0.5, 0.5)">SP1</text><text fill="none" stroke="rgb(0,0,0)" font-family="helvetica" font-size="13px" font-style="normal" font-weight="normal" text-decoration="normal" x="79.26605987548828" y="219" text-anchor="start" dominant-baseline="alphabetic" transform="matrix(1, 0, 0, 1, 0.5, 0.5)" stroke-opacity="0" stroke-linejoin="bevel" stroke-miterlimit="10">SP1</text><text fill="#444444" stroke="none" font-family="helvetica" font-size="13px" font-style="normal" font-weight="normal" text-decoration="normal" x="119.9154052734375" y="219" text-anchor="start" dominant-baseline="alphabetic" transform="matrix(1, 0, 0, 1, 0.5, 0.5)">SP2</text><text fill="none" stroke="rgb(0,0,0)" font-family="helvetica" font-size="13px" font-style="normal" font-weight="normal" text-decoration="normal" x="119.9154052734375" y="219" text-anchor="start" dominant-baseline="alphabetic" transform="matrix(1, 0, 0, 1, 0.5, 0.5)" stroke-opacity="0" stroke-linejoin="bevel" stroke-miterlimit="10">SP2</text><text fill="#444444" stroke="none" font-family="helvetica" font-size="13px" font-style="normal" font-weight="normal" text-decoration="normal" x="160.56475830078125" y="219" text-anchor="start" dominant-baseline="alphabetic" transform="matrix(1, 0, 0, 1, 0.5, 0.5)">SP3</text><text fill="none" stroke="rgb(0,0,0)" font-family="helvetica" font-size="13px" font-style="normal" font-weight="normal" text-decoration="normal" x="160.56475830078125" y="219" text-anchor="start" dominant-baseline="alphabetic" transform="matrix(1, 0, 0, 1, 0.5, 0.5)" stroke-opacity="0" stroke-linejoin="bevel" stroke-miterlimit="10">SP3</text><text fill="#444444" stroke="none" font-family="helvetica" font-size="13px" font-style="normal" font-weight="normal" text-decoration="normal" x="201.214111328125" y="219" text-anchor="start" dominant-baseline="alphabetic" transform="matrix(1, 0, 0, 1, 0.5, 0.5)">SP4</text><text fill="none" stroke="rgb(0,0,0)" font-family="helvetica" font-size="13px" font-style="normal" font-weight="normal" text-decoration="normal" x="201.214111328125" y="219" text-anchor="start" dominant-baseline="alphabetic" transform="matrix(1, 0, 0, 1, 0.5, 0.5)" stroke-opacity="0" stroke-linejoin="bevel" stroke-miterlimit="10">SP4</text><text fill="#444444" stroke="none" font-family="helvetica" font-size="13px" font-style="normal" font-weight="normal" text-decoration="normal" x="241.86346435546875" y="219" text-anchor="start" dominant-baseline="alphabetic" transform="matrix(1, 0, 0, 1, 0.5, 0.5)">SP5</text><text fill="none" stroke="rgb(0,0,0)" font-family="helvetica" font-size="13px" font-style="normal" font-weight="normal" text-decoration="normal" x="241.86346435546875" y="219" text-anchor="start" dominant-baseline="alphabetic" transform="matrix(1, 0, 0, 1, 0.5, 0.5)" stroke-opacity="0" stroke-linejoin="bevel" stroke-miterlimit="10">SP5</text><text fill="#444444" stroke="none" font-family="helvetica" font-size="13px" font-style="normal" font-weight="normal" text-decoration="normal" x="282.5128173828125" y="219" text-anchor="start" dominant-baseline="alphabetic" transform="matrix(1, 0, 0, 1, 0.5, 0.5)">SP6</text><text fill="none" stroke="rgb(0,0,0)" font-family="helvetica" font-size="13px" font-style="normal" font-weight="normal" text-decoration="normal" x="282.5128173828125" y="219" text-anchor="start" dominant-baseline="alphabetic" transform="matrix(1, 0, 0, 1, 0.5, 0.5)" stroke-opacity="0" stroke-linejoin="bevel" stroke-miterlimit="10">SP6</text><text fill="#444444" stroke="none" font-family="helvetica" font-size="13px" font-style="normal" font-weight="normal" text-decoration="normal" x="323.16217041015625" y="219" text-anchor="start" dominant-baseline="alphabetic" transform="matrix(1, 0, 0, 1, 0.5, 0.5)">SP7</text><text fill="none" stroke="rgb(0,0,0)" font-family="helvetica" font-size="13px" font-style="normal" font-weight="normal" text-decoration="normal" x="323.16217041015625" y="219" text-anchor="start" dominant-baseline="alphabetic" transform="matrix(1, 0, 0, 1, 0.5, 0.5)" stroke-opacity="0" stroke-linejoin="bevel" stroke-miterlimit="10">SP7</text><text fill="#444444" stroke="none" font-family="helvetica" font-size="15px" font-style="normal" font-weight="normal" text-decoration="normal" x="158.45849609375" y="244" text-anchor="start" dominant-baseline="alphabetic" transform="matrix(1, 0, 0, 1, 0.5, 0.5)">Student persona</text><text fill="none" stroke="rgb(0,0,0)" font-family="helvetica" font-size="15px" font-style="normal" font-weight="normal" text-decoration="normal" x="158.45849609375" y="244" text-anchor="start" dominant-baseline="alphabetic" transform="matrix(1, 0, 0, 1, 0.5, 0.5)" stroke-opacity="0" stroke-linejoin="bevel" stroke-miterlimit="10">Student persona</text><path fill="none" stroke="black" paint-order="fill" d="M 57.5 196.5 L 57.5 5.5" stroke-linejoin="bevel" stroke-miterlimit="10"/><path fill="none" stroke="black" paint-order="fill" d="M 51.5 196.5 L 59.5 196.5 M 51.5 158.5 L 59.5 158.5 M 51.5 120.5 L 59.5 120.5 M 51.5 81.5 L 59.5 81.5 M 51.5 43.5 L 59.5 43.5 M 51.5 5.5 L 59.5 5.5" stroke-linejoin="bevel" stroke-miterlimit="10"/><path fill="none" stroke="black" paint-order="fill" d="M 53.5 196.5 L 57.5 196.5 M 53.5 188.5 L 57.5 188.5 M 53.5 181.5 L 57.5 181.5 M 53.5 173.5 L 57.5 173.5 M 53.5 165.5 L 57.5 165.5 M 53.5 158.5 L 57.5 158.5 M 53.5 150.5 L 57.5 150.5 M 53.5 143.5 L 57.5 143.5 M 53.5 135.5 L 57.5 135.5 M 53.5 127.5 L 57.5 127.5 M 53.5 120.5 L 57.5 120.5 M 53.5 112.5 L 57.5 112.5 M 53.5 104.5 L 57.5 104.5 M 53.5 97.5 L 57.5 97.5 M 53.5 89.5 L 57.5 89.5 M 53.5 81.5 L 57.5 81.5 M 53.5 74.5 L 57.5 74.5 M 53.5 66.5 L 57.5 66.5 M 53.5 58.5 L 57.5 58.5 M 53.5 51.5 L 57.5 51.5 M 53.5 43.5 L 57.5 43.5 M 53.5 36.5 L 57.5 36.5 M 53.5 28.5 L 57.5 28.5 M 53.5 20.5 L 57.5 20.5 M 53.5 13.5 L 57.5 13.5 M 53.5 5.5 L 57.5 5.5" stroke-linejoin="bevel" stroke-miterlimit="10"/><text fill="#444444" stroke="none" font-family="helvetica" font-size="13px" font-style="normal" font-weight="normal" text-decoration="normal" x="38.77001953125" y="200.5" text-anchor="start" dominant-baseline="alphabetic" transform="matrix(1, 0, 0, 1, 0.5, 0.5)">0</text><text fill="none" stroke="rgb(0,0,0)" font-family="helvetica" font-size="13px" font-style="normal" font-weight="normal" text-decoration="normal" x="38.77001953125" y="200.5" text-anchor="start" dominant-baseline="alphabetic" transform="matrix(1, 0, 0, 1, 0.5, 0.5)" stroke-opacity="0" stroke-linejoin="bevel" stroke-miterlimit="10">0</text><text fill="#444444" stroke="none" font-family="helvetica" font-size="13px" font-style="normal" font-weight="normal" text-decoration="normal" x="27.92822265625" y="162.3000030517578" text-anchor="start" dominant-baseline="alphabetic" transform="matrix(1, 0, 0, 1, 0.5, 0.5)">0.2</text><text fill="none" stroke="rgb(0,0,0)" font-family="helvetica" font-size="13px" font-style="normal" font-weight="normal" text-decoration="normal" x="27.92822265625" y="162.3000030517578" text-anchor="start" dominant-baseline="alphabetic" transform="matrix(1, 0, 0, 1, 0.5, 0.5)" stroke-opacity="0" stroke-linejoin="bevel" stroke-miterlimit="10">0.2</text><text fill="#444444" stroke="none" font-family="helvetica" font-size="13px" font-style="normal" font-weight="normal" text-decoration="normal" x="27.92822265625" y="124.0999984741211" text-anchor="start" dominant-baseline="alphabetic" transform="matrix(1, 0, 0, 1, 0.5, 0.5)">0.4</text><text fill="none" stroke="rgb(0,0,0)" font-family="helvetica" font-size="13px" font-style="normal" font-weight="normal" text-decoration="normal" x="27.92822265625" y="124.0999984741211" text-anchor="start" dominant-baseline="alphabetic" transform="matrix(1, 0, 0, 1, 0.5, 0.5)" stroke-opacity="0" stroke-linejoin="bevel" stroke-miterlimit="10">0.4</text><text fill="#444444" stroke="none" font-family="helvetica" font-size="13px" font-style="normal" font-weight="normal" text-decoration="normal" x="27.92822265625" y="85.9000015258789" text-anchor="start" dominant-baseline="alphabetic" transform="matrix(1, 0, 0, 1, 0.5, 0.5)">0.6</text><text fill="none" stroke="rgb(0,0,0)" font-family="helvetica" font-size="13px" font-style="normal" font-weight="normal" text-decoration="normal" x="27.92822265625" y="85.9000015258789" text-anchor="start" dominant-baseline="alphabetic" transform="matrix(1, 0, 0, 1, 0.5, 0.5)" stroke-opacity="0" stroke-linejoin="bevel" stroke-miterlimit="10">0.6</text><text fill="#444444" stroke="none" font-family="helvetica" font-size="13px" font-style="normal" font-weight="normal" text-decoration="normal" x="27.92822265625" y="47.70000076293945" text-anchor="start" dominant-baseline="alphabetic" transform="matrix(1, 0, 0, 1, 0.5, 0.5)">0.8</text><text fill="none" stroke="rgb(0,0,0)" font-family="helvetica" font-size="13px" font-style="normal" font-weight="normal" text-decoration="normal" x="27.92822265625" y="47.70000076293945" text-anchor="start" dominant-baseline="alphabetic" transform="matrix(1, 0, 0, 1, 0.5, 0.5)" stroke-opacity="0" stroke-linejoin="bevel" stroke-miterlimit="10">0.8</text><text fill="#444444" stroke="none" font-family="helvetica" font-size="13px" font-style="normal" font-weight="normal" text-decoration="normal" x="38.77001953125" y="9.5" text-anchor="start" dominant-baseline="alphabetic" transform="matrix(1, 0, 0, 1, 0.5, 0.5)">1</text><text fill="none" stroke="rgb(0,0,0)" font-family="helvetica" font-size="13px" font-style="normal" font-weight="normal" text-decoration="normal" x="38.77001953125" y="9.5" text-anchor="start" dominant-baseline="alphabetic" transform="matrix(1, 0, 0, 1, 0.5, 0.5)" stroke-opacity="0" stroke-linejoin="bevel" stroke-miterlimit="10">1</text><text fill="#444444" stroke="none" font-family="helvetica" font-size="15px" font-style="normal" font-weight="normal" text-decoration="normal" x="-23.423828125" y="97.5" text-anchor="start" dominant-baseline="alphabetic" transform="matrix(6.123233995736766e-17, -1, 1, 6.123233995736766e-17, -80.07177734375, 120.92822265625)">Success rate</text><text fill="none" stroke="rgb(0,0,0)" font-family="helvetica" font-size="15px" font-style="normal" font-weight="normal" text-decoration="normal" x="-23.423828125" y="97.5" text-anchor="start" dominant-baseline="alphabetic" transform="matrix(6.123233995736766e-17, -1, 1, 6.123233995736766e-17, -80.07177734375, 120.92822265625)" stroke-opacity="0" stroke-linejoin="bevel" stroke-miterlimit="10">Success rate</text></svg>