<svg version="1.1" xmlns="http://www.w3.org/2000/svg" width="400" height="250"><defs><clipPath id="RwQKNfXKtfeW"><path fill="none" stroke="none" d="M 0.5 0.5 L 400.5 0.5 L 400.5 250.5 L 0.5 250.5 L 0.5 0.5 Z M 62.5 5.5 L 370.5 5.5 L 370.5 188.5 L 62.5 188.5 L 62.5 5.5 Z" clip-rule="evenodd"/></clipPath><clipPath id="PpyAfznVtslb"><path fill="none" stroke="none" d="M 62.5 5.5 L 370.5 5.5 L 370.5 188.5 L 62.5 188.5 L 62.5 5.5 Z"/></clipPath><clipPath id="yDkoXyDfugxq"><path fill="none" stroke="none" d="M 62.5 5.5 L 370.5 5.5 L 370.5 188.5 L 62.5 188.5 L 62.5 5.5 Z"/></clipPath><clipPath id="TvSBcaTvZPxk"><path fill="none" stroke="none" d="M 62.5 5.5 L 370.5 5.5 L 370.5 188.5 L 62.5 188.5 L 62.5 5.5 Z"/></clipPath><clipPath id="CJBqMKTWGrXG"><path fill="none" stroke="none" d="M 62.5 5.5 L 370.5 5.5 L 370.5 188.5 L 62.5 188.5 L 62.5 5.5 Z"/></clipPath><clipPath id="kIVOOVnVHqXQ"><path fill="none" stroke="none" d="M 62.5 5.5 L 370.5 5.5 L 370.5 188.5 L 62.5 188.5 L 62.5 5.5 Z"/></clipPath><clipPath id="qTSyyHVUhBTF"><path fill="none" stroke="none" d="M 62.5 5.5 L 370.5 5.5 L 370.5 188.5 L 62.5 188.5 L 62.5 5.5 Z"/></clipPath><clipPath id="OsVpAiEJruRp"><path fill="none" stroke="none" d="M 62.5 5.5 L 370.5 5.5 L 370.5 188.5 L 62.5 188.5 L 62.5 5.5 Z"/></clipPath></defs><path fill="#ffffff" stroke="none" paint-order="stroke" d="M 0.5 0.5 L 400.5 0.5 L 400.5 250.5 L 0.5 250.5 L 0.5 0.5 Z" clip-path="url(#RwQKNfXKtfeW)"/><path fill="#ffffff" stroke="none" paint-order="stroke" d="M 62.5 5.5 L 370.5 5.5 L 370.5 188.5 L 62.5 188.5 L 62.5 5.5 Z"/><path fill="none" stroke="#e5e5e5" paint-order="fill" d="M 62.5 5.5 L 370.5 5.5 L 370.5 188.5 L 62.5 188.5 L 62.5 5.5 Z" stroke-linejoin="bevel" stroke-miterlimit="10"/><path fill="none" stroke="#e5e5e5" paint-order="fill" d="M 62.5 151.5 L 370.5 151.5 M 62.5 115.5 L 370.5 115.5 M 62.5 78.5 L 370.5 78.5 M 62.5 42.5 L 370.5 42.5" stroke-linejoin="bevel" stroke-miterlimit="10" clip-path="url(#yDkoXyDfugxq)"/><path fill="rgb(31,119,180)" stroke="rgb(31,119,180)" paint-order="fill" d="M 76.5 156.79920959472656 L 104.5 156.79920959472656 L 104.5 188.5 L 76.5 188.5 L 76.5 156.79920959472656 Z" fill-opacity="1" clip-path="url(#TvSBcaTvZPxk)" stroke-opacity="1" stroke-linejoin="bevel" stroke-miterlimit="10"/><path fill="rgb(31,119,180)" stroke="rgb(31,119,180)" paint-order="fill" d="M 216.5 153.8783721923828 L 244.5 153.8783721923828 L 244.5 188.5 L 216.5 188.5 L 216.5 153.8783721923828 Z" fill-opacity="1" clip-path="url(#TvSBcaTvZPxk)" stroke-opacity="1" stroke-linejoin="bevel" stroke-miterlimit="10"/><path fill="rgb(214,39,40)" stroke="rgb(214,39,40)" paint-order="fill" d="M 104.5 155.6171875 L 132.5 155.6171875 L 132.5 188.5 L 104.5 188.5 L 104.5 155.6171875 Z" fill-opacity="1" clip-path="url(#CJBqMKTWGrXG)" stroke-opacity="1" stroke-linejoin="bevel" stroke-miterlimit="10"/><path fill="rgb(214,39,40)" stroke="rgb(214,39,40)" paint-order="fill" d="M 244.5 141.51351928710938 L 272.5 141.51351928710938 L 272.5 188.5 L 244.5 188.5 L 244.5 141.51351928710938 Z" fill-opacity="1" clip-path="url(#CJBqMKTWGrXG)" stroke-opacity="1" stroke-linejoin="bevel" stroke-miterlimit="10"/><path fill="rgb(44,160,44)" stroke="rgb(44,160,44)" paint-order="fill" d="M 132.5 161.3359375 L 160.5 161.3359375 L 160.5 188.5 L 132.5 188.5 L 132.5 161.3359375 Z" fill-opacity="1" clip-path="url(#kIVOOVnVHqXQ)" stroke-opacity="1" stroke-linejoin="bevel" stroke-miterlimit="10"/><path fill="rgb(44,160,44)" stroke="rgb(44,160,44)" paint-order="fill" d="M 272.5 143.1621551513672 L 300.5 143.1621551513672 L 300.5 188.5 L 272.5 188.5 L 272.5 143.1621551513672 Z" fill-opacity="1" clip-path="url(#kIVOOVnVHqXQ)" stroke-opacity="1" stroke-linejoin="bevel" stroke-miterlimit="10"/><path fill="rgb(255,127,14)" stroke="rgb(255,127,14)" paint-order="fill" d="M 160.5 157.046875 L 188.5 157.046875 L 188.5 188.5 L 160.5 188.5 L 160.5 157.046875 Z" fill-opacity="1" clip-path="url(#qTSyyHVUhBTF)" stroke-opacity="1" stroke-linejoin="bevel" stroke-miterlimit="10"/><path fill="rgb(255,127,14)" stroke="rgb(255,127,14)" paint-order="fill" d="M 300.5 146.45945739746094 L 328.5 146.45945739746094 L 328.5 188.5 L 300.5 188.5 L 300.5 146.45945739746094 Z" fill-opacity="1" clip-path="url(#qTSyyHVUhBTF)" stroke-opacity="1" stroke-linejoin="bevel" stroke-miterlimit="10"/><path fill="none" stroke="black" paint-order="fill" d="M 62.5 188.5 L 370.5 188.5" stroke-linejoin="bevel" stroke-miterlimit="10"/><path fill="none" stroke="black" paint-order="fill" d="M 146.5 194.5 L 146.5 186.5 M 286.5 194.5 L 286.5 186.5" stroke-linejoin="bevel" stroke-miterlimit="10"/><path fill="none" stroke="black" paint-order="fill" d="" stroke-linejoin="bevel" stroke-miterlimit="10"/><text fill="#444444" stroke="none" font-family="helvetica" font-size="13px" font-style="normal" font-weight="normal" text-decoration="normal" x="132.26666641235352" y="213" text-anchor="start" dominant-baseline="alphabetic" transform="matrix(1, 0, 0, 1, 0.5, 0.5)">OQ1</text><text fill="none" stroke="rgb(0,0,0)" font-family="helvetica" font-size="13px" font-style="normal" font-weight="normal" text-decoration="normal" x="132.26666641235352" y="213" text-anchor="start" dominant-baseline="alphabetic" transform="matrix(1, 0, 0, 1, 0.5, 0.5)" stroke-opacity="0" stroke-linejoin="bevel" stroke-miterlimit="10">OQ1</text><text fill="#444444" stroke="none" font-family="helvetica" font-size="13px" font-style="normal" font-weight="normal" text-decoration="normal" x="272.2666664123535" y="213" text-anchor="start" dominant-baseline="alphabetic" transform="matrix(1, 0, 0, 1, 0.5, 0.5)">OQ2</text><text fill="none" stroke="rgb(0,0,0)" font-family="helvetica" font-size="13px" font-style="normal" font-weight="normal" text-decoration="normal" x="272.2666664123535" y="213" text-anchor="start" dominant-baseline="alphabetic" transform="matrix(1, 0, 0, 1, 0.5, 0.5)" stroke-opacity="0" stroke-linejoin="bevel" stroke-miterlimit="10">OQ2</text><text fill="#444444" stroke="none" font-family="helvetica" font-size="15px" font-style="normal" font-weight="normal" text-decoration="normal" x="155.58333206176758" y="242" text-anchor="start" dominant-baseline="alphabetic" transform="matrix(1, 0, 0, 1, 0.5, 0.5)">Opening Question</text><text fill="none" stroke="rgb(0,0,0)" font-family="helvetica" font-size="15px" font-style="normal" font-weight="normal" text-decoration="normal" x="155.58333206176758" y="242" text-anchor="start" dominant-baseline="alphabetic" transform="matrix(1, 0, 0, 1, 0.5, 0.5)" stroke-opacity="0" stroke-linejoin="bevel" stroke-miterlimit="10">Opening Question</text><path fill="none" stroke="black" paint-order="fill" d="M 62.5 188.5 L 62.5 5.5" stroke-linejoin="bevel" stroke-miterlimit="10"/><path fill="none" stroke="black" paint-order="fill" d="M 56.5 188.5 L 64.5 188.5 M 56.5 151.5 L 64.5 151.5 M 56.5 115.5 L 64.5 115.5 M 56.5 78.5 L 64.5 78.5 M 56.5 42.5 L 64.5 42.5 M 56.5 5.5 L 64.5 5.5" stroke-linejoin="bevel" stroke-miterlimit="10"/><path fill="none" stroke="black" paint-order="fill" d="M 58.5 188.5 L 62.5 188.5 M 58.5 181.5 L 62.5 181.5 M 58.5 173.5 L 62.5 173.5 M 58.5 166.5 L 62.5 166.5 M 58.5 159.5 L 62.5 159.5 M 58.5 151.5 L 62.5 151.5 M 58.5 144.5 L 62.5 144.5 M 58.5 137.5 L 62.5 137.5 M 58.5 129.5 L 62.5 129.5 M 58.5 122.5 L 62.5 122.5 M 58.5 115.5 L 62.5 115.5 M 58.5 107.5 L 62.5 107.5 M 58.5 100.5 L 62.5 100.5 M 58.5 93.5 L 62.5 93.5 M 58.5 86.5 L 62.5 86.5 M 58.5 78.5 L 62.5 78.5 M 58.5 71.5 L 62.5 71.5 M 58.5 64.5 L 62.5 64.5 M 58.5 56.5 L 62.5 56.5 M 58.5 49.5 L 62.5 49.5 M 58.5 42.5 L 62.5 42.5 M 58.5 34.5 L 62.5 34.5 M 58.5 27.5 L 62.5 27.5 M 58.5 20.5 L 62.5 20.5 M 58.5 12.5 L 62.5 12.5 M 58.5 5.5 L 62.5 5.5" stroke-linejoin="bevel" stroke-miterlimit="10"/><text fill="#444444" stroke="none" font-family="helvetica" font-size="13px" font-style="normal" font-weight="normal" text-decoration="normal" x="43.766666889190674" y="193" text-anchor="start" dominant-baseline="alphabetic" transform="matrix(1, 0, 0, 1, 0.5, 0.5)">0</text><text fill="none" stroke="rgb(0,0,0)" font-family="helvetica" font-size="13px" font-style="normal" font-weight="normal" text-decoration="normal" x="43.766666889190674" y="193" text-anchor="start" dominant-baseline="alphabetic" transform="matrix(1, 0, 0, 1, 0.5, 0.5)" stroke-opacity="0" stroke-linejoin="bevel" stroke-miterlimit="10">0</text><text fill="#444444" stroke="none" font-family="helvetica" font-size="13px" font-style="normal" font-weight="normal" text-decoration="normal" x="32.91666603088379" y="156.39999389648438" text-anchor="start" dominant-baseline="alphabetic" transform="matrix(1, 0, 0, 1, 0.5, 0.5)">0.2</text><text fill="none" stroke="rgb(0,0,0)" font-family="helvetica" font-size="13px" font-style="normal" font-weight="normal" text-decoration="normal" x="32.91666603088379" y="156.39999389648438" text-anchor="start" dominant-baseline="alphabetic" transform="matrix(1, 0, 0, 1, 0.5, 0.5)" stroke-opacity="0" stroke-linejoin="bevel" stroke-miterlimit="10">0.2</text><text fill="#444444" stroke="none" font-family="helvetica" font-size="13px" font-style="normal" font-weight="normal" text-decoration="normal" x="32.91666603088379" y="119.80000305175781" text-anchor="start" dominant-baseline="alphabetic" transform="matrix(1, 0, 0, 1, 0.5, 0.5)">0.4</text><text fill="none" stroke="rgb(0,0,0)" font-family="helvetica" font-size="13px" font-style="normal" font-weight="normal" text-decoration="normal" x="32.91666603088379" y="119.80000305175781" text-anchor="start" dominant-baseline="alphabetic" transform="matrix(1, 0, 0, 1, 0.5, 0.5)" stroke-opacity="0" stroke-linejoin="bevel" stroke-miterlimit="10">0.4</text><text fill="#444444" stroke="none" font-family="helvetica" font-size="13px" font-style="normal" font-weight="normal" text-decoration="normal" x="32.91666603088379" y="83.19999694824219" text-anchor="start" dominant-baseline="alphabetic" transform="matrix(1, 0, 0, 1, 0.5, 0.5)">0.6</text><text fill="none" stroke="rgb(0,0,0)" font-family="helvetica" font-size="13px" font-style="normal" font-weight="normal" text-decoration="normal" x="32.91666603088379" y="83.19999694824219" text-anchor="start" dominant-baseline="alphabetic" transform="matrix(1, 0, 0, 1, 0.5, 0.5)" stroke-opacity="0" stroke-linejoin="bevel" stroke-miterlimit="10">0.6</text><text fill="#444444" stroke="none" font-family="helvetica" font-size="13px" font-style="normal" font-weight="normal" text-decoration="normal" x="32.91666603088379" y="46.599998474121094" text-anchor="start" dominant-baseline="alphabetic" transform="matrix(1, 0, 0, 1, 0.5, 0.5)">0.8</text><text fill="none" stroke="rgb(0,0,0)" font-family="helvetica" font-size="13px" font-style="normal" font-weight="normal" text-decoration="normal" x="32.91666603088379" y="46.599998474121094" text-anchor="start" dominant-baseline="alphabetic" transform="matrix(1, 0, 0, 1, 0.5, 0.5)" stroke-opacity="0" stroke-linejoin="bevel" stroke-miterlimit="10">0.8</text><text fill="#444444" stroke="none" font-family="helvetica" font-size="13px" font-style="normal" font-weight="normal" text-decoration="normal" x="43.766666889190674" y="10" text-anchor="start" dominant-baseline="alphabetic" transform="matrix(1, 0, 0, 1, 0.5, 0.5)">1</text><text fill="none" stroke="rgb(0,0,0)" font-family="helvetica" font-size="13px" font-style="normal" font-weight="normal" text-decoration="normal" x="43.766666889190674" y="10" text-anchor="start" dominant-baseline="alphabetic" transform="matrix(1, 0, 0, 1, 0.5, 0.5)" stroke-opacity="0" stroke-linejoin="bevel" stroke-miterlimit="10">1</text><text fill="#444444" stroke="none" font-family="helvetica" font-size="15px" font-style="normal" font-weight="normal" text-decoration="normal" x="-21.33333396911621" y="91.5" text-anchor="start" dominant-baseline="alphabetic" transform="matrix(6.123233995736766e-17, -1, 1, 6.123233995736766e-17, -71.08333396911621, 121.91666603088379)">Success Rate</text><text fill="none" stroke="rgb(0,0,0)" font-family="helvetica" font-size="15px" font-style="normal" font-weight="normal" text-decoration="normal" x="-21.33333396911621" y="91.5" text-anchor="start" dominant-baseline="alphabetic" transform="matrix(6.123233995736766e-17, -1, 1, 6.123233995736766e-17, -71.08333396911621, 121.91666603088379)" stroke-opacity="0" stroke-linejoin="bevel" stroke-miterlimit="10">Success Rate</text></svg>