<svg version="1.1" xmlns="http://www.w3.org/2000/svg" width="400" height="250"><defs><clipPath id="soXVgHwTwFff"><path fill="none" stroke="none" d="M 0.5 0.5 L 400.5 0.5 L 400.5 250.5 L 0.5 250.5 L 0.5 0.5 Z M 57.5 5.5 L 370.5 5.5 L 370.5 196.5 L 57.5 196.5 L 57.5 5.5 Z" clip-rule="evenodd"/></clipPath><clipPath id="qTETvmpopigx"><path fill="none" stroke="none" d="M 57.5 5.5 L 370.5 5.5 L 370.5 196.5 L 57.5 196.5 L 57.5 5.5 Z"/></clipPath><clipPath id="OnAIdQRTWzsp"><path fill="none" stroke="none" d="M 57.5 5.5 L 370.5 5.5 L 370.5 196.5 L 57.5 196.5 L 57.5 5.5 Z"/></clipPath><clipPath id="ztZnomZwtDEo"><path fill="none" stroke="none" d="M 57.5 5.5 L 370.5 5.5 L 370.5 196.5 L 57.5 196.5 L 57.5 5.5 Z"/></clipPath><clipPath id="HyDxkRWtdrGT"><path fill="none" stroke="none" d="M 57.5 5.5 L 370.5 5.5 L 370.5 196.5 L 57.5 196.5 L 57.5 5.5 Z"/></clipPath><clipPath id="puIOpxIZnrGR"><path fill="none" stroke="none" d="M 57.5 5.5 L 370.5 5.5 L 370.5 196.5 L 57.5 196.5 L 57.5 5.5 Z"/></clipPath><clipPath id="vFWIMDQDTBkC"><path fill="none" stroke="none" d="M 57.5 5.5 L 370.5 5.5 L 370.5 196.5 L 57.5 196.5 L 57.5 5.5 Z"/></clipPath><clipPath id="ZfuHmHgkPkMC"><path fill="none" stroke="none" d="M 57.5 5.5 L 370.5 5.5 L 370.5 196.5 L 57.5 196.5 L 57.5 5.5 Z"/></clipPath><clipPath id="mTQnlPoTHIiv"><path fill="none" stroke="none" d="M 57.5 5.5 L 370.5 5.5 L 370.5 196.5 L 57.5 196.5 L 57.5 5.5 Z"/></clipPath><clipPath id="koCitbQQRmKh"><path fill="none" stroke="none" d="M 57.5 5.5 L 370.5 5.5 L 370.5 196.5 L 57.5 196.5 L 57.5 5.5 Z"/></clipPath></defs><path fill="#ffffff" stroke="none" paint-order="stroke" d="M 0.5 0.5 L 400.5 0.5 L 400.5 250.5 L 0.5 250.5 L 0.5 0.5 Z" clip-path="url(#soXVgHwTwFff)"/><path fill="#ffffff" stroke="none" paint-order="stroke" d="M 57.5 5.5 L 370.5 5.5 L 370.5 196.5 L 57.5 196.5 L 57.5 5.5 Z"/><path fill="none" stroke="#e5e5e5" paint-order="fill" d="M 57.5 5.5 L 370.5 5.5 L 370.5 196.5 L 57.5 196.5 L 57.5 5.5 Z" stroke-linejoin="bevel" stroke-miterlimit="10"/><path fill="none" stroke="#e5e5e5" paint-order="fill" d="M 57.5 158.5 L 370.5 158.5 M 57.5 120.5 L 370.5 120.5 M 57.5 81.5 L 370.5 81.5 M 57.5 43.5 L 370.5 43.5" stroke-linejoin="bevel" stroke-miterlimit="10" clip-path="url(#OnAIdQRTWzsp)"/><path fill="rgb(31,119,180)" stroke="rgb(31,119,180)" paint-order="fill" d="M 85.95454406738281 163.41339111328125 L 104.92424011230469 163.41339111328125 L 104.92424011230469 196.5 L 85.95454406738281 196.5 L 85.95454406738281 163.41339111328125 Z" fill-opacity="1" clip-path="url(#ztZnomZwtDEo)" stroke-opacity="1" stroke-linejoin="bevel" stroke-miterlimit="10"/><path fill="rgb(31,119,180)" stroke="rgb(31,119,180)" paint-order="fill" d="M 228.22726440429688 160.3648681640625 L 247.19696044921875 160.3648681640625 L 247.19696044921875 196.5 L 228.22726440429688 196.5 L 228.22726440429688 160.3648681640625 Z" fill-opacity="1" clip-path="url(#ztZnomZwtDEo)" stroke-opacity="1" stroke-linejoin="bevel" stroke-miterlimit="10"/><path fill="rgb(214,39,40)" stroke="rgb(214,39,40)" paint-order="fill" d="M 104.92424774169922 162.1796875 L 123.8939437866211 162.1796875 L 123.8939437866211 196.5 L 104.92424774169922 196.5 L 104.92424774169922 162.1796875 Z" fill-opacity="1" clip-path="url(#HyDxkRWtdrGT)" stroke-opacity="1" stroke-linejoin="bevel" stroke-miterlimit="10"/><path fill="rgb(214,39,40)" stroke="rgb(214,39,40)" paint-order="fill" d="M 247.1969757080078 147.45945739746094 L 266.16668701171875 147.45945739746094 L 266.16668701171875 196.5 L 247.1969757080078 196.5 L 247.1969757080078 147.45945739746094 Z" fill-opacity="1" clip-path="url(#HyDxkRWtdrGT)" stroke-opacity="1" stroke-linejoin="bevel" stroke-miterlimit="10"/><path fill="rgb(148,103,189)" stroke="rgb(148,103,189)" paint-order="fill" d="M 123.89393615722656 174.1171875 L 142.86363220214844 174.1171875 L 142.86363220214844 196.5 L 123.89393615722656 196.5 L 123.89393615722656 174.1171875 Z" fill-opacity="1" clip-path="url(#puIOpxIZnrGR)" stroke-opacity="1" stroke-linejoin="bevel" stroke-miterlimit="10"/><path fill="rgb(148,103,189)" stroke="rgb(148,103,189)" paint-order="fill" d="M 266.16668701171875 156.9234161376953 L 285.1363525390625 156.9234161376953 L 285.1363525390625 196.5 L 266.16668701171875 196.5 L 266.16668701171875 156.9234161376953 Z" fill-opacity="1" clip-path="url(#puIOpxIZnrGR)" stroke-opacity="1" stroke-linejoin="bevel" stroke-miterlimit="10"/><path fill="rgb(44,160,44)" stroke="rgb(44,160,44)" paint-order="fill" d="M 142.86363220214844 168.1484375 L 161.8333282470703 168.1484375 L 161.8333282470703 196.5 L 142.86363220214844 196.5 L 142.86363220214844 168.1484375 Z" fill-opacity="1" clip-path="url(#vFWIMDQDTBkC)" stroke-opacity="1" stroke-linejoin="bevel" stroke-miterlimit="10"/><path fill="rgb(44,160,44)" stroke="rgb(44,160,44)" paint-order="fill" d="M 285.1363525390625 149.18017578125 L 304.1060791015625 149.18017578125 L 304.1060791015625 196.5 L 285.1363525390625 196.5 L 285.1363525390625 149.18017578125 Z" fill-opacity="1" clip-path="url(#vFWIMDQDTBkC)" stroke-opacity="1" stroke-linejoin="bevel" stroke-miterlimit="10"/><path fill="rgb(255,127,14)" stroke="rgb(255,127,14)" paint-order="fill" d="M 161.8333282470703 163.671875 L 180.8030242919922 163.671875 L 180.8030242919922 196.5 L 161.8333282470703 196.5 L 161.8333282470703 163.671875 Z" fill-opacity="1" clip-path="url(#ZfuHmHgkPkMC)" stroke-opacity="1" stroke-linejoin="bevel" stroke-miterlimit="10"/><path fill="rgb(255,127,14)" stroke="rgb(255,127,14)" paint-order="fill" d="M 304.1060791015625 152.6216278076172 L 323.07574462890625 152.6216278076172 L 323.07574462890625 196.5 L 304.1060791015625 196.5 L 304.1060791015625 152.6216278076172 Z" fill-opacity="1" clip-path="url(#ZfuHmHgkPkMC)" stroke-opacity="1" stroke-linejoin="bevel" stroke-miterlimit="10"/><path fill="rgb(140,86,75)" stroke="rgb(140,86,75)" paint-order="fill" d="M 180.8030242919922 169.640625 L 199.77272033691406 169.640625 L 199.77272033691406 196.5 L 180.8030242919922 196.5 L 180.8030242919922 169.640625 Z" fill-opacity="1" clip-path="url(#mTQnlPoTHIiv)" stroke-opacity="1" stroke-linejoin="bevel" stroke-miterlimit="10"/><path fill="rgb(140,86,75)" stroke="rgb(140,86,75)" paint-order="fill" d="M 323.07574462890625 148.31982421875 L 342.04547119140625 148.31982421875 L 342.04547119140625 196.5 L 323.07574462890625 196.5 L 323.07574462890625 148.31982421875 Z" fill-opacity="1" clip-path="url(#mTQnlPoTHIiv)" stroke-opacity="1" stroke-linejoin="bevel" stroke-miterlimit="10"/><path fill="none" stroke="black" paint-order="fill" d="M 57.5 196.5 L 370.5 196.5" stroke-linejoin="bevel" stroke-miterlimit="10"/><path fill="none" stroke="black" paint-order="fill" d="M 142.5 202.5 L 142.5 194.5 M 285.5 202.5 L 285.5 194.5" stroke-linejoin="bevel" stroke-miterlimit="10"/><path fill="none" stroke="black" paint-order="fill" d="" stroke-linejoin="bevel" stroke-miterlimit="10"/><text fill="#444444" stroke="none" font-family="helvetica" font-size="13px" font-style="normal" font-weight="normal" text-decoration="normal" x="128.63682556152344" y="219" text-anchor="start" dominant-baseline="alphabetic" transform="matrix(1, 0, 0, 1, 0.5, 0.5)">OQ1</text><text fill="none" stroke="rgb(0,0,0)" font-family="helvetica" font-size="13px" font-style="normal" font-weight="normal" text-decoration="normal" x="128.63682556152344" y="219" text-anchor="start" dominant-baseline="alphabetic" transform="matrix(1, 0, 0, 1, 0.5, 0.5)" stroke-opacity="0" stroke-linejoin="bevel" stroke-miterlimit="10">OQ1</text><text fill="#444444" stroke="none" font-family="helvetica" font-size="13px" font-style="normal" font-weight="normal" text-decoration="normal" x="270.9095458984375" y="219" text-anchor="start" dominant-baseline="alphabetic" transform="matrix(1, 0, 0, 1, 0.5, 0.5)">OQ2</text><text fill="none" stroke="rgb(0,0,0)" font-family="helvetica" font-size="13px" font-style="normal" font-weight="normal" text-decoration="normal" x="270.9095458984375" y="219" text-anchor="start" dominant-baseline="alphabetic" transform="matrix(1, 0, 0, 1, 0.5, 0.5)" stroke-opacity="0" stroke-linejoin="bevel" stroke-miterlimit="10">OQ2</text><text fill="#444444" stroke="none" font-family="helvetica" font-size="15px" font-style="normal" font-weight="normal" text-decoration="normal" x="154.704833984375" y="244" text-anchor="start" dominant-baseline="alphabetic" transform="matrix(1, 0, 0, 1, 0.5, 0.5)">Opening question</text><text fill="none" stroke="rgb(0,0,0)" font-family="helvetica" font-size="15px" font-style="normal" font-weight="normal" text-decoration="normal" x="154.704833984375" y="244" text-anchor="start" dominant-baseline="alphabetic" transform="matrix(1, 0, 0, 1, 0.5, 0.5)" stroke-opacity="0" stroke-linejoin="bevel" stroke-miterlimit="10">Opening question</text><path fill="none" stroke="black" paint-order="fill" d="M 57.5 196.5 L 57.5 5.5" stroke-linejoin="bevel" stroke-miterlimit="10"/><path fill="none" stroke="black" paint-order="fill" d="M 51.5 196.5 L 59.5 196.5 M 51.5 158.5 L 59.5 158.5 M 51.5 120.5 L 59.5 120.5 M 51.5 81.5 L 59.5 81.5 M 51.5 43.5 L 59.5 43.5 M 51.5 5.5 L 59.5 5.5" stroke-linejoin="bevel" stroke-miterlimit="10"/><path fill="none" stroke="black" paint-order="fill" d="M 53.5 196.5 L 57.5 196.5 M 53.5 188.5 L 57.5 188.5 M 53.5 181.5 L 57.5 181.5 M 53.5 173.5 L 57.5 173.5 M 53.5 165.5 L 57.5 165.5 M 53.5 158.5 L 57.5 158.5 M 53.5 150.5 L 57.5 150.5 M 53.5 143.5 L 57.5 143.5 M 53.5 135.5 L 57.5 135.5 M 53.5 127.5 L 57.5 127.5 M 53.5 120.5 L 57.5 120.5 M 53.5 112.5 L 57.5 112.5 M 53.5 104.5 L 57.5 104.5 M 53.5 97.5 L 57.5 97.5 M 53.5 89.5 L 57.5 89.5 M 53.5 81.5 L 57.5 81.5 M 53.5 74.5 L 57.5 74.5 M 53.5 66.5 L 57.5 66.5 M 53.5 58.5 L 57.5 58.5 M 53.5 51.5 L 57.5 51.5 M 53.5 43.5 L 57.5 43.5 M 53.5 36.5 L 57.5 36.5 M 53.5 28.5 L 57.5 28.5 M 53.5 20.5 L 57.5 20.5 M 53.5 13.5 L 57.5 13.5 M 53.5 5.5 L 57.5 5.5" stroke-linejoin="bevel" stroke-miterlimit="10"/><text fill="#444444" stroke="none" font-family="helvetica" font-size="13px" font-style="normal" font-weight="normal" text-decoration="normal" x="38.77001953125" y="200.5" text-anchor="start" dominant-baseline="alphabetic" transform="matrix(1, 0, 0, 1, 0.5, 0.5)">0</text><text fill="none" stroke="rgb(0,0,0)" font-family="helvetica" font-size="13px" font-style="normal" font-weight="normal" text-decoration="normal" x="38.77001953125" y="200.5" text-anchor="start" dominant-baseline="alphabetic" transform="matrix(1, 0, 0, 1, 0.5, 0.5)" stroke-opacity="0" stroke-linejoin="bevel" stroke-miterlimit="10">0</text><text fill="#444444" stroke="none" font-family="helvetica" font-size="13px" font-style="normal" font-weight="normal" text-decoration="normal" x="27.92822265625" y="162.3000030517578" text-anchor="start" dominant-baseline="alphabetic" transform="matrix(1, 0, 0, 1, 0.5, 0.5)">0.2</text><text fill="none" stroke="rgb(0,0,0)" font-family="helvetica" font-size="13px" font-style="normal" font-weight="normal" text-decoration="normal" x="27.92822265625" y="162.3000030517578" text-anchor="start" dominant-baseline="alphabetic" transform="matrix(1, 0, 0, 1, 0.5, 0.5)" stroke-opacity="0" stroke-linejoin="bevel" stroke-miterlimit="10">0.2</text><text fill="#444444" stroke="none" font-family="helvetica" font-size="13px" font-style="normal" font-weight="normal" text-decoration="normal" x="27.92822265625" y="124.0999984741211" text-anchor="start" dominant-baseline="alphabetic" transform="matrix(1, 0, 0, 1, 0.5, 0.5)">0.4</text><text fill="none" stroke="rgb(0,0,0)" font-family="helvetica" font-size="13px" font-style="normal" font-weight="normal" text-decoration="normal" x="27.92822265625" y="124.0999984741211" text-anchor="start" dominant-baseline="alphabetic" transform="matrix(1, 0, 0, 1, 0.5, 0.5)" stroke-opacity="0" stroke-linejoin="bevel" stroke-miterlimit="10">0.4</text><text fill="#444444" stroke="none" font-family="helvetica" font-size="13px" font-style="normal" font-weight="normal" text-decoration="normal" x="27.92822265625" y="85.9000015258789" text-anchor="start" dominant-baseline="alphabetic" transform="matrix(1, 0, 0, 1, 0.5, 0.5)">0.6</text><text fill="none" stroke="rgb(0,0,0)" font-family="helvetica" font-size="13px" font-style="normal" font-weight="normal" text-decoration="normal" x="27.92822265625" y="85.9000015258789" text-anchor="start" dominant-baseline="alphabetic" transform="matrix(1, 0, 0, 1, 0.5, 0.5)" stroke-opacity="0" stroke-linejoin="bevel" stroke-miterlimit="10">0.6</text><text fill="#444444" stroke="none" font-family="helvetica" font-size="13px" font-style="normal" font-weight="normal" text-decoration="normal" x="27.92822265625" y="47.70000076293945" text-anchor="start" dominant-baseline="alphabetic" transform="matrix(1, 0, 0, 1, 0.5, 0.5)">0.8</text><text fill="none" stroke="rgb(0,0,0)" font-family="helvetica" font-size="13px" font-style="normal" font-weight="normal" text-decoration="normal" x="27.92822265625" y="47.70000076293945" text-anchor="start" dominant-baseline="alphabetic" transform="matrix(1, 0, 0, 1, 0.5, 0.5)" stroke-opacity="0" stroke-linejoin="bevel" stroke-miterlimit="10">0.8</text><text fill="#444444" stroke="none" font-family="helvetica" font-size="13px" font-style="normal" font-weight="normal" text-decoration="normal" x="38.77001953125" y="9.5" text-anchor="start" dominant-baseline="alphabetic" transform="matrix(1, 0, 0, 1, 0.5, 0.5)">1</text><text fill="none" stroke="rgb(0,0,0)" font-family="helvetica" font-size="13px" font-style="normal" font-weight="normal" text-decoration="normal" x="38.77001953125" y="9.5" text-anchor="start" dominant-baseline="alphabetic" transform="matrix(1, 0, 0, 1, 0.5, 0.5)" stroke-opacity="0" stroke-linejoin="bevel" stroke-miterlimit="10">1</text><text fill="#444444" stroke="none" font-family="helvetica" font-size="15px" font-style="normal" font-weight="normal" text-decoration="normal" x="-23.423828125" y="97.5" text-anchor="start" dominant-baseline="alphabetic" transform="matrix(6.123233995736766e-17, -1, 1, 6.123233995736766e-17, -80.07177734375, 120.92822265625)">Success rate</text><text fill="none" stroke="rgb(0,0,0)" font-family="helvetica" font-size="15px" font-style="normal" font-weight="normal" text-decoration="normal" x="-23.423828125" y="97.5" text-anchor="start" dominant-baseline="alphabetic" transform="matrix(6.123233995736766e-17, -1, 1, 6.123233995736766e-17, -80.07177734375, 120.92822265625)" stroke-opacity="0" stroke-linejoin="bevel" stroke-miterlimit="10">Success rate</text></svg>