<svg version="1.1" xmlns="http://www.w3.org/2000/svg" width="400" height="250"><defs><clipPath id="hXRHzKquhECx"><path fill="none" stroke="none" d="M 0.5 0.5 L 400.5 0.5 L 400.5 250.5 L 0.5 250.5 L 0.5 0.5 Z M 64.5 5.5 L 370.5 5.5 L 370.5 202.5 L 64.5 202.5 L 64.5 5.5 Z" clip-rule="evenodd"/></clipPath><clipPath id="tXgswagwxniu"><path fill="none" stroke="none" d="M 64.5 5.5 L 370.5 5.5 L 370.5 202.5 L 64.5 202.5 L 64.5 5.5 Z"/></clipPath><clipPath id="LItLhwfNiIhQ"><path fill="none" stroke="none" d="M 64.5 5.5 L 370.5 5.5 L 370.5 202.5 L 64.5 202.5 L 64.5 5.5 Z"/></clipPath><clipPath id="vgPMWzGncxKo"><path fill="none" stroke="none" d="M 64.5 5.5 L 370.5 5.5 L 370.5 202.5 L 64.5 202.5 L 64.5 5.5 Z"/></clipPath><clipPath id="BMmtdJLggclT"><path fill="none" stroke="none" d="M 64.5 5.5 L 370.5 5.5 L 370.5 202.5 L 64.5 202.5 L 64.5 5.5 Z"/></clipPath><clipPath id="zJqpistOSfgm"><path fill="none" stroke="none" d="M 64.5 5.5 L 370.5 5.5 L 370.5 202.5 L 64.5 202.5 L 64.5 5.5 Z"/></clipPath><clipPath id="xcTeoKoOqGFh"><path fill="none" stroke="none" d="M 64.5 5.5 L 370.5 5.5 L 370.5 202.5 L 64.5 202.5 L 64.5 5.5 Z"/></clipPath><clipPath id="PMAcIlmQBGSA"><path fill="none" stroke="none" d="M 64.5 5.5 L 370.5 5.5 L 370.5 202.5 L 64.5 202.5 L 64.5 5.5 Z"/></clipPath></defs><path fill="#ffffff" stroke="none" paint-order="stroke" d="M 0.5 0.5 L 400.5 0.5 L 400.5 250.5 L 0.5 250.5 L 0.5 0.5 Z" clip-path="url(#hXRHzKquhECx)"/><path fill="#ffffff" stroke="none" paint-order="stroke" d="M 64.5 5.5 L 370.5 5.5 L 370.5 202.5 L 64.5 202.5 L 64.5 5.5 Z"/><path fill="none" stroke="#e5e5e5" paint-order="fill" d="M 64.5 5.5 L 370.5 5.5 L 370.5 202.5 L 64.5 202.5 L 64.5 5.5 Z" stroke-linejoin="bevel" stroke-miterlimit="10"/><path fill="none" stroke="#e5e5e5" paint-order="fill" d="M 170.5 202.5 L 170.5 5.5 M 236.5 202.5 L 236.5 5.5 M 275.5 202.5 L 275.5 5.5 M 303.5 202.5 L 303.5 5.5 M 324.5 202.5 L 324.5 5.5 M 341.5 202.5 L 341.5 5.5 M 356.5 202.5 L 356.5 5.5 M 369.5 202.5 L 369.5 5.5" stroke-linejoin="bevel" stroke-miterlimit="10" clip-path="url(#tXgswagwxniu)"/><path fill="none" stroke="#e5e5e5" paint-order="fill" d="M 64.5 176.5 L 370.5 176.5 M 64.5 150.5 L 370.5 150.5 M 64.5 123.5 L 370.5 123.5 M 64.5 97.5 L 370.5 97.5 M 64.5 71.5 L 370.5 71.5 M 64.5 45.5 L 370.5 45.5 M 64.5 18.5 L 370.5 18.5" stroke-linejoin="bevel" stroke-miterlimit="10" clip-path="url(#LItLhwfNiIhQ)"/><path fill="none" stroke="rgb(31,119,180)" paint-order="fill" d="M 78.40908813476562 125.94140625 L 78.40908813476562 83.51201629638672" stroke-opacity="1" stroke-linejoin="bevel" stroke-miterlimit="10" clip-path="url(#vgPMWzGncxKo)"/><path fill="none" stroke="rgb(214,39,40)" paint-order="fill" d="M 265.4664611816406 104.00959777832031 L 265.4664611816406 57.98158264160156" stroke-opacity="1" stroke-linejoin="bevel" stroke-miterlimit="10" clip-path="url(#vgPMWzGncxKo)"/><path fill="none" stroke="rgb(44,160,44)" paint-order="fill" d="M 356.5909118652344 112.28337860107422 L 356.5909118652344 67.50614166259766" stroke-opacity="1" stroke-linejoin="bevel" stroke-miterlimit="10" clip-path="url(#vgPMWzGncxKo)"/><path fill="none" stroke="rgb(255,127,14)" paint-order="fill" d="M 254.20016479492188 113.65684509277344 L 254.20016479492188 69.09906768798828" stroke-opacity="1" stroke-linejoin="bevel" stroke-miterlimit="10" clip-path="url(#vgPMWzGncxKo)"/><path fill="none" stroke="rgb(0,0,0)" paint-order="fill" d="M 73.40908813476562 125.94140625 L 83.40908813476562 125.94140625" stroke-opacity="1" stroke-linejoin="bevel" stroke-miterlimit="10" clip-path="url(#vgPMWzGncxKo)"/><path fill="none" stroke="rgb(0,0,0)" paint-order="fill" d="M 260.4664611816406 104.00959777832031 L 270.4664611816406 104.00959777832031" stroke-opacity="1" stroke-linejoin="bevel" stroke-miterlimit="10" clip-path="url(#vgPMWzGncxKo)"/><path fill="none" stroke="rgb(0,0,0)" paint-order="fill" d="M 351.5909118652344 112.28337860107422 L 361.5909118652344 112.28337860107422" stroke-opacity="1" stroke-linejoin="bevel" stroke-miterlimit="10" clip-path="url(#vgPMWzGncxKo)"/><path fill="none" stroke="rgb(0,0,0)" paint-order="fill" d="M 249.20016479492188 113.65684509277344 L 259.2001647949219 113.65684509277344" stroke-opacity="1" stroke-linejoin="bevel" stroke-miterlimit="10" clip-path="url(#vgPMWzGncxKo)"/><path fill="none" stroke="rgb(0,0,0)" paint-order="fill" d="M 83.40908813476562 83.51201629638672 L 73.40908813476562 83.51201629638672" stroke-opacity="1" stroke-linejoin="bevel" stroke-miterlimit="10" clip-path="url(#vgPMWzGncxKo)"/><path fill="none" stroke="rgb(0,0,0)" paint-order="fill" d="M 270.4664611816406 57.98158264160156 L 260.4664611816406 57.98158264160156" stroke-opacity="1" stroke-linejoin="bevel" stroke-miterlimit="10" clip-path="url(#vgPMWzGncxKo)"/><path fill="none" stroke="rgb(0,0,0)" paint-order="fill" d="M 361.5909118652344 67.50614166259766 L 351.5909118652344 67.50614166259766" stroke-opacity="1" stroke-linejoin="bevel" stroke-miterlimit="10" clip-path="url(#vgPMWzGncxKo)"/><path fill="none" stroke="rgb(0,0,0)" paint-order="fill" d="M 259.2001647949219 69.09906768798828 L 249.20016479492188 69.09906768798828" stroke-opacity="1" stroke-linejoin="bevel" stroke-miterlimit="10" clip-path="url(#vgPMWzGncxKo)"/><path fill="rgb(31,119,180)" stroke="rgb(31,119,180)" paint-order="fill" d="M 83.40908813476562 106.53367614746094 A 5 5 0 0 1 73.40908813476562 106.53367614746094 A 5 5 0 0 1 83.40908813476562 106.53367614746094" fill-opacity="1" clip-path="url(#BMmtdJLggclT)" stroke-opacity="1" stroke-linejoin="bevel" stroke-miterlimit="10"/><path fill="rgb(214,39,40)" stroke="rgb(214,39,40)" paint-order="fill" d="M 270.4664611816406 82.5420913696289 A 5 5 0 0 1 260.4664611816406 82.5420913696289 A 5 5 0 0 1 270.4664611816406 82.5420913696289" fill-opacity="1" clip-path="url(#BMmtdJLggclT)" stroke-opacity="1" stroke-linejoin="bevel" stroke-miterlimit="10"/><path fill="rgb(44,160,44)" stroke="rgb(44,160,44)" paint-order="fill" d="M 361.5909118652344 91.53893280029297 A 5 5 0 0 1 351.5909118652344 91.53893280029297 A 5 5 0 0 1 361.5909118652344 91.53893280029297" fill-opacity="1" clip-path="url(#BMmtdJLggclT)" stroke-opacity="1" stroke-linejoin="bevel" stroke-miterlimit="10"/><path fill="rgb(255,127,14)" stroke="rgb(255,127,14)" paint-order="fill" d="M 259.2001647949219 93.03840637207031 A 5 5 0 0 1 249.20016479492188 93.03840637207031 A 5 5 0 0 1 259.2001647949219 93.03840637207031" fill-opacity="1" clip-path="url(#BMmtdJLggclT)" stroke-opacity="1" stroke-linejoin="bevel" stroke-miterlimit="10"/><path fill="none" stroke="black" paint-order="fill" d="M 64.5 202.5 L 370.5 202.5" stroke-linejoin="bevel" stroke-miterlimit="10"/><path fill="none" stroke="black" paint-order="fill" d="M 170.5 208.5 L 170.5 200.5 M 236.5 208.5 L 236.5 200.5 M 275.5 208.5 L 275.5 200.5 M 303.5 208.5 L 303.5 200.5 M 324.5 208.5 L 324.5 200.5 M 341.5 208.5 L 341.5 200.5 M 356.5 208.5 L 356.5 200.5 M 369.5 208.5 L 369.5 200.5" stroke-linejoin="bevel" stroke-miterlimit="10"/><path fill="none" stroke="black" paint-order="fill" d="M 160.5 206.5 L 160.5 202.5 M 149.5 206.5 L 149.5 202.5 M 136.5 206.5 L 136.5 202.5 M 121.5 206.5 L 121.5 202.5 M 104.5 206.5 L 104.5 202.5 M 82.5 206.5 L 82.5 202.5 M 170.5 206.5 L 170.5 202.5 M 179.5 206.5 L 179.5 202.5 M 187.5 206.5 L 187.5 202.5 M 195.5 206.5 L 195.5 202.5 M 202.5 206.5 L 202.5 202.5 M 209.5 206.5 L 209.5 202.5 M 215.5 206.5 L 215.5 202.5 M 221.5 206.5 L 221.5 202.5 M 226.5 206.5 L 226.5 202.5 M 231.5 206.5 L 231.5 202.5 M 236.5 206.5 L 236.5 202.5 M 241.5 206.5 L 241.5 202.5 M 245.5 206.5 L 245.5 202.5 M 250.5 206.5 L 250.5 202.5 M 254.5 206.5 L 254.5 202.5 M 258.5 206.5 L 258.5 202.5 M 261.5 206.5 L 261.5 202.5 M 265.5 206.5 L 265.5 202.5 M 268.5 206.5 L 268.5 202.5 M 272.5 206.5 L 272.5 202.5 M 275.5 206.5 L 275.5 202.5 M 278.5 206.5 L 278.5 202.5 M 281.5 206.5 L 281.5 202.5 M 284.5 206.5 L 284.5 202.5 M 287.5 206.5 L 287.5 202.5 M 290.5 206.5 L 290.5 202.5 M 292.5 206.5 L 292.5 202.5 M 295.5 206.5 L 295.5 202.5 M 298.5 206.5 L 298.5 202.5 M 300.5 206.5 L 300.5 202.5 M 303.5 206.5 L 303.5 202.5 M 305.5 206.5 L 305.5 202.5 M 307.5 206.5 L 307.5 202.5 M 309.5 206.5 L 309.5 202.5 M 312.5 206.5 L 312.5 202.5 M 314.5 206.5 L 314.5 202.5 M 316.5 206.5 L 316.5 202.5 M 318.5 206.5 L 318.5 202.5 M 320.5 206.5 L 320.5 202.5 M 322.5 206.5 L 322.5 202.5 M 324.5 206.5 L 324.5 202.5 M 326.5 206.5 L 326.5 202.5 M 328.5 206.5 L 328.5 202.5 M 329.5 206.5 L 329.5 202.5 M 331.5 206.5 L 331.5 202.5 M 333.5 206.5 L 333.5 202.5 M 335.5 206.5 L 335.5 202.5 M 336.5 206.5 L 336.5 202.5 M 338.5 206.5 L 338.5 202.5 M 340.5 206.5 L 340.5 202.5 M 341.5 206.5 L 341.5 202.5 M 343.5 206.5 L 343.5 202.5 M 344.5 206.5 L 344.5 202.5 M 346.5 206.5 L 346.5 202.5 M 348.5 206.5 L 348.5 202.5 M 349.5 206.5 L 349.5 202.5 M 350.5 206.5 L 350.5 202.5 M 352.5 206.5 L 352.5 202.5 M 353.5 206.5 L 353.5 202.5 M 355.5 206.5 L 355.5 202.5 M 356.5 206.5 L 356.5 202.5 M 357.5 206.5 L 357.5 202.5 M 359.5 206.5 L 359.5 202.5 M 360.5 206.5 L 360.5 202.5 M 361.5 206.5 L 361.5 202.5 M 363.5 206.5 L 363.5 202.5 M 364.5 206.5 L 364.5 202.5 M 365.5 206.5 L 365.5 202.5 M 366.5 206.5 L 366.5 202.5 M 368.5 206.5 L 368.5 202.5 M 369.5 206.5 L 369.5 202.5" stroke-linejoin="bevel" stroke-miterlimit="10"/><text fill="#444444" stroke="none" font-family="helvetica" font-size="13px" font-style="normal" font-weight="normal" text-decoration="normal" x="162.72914123535156" y="222" text-anchor="start" dominant-baseline="alphabetic" transform="matrix(1, 0, 0, 1, 0.5, 0.5)">10</text><text fill="none" stroke="rgb(0,0,0)" font-family="helvetica" font-size="13px" font-style="normal" font-weight="normal" text-decoration="normal" x="162.72914123535156" y="222" text-anchor="start" dominant-baseline="alphabetic" transform="matrix(1, 0, 0, 1, 0.5, 0.5)" stroke-opacity="0" stroke-linejoin="bevel" stroke-miterlimit="10">10</text><text fill="#444444" stroke="none" font-family="helvetica" font-size="13px" font-style="normal" font-weight="normal" text-decoration="normal" x="229.03062438964844" y="222" text-anchor="start" dominant-baseline="alphabetic" transform="matrix(1, 0, 0, 1, 0.5, 0.5)">20</text><text fill="none" stroke="rgb(0,0,0)" font-family="helvetica" font-size="13px" font-style="normal" font-weight="normal" text-decoration="normal" x="229.03062438964844" y="222" text-anchor="start" dominant-baseline="alphabetic" transform="matrix(1, 0, 0, 1, 0.5, 0.5)" stroke-opacity="0" stroke-linejoin="bevel" stroke-miterlimit="10">20</text><text fill="#444444" stroke="none" font-family="helvetica" font-size="13px" font-style="normal" font-weight="normal" text-decoration="normal" x="267.81451416015625" y="222" text-anchor="start" dominant-baseline="alphabetic" transform="matrix(1, 0, 0, 1, 0.5, 0.5)">30</text><text fill="none" stroke="rgb(0,0,0)" font-family="helvetica" font-size="13px" font-style="normal" font-weight="normal" text-decoration="normal" x="267.81451416015625" y="222" text-anchor="start" dominant-baseline="alphabetic" transform="matrix(1, 0, 0, 1, 0.5, 0.5)" stroke-opacity="0" stroke-linejoin="bevel" stroke-miterlimit="10">30</text><text fill="#444444" stroke="none" font-family="helvetica" font-size="13px" font-style="normal" font-weight="normal" text-decoration="normal" x="295.33209228515625" y="222" text-anchor="start" dominant-baseline="alphabetic" transform="matrix(1, 0, 0, 1, 0.5, 0.5)">40</text><text fill="none" stroke="rgb(0,0,0)" font-family="helvetica" font-size="13px" font-style="normal" font-weight="normal" text-decoration="normal" x="295.33209228515625" y="222" text-anchor="start" dominant-baseline="alphabetic" transform="matrix(1, 0, 0, 1, 0.5, 0.5)" stroke-opacity="0" stroke-linejoin="bevel" stroke-miterlimit="10">40</text><text fill="#444444" stroke="none" font-family="helvetica" font-size="13px" font-style="normal" font-weight="normal" text-decoration="normal" x="316.6764221191406" y="222" text-anchor="start" dominant-baseline="alphabetic" transform="matrix(1, 0, 0, 1, 0.5, 0.5)">50</text><text fill="none" stroke="rgb(0,0,0)" font-family="helvetica" font-size="13px" font-style="normal" font-weight="normal" text-decoration="normal" x="316.6764221191406" y="222" text-anchor="start" dominant-baseline="alphabetic" transform="matrix(1, 0, 0, 1, 0.5, 0.5)" stroke-opacity="0" stroke-linejoin="bevel" stroke-miterlimit="10">50</text><text fill="#444444" stroke="none" font-family="helvetica" font-size="13px" font-style="normal" font-weight="normal" text-decoration="normal" x="334.115966796875" y="222" text-anchor="start" dominant-baseline="alphabetic" transform="matrix(1, 0, 0, 1, 0.5, 0.5)">60</text><text fill="none" stroke="rgb(0,0,0)" font-family="helvetica" font-size="13px" font-style="normal" font-weight="normal" text-decoration="normal" x="334.115966796875" y="222" text-anchor="start" dominant-baseline="alphabetic" transform="matrix(1, 0, 0, 1, 0.5, 0.5)" stroke-opacity="0" stroke-linejoin="bevel" stroke-miterlimit="10">60</text><text fill="#444444" stroke="none" font-family="helvetica" font-size="13px" font-style="normal" font-weight="normal" text-decoration="normal" x="348.8609313964844" y="222" text-anchor="start" dominant-baseline="alphabetic" transform="matrix(1, 0, 0, 1, 0.5, 0.5)">70</text><text fill="none" stroke="rgb(0,0,0)" font-family="helvetica" font-size="13px" font-style="normal" font-weight="normal" text-decoration="normal" x="348.8609313964844" y="222" text-anchor="start" dominant-baseline="alphabetic" transform="matrix(1, 0, 0, 1, 0.5, 0.5)" stroke-opacity="0" stroke-linejoin="bevel" stroke-miterlimit="10">70</text><text fill="#444444" stroke="none" font-family="helvetica" font-size="13px" font-style="normal" font-weight="normal" text-decoration="normal" x="361.6335754394531" y="222" text-anchor="start" dominant-baseline="alphabetic" transform="matrix(1, 0, 0, 1, 0.5, 0.5)">80</text><text fill="none" stroke="rgb(0,0,0)" font-family="helvetica" font-size="13px" font-style="normal" font-weight="normal" text-decoration="normal" x="361.6335754394531" y="222" text-anchor="start" dominant-baseline="alphabetic" transform="matrix(1, 0, 0, 1, 0.5, 0.5)" stroke-opacity="0" stroke-linejoin="bevel" stroke-miterlimit="10">80</text><text fill="#444444" stroke="none" font-family="helvetica" font-size="15px" font-style="normal" font-weight="normal" text-decoration="normal" x="113.6259765625" y="244" text-anchor="start" dominant-baseline="alphabetic" transform="matrix(1, 0, 0, 1, 0.5, 0.5)">Model Size (billion parameters)</text><text fill="none" stroke="rgb(0,0,0)" font-family="helvetica" font-size="15px" font-style="normal" font-weight="normal" text-decoration="normal" x="113.6259765625" y="244" text-anchor="start" dominant-baseline="alphabetic" transform="matrix(1, 0, 0, 1, 0.5, 0.5)" stroke-opacity="0" stroke-linejoin="bevel" stroke-miterlimit="10">Model Size (billion parameters)</text><path fill="none" stroke="black" paint-order="fill" d="M 64.5 202.5 L 64.5 5.5" stroke-linejoin="bevel" stroke-miterlimit="10"/><path fill="none" stroke="black" paint-order="fill" d="M 58.5 202.5 L 66.5 202.5 M 58.5 176.5 L 66.5 176.5 M 58.5 150.5 L 66.5 150.5 M 58.5 123.5 L 66.5 123.5 M 58.5 97.5 L 66.5 97.5 M 58.5 71.5 L 66.5 71.5 M 58.5 45.5 L 66.5 45.5 M 58.5 18.5 L 66.5 18.5" stroke-linejoin="bevel" stroke-miterlimit="10"/><path fill="none" stroke="black" paint-order="fill" d="M 60.5 202.5 L 64.5 202.5 M 60.5 197.5 L 64.5 197.5 M 60.5 192.5 L 64.5 192.5 M 60.5 186.5 L 64.5 186.5 M 60.5 181.5 L 64.5 181.5 M 60.5 176.5 L 64.5 176.5 M 60.5 171.5 L 64.5 171.5 M 60.5 165.5 L 64.5 165.5 M 60.5 160.5 L 64.5 160.5 M 60.5 155.5 L 64.5 155.5 M 60.5 150.5 L 64.5 150.5 M 60.5 144.5 L 64.5 144.5 M 60.5 139.5 L 64.5 139.5 M 60.5 134.5 L 64.5 134.5 M 60.5 129.5 L 64.5 129.5 M 60.5 123.5 L 64.5 123.5 M 60.5 118.5 L 64.5 118.5 M 60.5 113.5 L 64.5 113.5 M 60.5 108.5 L 64.5 108.5 M 60.5 102.5 L 64.5 102.5 M 60.5 97.5 L 64.5 97.5 M 60.5 92.5 L 64.5 92.5 M 60.5 87.5 L 64.5 87.5 M 60.5 81.5 L 64.5 81.5 M 60.5 76.5 L 64.5 76.5 M 60.5 71.5 L 64.5 71.5 M 60.5 66.5 L 64.5 66.5 M 60.5 60.5 L 64.5 60.5 M 60.5 55.5 L 64.5 55.5 M 60.5 50.5 L 64.5 50.5 M 60.5 45.5 L 64.5 45.5 M 60.5 39.5 L 64.5 39.5 M 60.5 34.5 L 64.5 34.5 M 60.5 29.5 L 64.5 29.5 M 60.5 24.5 L 64.5 24.5 M 60.5 18.5 L 64.5 18.5 M 60.5 13.5 L 64.5 13.5 M 60.5 8.5 L 64.5 8.5" stroke-linejoin="bevel" stroke-miterlimit="10"/><text fill="#444444" stroke="none" font-family="helvetica" font-size="13px" font-style="normal" font-weight="normal" text-decoration="normal" x="45.77001953125" y="206.5" text-anchor="start" dominant-baseline="alphabetic" transform="matrix(1, 0, 0, 1, 0.5, 0.5)">0</text><text fill="none" stroke="rgb(0,0,0)" font-family="helvetica" font-size="13px" font-style="normal" font-weight="normal" text-decoration="normal" x="45.77001953125" y="206.5" text-anchor="start" dominant-baseline="alphabetic" transform="matrix(1, 0, 0, 1, 0.5, 0.5)" stroke-opacity="0" stroke-linejoin="bevel" stroke-miterlimit="10">0</text><text fill="#444444" stroke="none" font-family="helvetica" font-size="13px" font-style="normal" font-weight="normal" text-decoration="normal" x="27.6982421875" y="180.2592010498047" text-anchor="start" dominant-baseline="alphabetic" transform="matrix(1, 0, 0, 1, 0.5, 0.5)">0.05</text><text fill="none" stroke="rgb(0,0,0)" font-family="helvetica" font-size="13px" font-style="normal" font-weight="normal" text-decoration="normal" x="27.6982421875" y="180.2592010498047" text-anchor="start" dominant-baseline="alphabetic" transform="matrix(1, 0, 0, 1, 0.5, 0.5)" stroke-opacity="0" stroke-linejoin="bevel" stroke-miterlimit="10">0.05</text><text fill="#444444" stroke="none" font-family="helvetica" font-size="13px" font-style="normal" font-weight="normal" text-decoration="normal" x="34.92822265625" y="154.01841735839844" text-anchor="start" dominant-baseline="alphabetic" transform="matrix(1, 0, 0, 1, 0.5, 0.5)">0.1</text><text fill="none" stroke="rgb(0,0,0)" font-family="helvetica" font-size="13px" font-style="normal" font-weight="normal" text-decoration="normal" x="34.92822265625" y="154.01841735839844" text-anchor="start" dominant-baseline="alphabetic" transform="matrix(1, 0, 0, 1, 0.5, 0.5)" stroke-opacity="0" stroke-linejoin="bevel" stroke-miterlimit="10">0.1</text><text fill="#444444" stroke="none" font-family="helvetica" font-size="13px" font-style="normal" font-weight="normal" text-decoration="normal" x="27.6982421875" y="127.77762603759766" text-anchor="start" dominant-baseline="alphabetic" transform="matrix(1, 0, 0, 1, 0.5, 0.5)">0.15</text><text fill="none" stroke="rgb(0,0,0)" font-family="helvetica" font-size="13px" font-style="normal" font-weight="normal" text-decoration="normal" x="27.6982421875" y="127.77762603759766" text-anchor="start" dominant-baseline="alphabetic" transform="matrix(1, 0, 0, 1, 0.5, 0.5)" stroke-opacity="0" stroke-linejoin="bevel" stroke-miterlimit="10">0.15</text><text fill="#444444" stroke="none" font-family="helvetica" font-size="13px" font-style="normal" font-weight="normal" text-decoration="normal" x="34.92822265625" y="101.53683471679688" text-anchor="start" dominant-baseline="alphabetic" transform="matrix(1, 0, 0, 1, 0.5, 0.5)">0.2</text><text fill="none" stroke="rgb(0,0,0)" font-family="helvetica" font-size="13px" font-style="normal" font-weight="normal" text-decoration="normal" x="34.92822265625" y="101.53683471679688" text-anchor="start" dominant-baseline="alphabetic" transform="matrix(1, 0, 0, 1, 0.5, 0.5)" stroke-opacity="0" stroke-linejoin="bevel" stroke-miterlimit="10">0.2</text><text fill="#444444" stroke="none" font-family="helvetica" font-size="13px" font-style="normal" font-weight="normal" text-decoration="normal" x="27.6982421875" y="75.29603576660156" text-anchor="start" dominant-baseline="alphabetic" transform="matrix(1, 0, 0, 1, 0.5, 0.5)">0.25</text><text fill="none" stroke="rgb(0,0,0)" font-family="helvetica" font-size="13px" font-style="normal" font-weight="normal" text-decoration="normal" x="27.6982421875" y="75.29603576660156" text-anchor="start" dominant-baseline="alphabetic" transform="matrix(1, 0, 0, 1, 0.5, 0.5)" stroke-opacity="0" stroke-linejoin="bevel" stroke-miterlimit="10">0.25</text><text fill="#444444" stroke="none" font-family="helvetica" font-size="13px" font-style="normal" font-weight="normal" text-decoration="normal" x="34.92822265625" y="49.05524826049805" text-anchor="start" dominant-baseline="alphabetic" transform="matrix(1, 0, 0, 1, 0.5, 0.5)">0.3</text><text fill="none" stroke="rgb(0,0,0)" font-family="helvetica" font-size="13px" font-style="normal" font-weight="normal" text-decoration="normal" x="34.92822265625" y="49.05524826049805" text-anchor="start" dominant-baseline="alphabetic" transform="matrix(1, 0, 0, 1, 0.5, 0.5)" stroke-opacity="0" stroke-linejoin="bevel" stroke-miterlimit="10">0.3</text><text fill="#444444" stroke="none" font-family="helvetica" font-size="13px" font-style="normal" font-weight="normal" text-decoration="normal" x="27.6982421875" y="22.814455032348633" text-anchor="start" dominant-baseline="alphabetic" transform="matrix(1, 0, 0, 1, 0.5, 0.5)">0.35</text><text fill="none" stroke="rgb(0,0,0)" font-family="helvetica" font-size="13px" font-style="normal" font-weight="normal" text-decoration="normal" x="27.6982421875" y="22.814455032348633" text-anchor="start" dominant-baseline="alphabetic" transform="matrix(1, 0, 0, 1, 0.5, 0.5)" stroke-opacity="0" stroke-linejoin="bevel" stroke-miterlimit="10">0.35</text><text fill="#444444" stroke="none" font-family="helvetica" font-size="15px" font-style="normal" font-weight="normal" text-decoration="normal" x="-26.572509765625" y="100.5" text-anchor="start" dominant-baseline="alphabetic" transform="matrix(6.123233995736766e-17, -1, 1, 6.123233995736766e-17, -83.3017578125, 123.6982421875)">Success Rate</text><text fill="none" stroke="rgb(0,0,0)" font-family="helvetica" font-size="15px" font-style="normal" font-weight="normal" text-decoration="normal" x="-26.572509765625" y="100.5" text-anchor="start" dominant-baseline="alphabetic" transform="matrix(6.123233995736766e-17, -1, 1, 6.123233995736766e-17, -83.3017578125, 123.6982421875)" stroke-opacity="0" stroke-linejoin="bevel" stroke-miterlimit="10">Success Rate</text><path fill="none" stroke="#9467bd" paint-order="fill" d="M 64.5 111.03209594252667 L 370.5 111.03209594252667" stroke-linejoin="bevel" stroke-miterlimit="10" stroke-width="2" stroke-dasharray="6" clip-path="url(#zJqpistOSfgm)"/><path fill="none" stroke="#8c564b" paint-order="fill" d="M 64.5 91.5389360614258 L 370.5 91.5389360614258" stroke-linejoin="bevel" stroke-miterlimit="10" stroke-width="2" stroke-dasharray="6" clip-path="url(#xcTeoKoOqGFh)"/></svg>