<svg version="1.1" xmlns="http://www.w3.org/2000/svg" width="400" height="250"><defs><clipPath id="VARPtorBmNTS"><path fill="none" stroke="none" d="M 0.5 0.5 L 400.5 0.5 L 400.5 250.5 L 0.5 250.5 L 0.5 0.5 Z M 62.5 5.5 L 370.5 5.5 L 370.5 188.5 L 62.5 188.5 L 62.5 5.5 Z" clip-rule="evenodd"/></clipPath><clipPath id="JwHEaEOqeuoH"><path fill="none" stroke="none" d="M 62.5 5.5 L 370.5 5.5 L 370.5 188.5 L 62.5 188.5 L 62.5 5.5 Z"/></clipPath><clipPath id="SySpJwSNiEcX"><path fill="none" stroke="none" d="M 62.5 5.5 L 370.5 5.5 L 370.5 188.5 L 62.5 188.5 L 62.5 5.5 Z"/></clipPath><clipPath id="mdGiXTFxugiy"><path fill="none" stroke="none" d="M 62.5 5.5 L 370.5 5.5 L 370.5 188.5 L 62.5 188.5 L 62.5 5.5 Z"/></clipPath><clipPath id="VClBRTAkSCiU"><path fill="none" stroke="none" d="M 62.5 5.5 L 370.5 5.5 L 370.5 188.5 L 62.5 188.5 L 62.5 5.5 Z"/></clipPath><clipPath id="wyivcGnKHRUd"><path fill="none" stroke="none" d="M 62.5 5.5 L 370.5 5.5 L 370.5 188.5 L 62.5 188.5 L 62.5 5.5 Z"/></clipPath><clipPath id="lnBERBvgkqwT"><path fill="none" stroke="none" d="M 62.5 5.5 L 370.5 5.5 L 370.5 188.5 L 62.5 188.5 L 62.5 5.5 Z"/></clipPath><clipPath id="KSwGTleVacSC"><path fill="none" stroke="none" d="M 62.5 5.5 L 370.5 5.5 L 370.5 188.5 L 62.5 188.5 L 62.5 5.5 Z"/></clipPath></defs><path fill="#ffffff" stroke="none" paint-order="stroke" d="M 0.5 0.5 L 400.5 0.5 L 400.5 250.5 L 0.5 250.5 L 0.5 0.5 Z" clip-path="url(#VARPtorBmNTS)"/><path fill="#ffffff" stroke="none" paint-order="stroke" d="M 62.5 5.5 L 370.5 5.5 L 370.5 188.5 L 62.5 188.5 L 62.5 5.5 Z"/><path fill="none" stroke="#e5e5e5" paint-order="fill" d="M 62.5 5.5 L 370.5 5.5 L 370.5 188.5 L 62.5 188.5 L 62.5 5.5 Z" stroke-linejoin="bevel" stroke-miterlimit="10"/><path fill="none" stroke="#e5e5e5" paint-order="fill" d="M 62.5 151.5 L 370.5 151.5 M 62.5 115.5 L 370.5 115.5 M 62.5 78.5 L 370.5 78.5 M 62.5 42.5 L 370.5 42.5" stroke-linejoin="bevel" stroke-miterlimit="10" clip-path="url(#SySpJwSNiEcX)"/><path fill="rgb(31,119,180)" stroke="rgb(31,119,180)" paint-order="fill" d="M 76.5 175.10975646972656 L 84.5 175.10975646972656 L 84.5 188.5 L 76.5 188.5 L 76.5 175.10975646972656 Z" fill-opacity="1" clip-path="url(#mdGiXTFxugiy)" stroke-opacity="1" stroke-linejoin="bevel" stroke-miterlimit="10"/><path fill="rgb(31,119,180)" stroke="rgb(31,119,180)" paint-order="fill" d="M 116.5 156.67391967773438 L 124.5 156.67391967773438 L 124.5 188.5 L 116.5 188.5 L 116.5 156.67391967773438 Z" fill-opacity="1" clip-path="url(#mdGiXTFxugiy)" stroke-opacity="1" stroke-linejoin="bevel" stroke-miterlimit="10"/><path fill="rgb(31,119,180)" stroke="rgb(31,119,180)" paint-order="fill" d="M 156.5 157.42453002929688 L 164.5 157.42453002929688 L 164.5 188.5 L 156.5 188.5 L 156.5 157.42453002929688 Z" fill-opacity="1" clip-path="url(#mdGiXTFxugiy)" stroke-opacity="1" stroke-linejoin="bevel" stroke-miterlimit="10"/><path fill="rgb(31,119,180)" stroke="rgb(31,119,180)" paint-order="fill" d="M 196.5 156.2058868408203 L 204.5 156.2058868408203 L 204.5 188.5 L 196.5 188.5 L 196.5 156.2058868408203 Z" fill-opacity="1" clip-path="url(#mdGiXTFxugiy)" stroke-opacity="1" stroke-linejoin="bevel" stroke-miterlimit="10"/><path fill="rgb(31,119,180)" stroke="rgb(31,119,180)" paint-order="fill" d="M 236.5 159.22000122070312 L 244.5 159.22000122070312 L 244.5 188.5 L 236.5 188.5 L 236.5 159.22000122070312 Z" fill-opacity="1" clip-path="url(#mdGiXTFxugiy)" stroke-opacity="1" stroke-linejoin="bevel" stroke-miterlimit="10"/><path fill="rgb(31,119,180)" stroke="rgb(31,119,180)" paint-order="fill" d="M 276.5 155.82142639160156 L 284.5 155.82142639160156 L 284.5 188.5 L 276.5 188.5 L 276.5 155.82142639160156 Z" fill-opacity="1" clip-path="url(#mdGiXTFxugiy)" stroke-opacity="1" stroke-linejoin="bevel" stroke-miterlimit="10"/><path fill="rgb(31,119,180)" stroke="rgb(31,119,180)" paint-order="fill" d="M 316.5 128.67308044433594 L 324.5 128.67308044433594 L 324.5 188.5 L 316.5 188.5 L 316.5 128.67308044433594 Z" fill-opacity="1" clip-path="url(#mdGiXTFxugiy)" stroke-opacity="1" stroke-linejoin="bevel" stroke-miterlimit="10"/><path fill="rgb(214,39,40)" stroke="rgb(214,39,40)" paint-order="fill" d="M 84.5 153.4574432373047 L 92.5 153.4574432373047 L 92.5 188.5 L 84.5 188.5 L 84.5 153.4574432373047 Z" fill-opacity="1" clip-path="url(#VClBRTAkSCiU)" stroke-opacity="1" stroke-linejoin="bevel" stroke-miterlimit="10"/><path fill="rgb(214,39,40)" stroke="rgb(214,39,40)" paint-order="fill" d="M 124.5 131.3125 L 132.5 131.3125 L 132.5 188.5 L 124.5 188.5 L 124.5 131.3125 Z" fill-opacity="1" clip-path="url(#VClBRTAkSCiU)" stroke-opacity="1" stroke-linejoin="bevel" stroke-miterlimit="10"/><path fill="rgb(214,39,40)" stroke="rgb(214,39,40)" paint-order="fill" d="M 164.5 156.82691955566406 L 172.5 156.82691955566406 L 172.5 188.5 L 164.5 188.5 L 164.5 156.82691955566406 Z" fill-opacity="1" clip-path="url(#VClBRTAkSCiU)" stroke-opacity="1" stroke-linejoin="bevel" stroke-miterlimit="10"/><path fill="rgb(214,39,40)" stroke="rgb(214,39,40)" paint-order="fill" d="M 204.5 151.22222900390625 L 212.5 151.22222900390625 L 212.5 188.5 L 204.5 188.5 L 204.5 151.22222900390625 Z" fill-opacity="1" clip-path="url(#VClBRTAkSCiU)" stroke-opacity="1" stroke-linejoin="bevel" stroke-miterlimit="10"/><path fill="rgb(214,39,40)" stroke="rgb(214,39,40)" paint-order="fill" d="M 244.50001525878906 134.6764678955078 L 252.50001525878906 134.6764678955078 L 252.50001525878906 188.5 L 244.50001525878906 188.5 L 244.50001525878906 134.6764678955078 Z" fill-opacity="1" clip-path="url(#VClBRTAkSCiU)" stroke-opacity="1" stroke-linejoin="bevel" stroke-miterlimit="10"/><path fill="rgb(214,39,40)" stroke="rgb(214,39,40)" paint-order="fill" d="M 284.5 148.24000549316406 L 292.5 148.24000549316406 L 292.5 188.5 L 284.5 188.5 L 284.5 148.24000549316406 Z" fill-opacity="1" clip-path="url(#VClBRTAkSCiU)" stroke-opacity="1" stroke-linejoin="bevel" stroke-miterlimit="10"/><path fill="rgb(214,39,40)" stroke="rgb(214,39,40)" paint-order="fill" d="M 324.5 150.375 L 332.5 150.375 L 332.5 188.5 L 324.5 188.5 L 324.5 150.375 Z" fill-opacity="1" clip-path="url(#VClBRTAkSCiU)" stroke-opacity="1" stroke-linejoin="bevel" stroke-miterlimit="10"/><path fill="rgb(44,160,44)" stroke="rgb(44,160,44)" paint-order="fill" d="M 92.5 146.26922607421875 L 100.5 146.26922607421875 L 100.5 188.5 L 92.5 188.5 L 92.5 146.26922607421875 Z" fill-opacity="1" clip-path="url(#wyivcGnKHRUd)" stroke-opacity="1" stroke-linejoin="bevel" stroke-miterlimit="10"/><path fill="rgb(44,160,44)" stroke="rgb(44,160,44)" paint-order="fill" d="M 132.5 141.91818237304688 L 140.5 141.91818237304688 L 140.5 188.5 L 132.5 188.5 L 132.5 141.91818237304688 Z" fill-opacity="1" clip-path="url(#wyivcGnKHRUd)" stroke-opacity="1" stroke-linejoin="bevel" stroke-miterlimit="10"/><path fill="rgb(44,160,44)" stroke="rgb(44,160,44)" paint-order="fill" d="M 172.5 153.97169494628906 L 180.5 153.97169494628906 L 180.5 188.5 L 172.5 188.5 L 172.5 153.97169494628906 Z" fill-opacity="1" clip-path="url(#wyivcGnKHRUd)" stroke-opacity="1" stroke-linejoin="bevel" stroke-miterlimit="10"/><path fill="rgb(44,160,44)" stroke="rgb(44,160,44)" paint-order="fill" d="M 212.5 171.07142639160156 L 220.5 171.07142639160156 L 220.5 188.5 L 212.5 188.5 L 212.5 171.07142639160156 Z" fill-opacity="1" clip-path="url(#wyivcGnKHRUd)" stroke-opacity="1" stroke-linejoin="bevel" stroke-miterlimit="10"/><path fill="rgb(44,160,44)" stroke="rgb(44,160,44)" paint-order="fill" d="M 252.5 123.43333435058594 L 260.5 123.43333435058594 L 260.5 188.5 L 252.5 188.5 L 252.5 123.43333435058594 Z" fill-opacity="1" clip-path="url(#wyivcGnKHRUd)" stroke-opacity="1" stroke-linejoin="bevel" stroke-miterlimit="10"/><path fill="rgb(44,160,44)" stroke="rgb(44,160,44)" paint-order="fill" d="M 292.5 154.1875 L 300.5 154.1875 L 300.5 188.5 L 292.5 188.5 L 292.5 154.1875 Z" fill-opacity="1" clip-path="url(#wyivcGnKHRUd)" stroke-opacity="1" stroke-linejoin="bevel" stroke-miterlimit="10"/><path fill="rgb(44,160,44)" stroke="rgb(44,160,44)" paint-order="fill" d="M 332.5 158.55455017089844 L 340.5 158.55455017089844 L 340.5 188.5 L 332.5 188.5 L 332.5 158.55455017089844 Z" fill-opacity="1" clip-path="url(#wyivcGnKHRUd)" stroke-opacity="1" stroke-linejoin="bevel" stroke-miterlimit="10"/><path fill="rgb(255,127,14)" stroke="rgb(255,127,14)" paint-order="fill" d="M 100.5 144.7391357421875 L 108.5 144.7391357421875 L 108.5 188.5 L 100.5 188.5 L 100.5 144.7391357421875 Z" fill-opacity="1" clip-path="url(#lnBERBvgkqwT)" stroke-opacity="1" stroke-linejoin="bevel" stroke-miterlimit="10"/><path fill="rgb(255,127,14)" stroke="rgb(255,127,14)" paint-order="fill" d="M 140.5 159.7941131591797 L 148.5 159.7941131591797 L 148.5 188.5 L 140.5 188.5 L 140.5 159.7941131591797 Z" fill-opacity="1" clip-path="url(#lnBERBvgkqwT)" stroke-opacity="1" stroke-linejoin="bevel" stroke-miterlimit="10"/><path fill="rgb(255,127,14)" stroke="rgb(255,127,14)" paint-order="fill" d="M 180.5 151.06817626953125 L 188.5 151.06817626953125 L 188.5 188.5 L 180.5 188.5 L 180.5 151.06817626953125 Z" fill-opacity="1" clip-path="url(#lnBERBvgkqwT)" stroke-opacity="1" stroke-linejoin="bevel" stroke-miterlimit="10"/><path fill="rgb(255,127,14)" stroke="rgb(255,127,14)" paint-order="fill" d="M 220.5 148.57272338867188 L 228.5 148.57272338867188 L 228.5 188.5 L 220.5 188.5 L 220.5 148.57272338867188 Z" fill-opacity="1" clip-path="url(#lnBERBvgkqwT)" stroke-opacity="1" stroke-linejoin="bevel" stroke-miterlimit="10"/><path fill="rgb(255,127,14)" stroke="rgb(255,127,14)" paint-order="fill" d="M 260.5 146.01785278320312 L 268.5 146.01785278320312 L 268.5 188.5 L 260.5 188.5 L 260.5 146.01785278320312 Z" fill-opacity="1" clip-path="url(#lnBERBvgkqwT)" stroke-opacity="1" stroke-linejoin="bevel" stroke-miterlimit="10"/><path fill="rgb(255,127,14)" stroke="rgb(255,127,14)" paint-order="fill" d="M 300.5 165.13829040527344 L 308.5 165.13829040527344 L 308.5 188.5 L 300.5 188.5 L 300.5 165.13829040527344 Z" fill-opacity="1" clip-path="url(#lnBERBvgkqwT)" stroke-opacity="1" stroke-linejoin="bevel" stroke-miterlimit="10"/><path fill="rgb(255,127,14)" stroke="rgb(255,127,14)" paint-order="fill" d="M 340.5 138.26470947265625 L 348.5 138.26470947265625 L 348.5 188.5 L 340.5 188.5 L 340.5 138.26470947265625 Z" fill-opacity="1" clip-path="url(#lnBERBvgkqwT)" stroke-opacity="1" stroke-linejoin="bevel" stroke-miterlimit="10"/><path fill="none" stroke="black" paint-order="fill" d="M 62.5 188.5 L 370.5 188.5" stroke-linejoin="bevel" stroke-miterlimit="10"/><path fill="none" stroke="black" paint-order="fill" d="M 96.5 194.5 L 96.5 186.5 M 136.5 194.5 L 136.5 186.5 M 176.5 194.5 L 176.5 186.5 M 216.5 194.5 L 216.5 186.5 M 256.5 194.5 L 256.5 186.5 M 296.5 194.5 L 296.5 186.5 M 336.5 194.5 L 336.5 186.5" stroke-linejoin="bevel" stroke-miterlimit="10"/><path fill="none" stroke="black" paint-order="fill" d="" stroke-linejoin="bevel" stroke-miterlimit="10"/><text fill="#444444" stroke="none" font-family="helvetica" font-size="13px" font-style="normal" font-weight="normal" text-decoration="normal" x="84.07499980926514" y="213" text-anchor="start" dominant-baseline="alphabetic" transform="matrix(1, 0, 0, 1, 0.5, 0.5)">ST1</text><text fill="none" stroke="rgb(0,0,0)" font-family="helvetica" font-size="13px" font-style="normal" font-weight="normal" text-decoration="normal" x="84.07499980926514" y="213" text-anchor="start" dominant-baseline="alphabetic" transform="matrix(1, 0, 0, 1, 0.5, 0.5)" stroke-opacity="0" stroke-linejoin="bevel" stroke-miterlimit="10">ST1</text><text fill="#444444" stroke="none" font-family="helvetica" font-size="13px" font-style="normal" font-weight="normal" text-decoration="normal" x="124.07499980926514" y="213" text-anchor="start" dominant-baseline="alphabetic" transform="matrix(1, 0, 0, 1, 0.5, 0.5)">ST2</text><text fill="none" stroke="rgb(0,0,0)" font-family="helvetica" font-size="13px" font-style="normal" font-weight="normal" text-decoration="normal" x="124.07499980926514" y="213" text-anchor="start" dominant-baseline="alphabetic" transform="matrix(1, 0, 0, 1, 0.5, 0.5)" stroke-opacity="0" stroke-linejoin="bevel" stroke-miterlimit="10">ST2</text><text fill="#444444" stroke="none" font-family="helvetica" font-size="13px" font-style="normal" font-weight="normal" text-decoration="normal" x="164.07499980926514" y="213" text-anchor="start" dominant-baseline="alphabetic" transform="matrix(1, 0, 0, 1, 0.5, 0.5)">ST3</text><text fill="none" stroke="rgb(0,0,0)" font-family="helvetica" font-size="13px" font-style="normal" font-weight="normal" text-decoration="normal" x="164.07499980926514" y="213" text-anchor="start" dominant-baseline="alphabetic" transform="matrix(1, 0, 0, 1, 0.5, 0.5)" stroke-opacity="0" stroke-linejoin="bevel" stroke-miterlimit="10">ST3</text><text fill="#444444" stroke="none" font-family="helvetica" font-size="13px" font-style="normal" font-weight="normal" text-decoration="normal" x="204.07499980926514" y="213" text-anchor="start" dominant-baseline="alphabetic" transform="matrix(1, 0, 0, 1, 0.5, 0.5)">ST4</text><text fill="none" stroke="rgb(0,0,0)" font-family="helvetica" font-size="13px" font-style="normal" font-weight="normal" text-decoration="normal" x="204.07499980926514" y="213" text-anchor="start" dominant-baseline="alphabetic" transform="matrix(1, 0, 0, 1, 0.5, 0.5)" stroke-opacity="0" stroke-linejoin="bevel" stroke-miterlimit="10">ST4</text><text fill="#444444" stroke="none" font-family="helvetica" font-size="13px" font-style="normal" font-weight="normal" text-decoration="normal" x="244.07499980926514" y="213" text-anchor="start" dominant-baseline="alphabetic" transform="matrix(1, 0, 0, 1, 0.5, 0.5)">ST5</text><text fill="none" stroke="rgb(0,0,0)" font-family="helvetica" font-size="13px" font-style="normal" font-weight="normal" text-decoration="normal" x="244.07499980926514" y="213" text-anchor="start" dominant-baseline="alphabetic" transform="matrix(1, 0, 0, 1, 0.5, 0.5)" stroke-opacity="0" stroke-linejoin="bevel" stroke-miterlimit="10">ST5</text><text fill="#444444" stroke="none" font-family="helvetica" font-size="13px" font-style="normal" font-weight="normal" text-decoration="normal" x="284.07499980926514" y="213" text-anchor="start" dominant-baseline="alphabetic" transform="matrix(1, 0, 0, 1, 0.5, 0.5)">ST6</text><text fill="none" stroke="rgb(0,0,0)" font-family="helvetica" font-size="13px" font-style="normal" font-weight="normal" text-decoration="normal" x="284.07499980926514" y="213" text-anchor="start" dominant-baseline="alphabetic" transform="matrix(1, 0, 0, 1, 0.5, 0.5)" stroke-opacity="0" stroke-linejoin="bevel" stroke-miterlimit="10">ST6</text><text fill="#444444" stroke="none" font-family="helvetica" font-size="13px" font-style="normal" font-weight="normal" text-decoration="normal" x="324.07499980926514" y="213" text-anchor="start" dominant-baseline="alphabetic" transform="matrix(1, 0, 0, 1, 0.5, 0.5)">ST7</text><text fill="none" stroke="rgb(0,0,0)" font-family="helvetica" font-size="13px" font-style="normal" font-weight="normal" text-decoration="normal" x="324.07499980926514" y="213" text-anchor="start" dominant-baseline="alphabetic" transform="matrix(1, 0, 0, 1, 0.5, 0.5)" stroke-opacity="0" stroke-linejoin="bevel" stroke-miterlimit="10">ST7</text><text fill="#444444" stroke="none" font-family="helvetica" font-size="15px" font-style="normal" font-weight="normal" text-decoration="normal" x="160.16666793823242" y="242" text-anchor="start" dominant-baseline="alphabetic" transform="matrix(1, 0, 0, 1, 0.5, 0.5)">Student Persona</text><text fill="none" stroke="rgb(0,0,0)" font-family="helvetica" font-size="15px" font-style="normal" font-weight="normal" text-decoration="normal" x="160.16666793823242" y="242" text-anchor="start" dominant-baseline="alphabetic" transform="matrix(1, 0, 0, 1, 0.5, 0.5)" stroke-opacity="0" stroke-linejoin="bevel" stroke-miterlimit="10">Student Persona</text><path fill="none" stroke="black" paint-order="fill" d="M 62.5 188.5 L 62.5 5.5" stroke-linejoin="bevel" stroke-miterlimit="10"/><path fill="none" stroke="black" paint-order="fill" d="M 56.5 188.5 L 64.5 188.5 M 56.5 151.5 L 64.5 151.5 M 56.5 115.5 L 64.5 115.5 M 56.5 78.5 L 64.5 78.5 M 56.5 42.5 L 64.5 42.5 M 56.5 5.5 L 64.5 5.5" stroke-linejoin="bevel" stroke-miterlimit="10"/><path fill="none" stroke="black" paint-order="fill" d="M 58.5 188.5 L 62.5 188.5 M 58.5 181.5 L 62.5 181.5 M 58.5 173.5 L 62.5 173.5 M 58.5 166.5 L 62.5 166.5 M 58.5 159.5 L 62.5 159.5 M 58.5 151.5 L 62.5 151.5 M 58.5 144.5 L 62.5 144.5 M 58.5 137.5 L 62.5 137.5 M 58.5 129.5 L 62.5 129.5 M 58.5 122.5 L 62.5 122.5 M 58.5 115.5 L 62.5 115.5 M 58.5 107.5 L 62.5 107.5 M 58.5 100.5 L 62.5 100.5 M 58.5 93.5 L 62.5 93.5 M 58.5 86.5 L 62.5 86.5 M 58.5 78.5 L 62.5 78.5 M 58.5 71.5 L 62.5 71.5 M 58.5 64.5 L 62.5 64.5 M 58.5 56.5 L 62.5 56.5 M 58.5 49.5 L 62.5 49.5 M 58.5 42.5 L 62.5 42.5 M 58.5 34.5 L 62.5 34.5 M 58.5 27.5 L 62.5 27.5 M 58.5 20.5 L 62.5 20.5 M 58.5 12.5 L 62.5 12.5 M 58.5 5.5 L 62.5 5.5" stroke-linejoin="bevel" stroke-miterlimit="10"/><text fill="#444444" stroke="none" font-family="helvetica" font-size="13px" font-style="normal" font-weight="normal" text-decoration="normal" x="43.766666889190674" y="193" text-anchor="start" dominant-baseline="alphabetic" transform="matrix(1, 0, 0, 1, 0.5, 0.5)">0</text><text fill="none" stroke="rgb(0,0,0)" font-family="helvetica" font-size="13px" font-style="normal" font-weight="normal" text-decoration="normal" x="43.766666889190674" y="193" text-anchor="start" dominant-baseline="alphabetic" transform="matrix(1, 0, 0, 1, 0.5, 0.5)" stroke-opacity="0" stroke-linejoin="bevel" stroke-miterlimit="10">0</text><text fill="#444444" stroke="none" font-family="helvetica" font-size="13px" font-style="normal" font-weight="normal" text-decoration="normal" x="32.91666603088379" y="156.39999389648438" text-anchor="start" dominant-baseline="alphabetic" transform="matrix(1, 0, 0, 1, 0.5, 0.5)">0.2</text><text fill="none" stroke="rgb(0,0,0)" font-family="helvetica" font-size="13px" font-style="normal" font-weight="normal" text-decoration="normal" x="32.91666603088379" y="156.39999389648438" text-anchor="start" dominant-baseline="alphabetic" transform="matrix(1, 0, 0, 1, 0.5, 0.5)" stroke-opacity="0" stroke-linejoin="bevel" stroke-miterlimit="10">0.2</text><text fill="#444444" stroke="none" font-family="helvetica" font-size="13px" font-style="normal" font-weight="normal" text-decoration="normal" x="32.91666603088379" y="119.80000305175781" text-anchor="start" dominant-baseline="alphabetic" transform="matrix(1, 0, 0, 1, 0.5, 0.5)">0.4</text><text fill="none" stroke="rgb(0,0,0)" font-family="helvetica" font-size="13px" font-style="normal" font-weight="normal" text-decoration="normal" x="32.91666603088379" y="119.80000305175781" text-anchor="start" dominant-baseline="alphabetic" transform="matrix(1, 0, 0, 1, 0.5, 0.5)" stroke-opacity="0" stroke-linejoin="bevel" stroke-miterlimit="10">0.4</text><text fill="#444444" stroke="none" font-family="helvetica" font-size="13px" font-style="normal" font-weight="normal" text-decoration="normal" x="32.91666603088379" y="83.19999694824219" text-anchor="start" dominant-baseline="alphabetic" transform="matrix(1, 0, 0, 1, 0.5, 0.5)">0.6</text><text fill="none" stroke="rgb(0,0,0)" font-family="helvetica" font-size="13px" font-style="normal" font-weight="normal" text-decoration="normal" x="32.91666603088379" y="83.19999694824219" text-anchor="start" dominant-baseline="alphabetic" transform="matrix(1, 0, 0, 1, 0.5, 0.5)" stroke-opacity="0" stroke-linejoin="bevel" stroke-miterlimit="10">0.6</text><text fill="#444444" stroke="none" font-family="helvetica" font-size="13px" font-style="normal" font-weight="normal" text-decoration="normal" x="32.91666603088379" y="46.599998474121094" text-anchor="start" dominant-baseline="alphabetic" transform="matrix(1, 0, 0, 1, 0.5, 0.5)">0.8</text><text fill="none" stroke="rgb(0,0,0)" font-family="helvetica" font-size="13px" font-style="normal" font-weight="normal" text-decoration="normal" x="32.91666603088379" y="46.599998474121094" text-anchor="start" dominant-baseline="alphabetic" transform="matrix(1, 0, 0, 1, 0.5, 0.5)" stroke-opacity="0" stroke-linejoin="bevel" stroke-miterlimit="10">0.8</text><text fill="#444444" stroke="none" font-family="helvetica" font-size="13px" font-style="normal" font-weight="normal" text-decoration="normal" x="43.766666889190674" y="10" text-anchor="start" dominant-baseline="alphabetic" transform="matrix(1, 0, 0, 1, 0.5, 0.5)">1</text><text fill="none" stroke="rgb(0,0,0)" font-family="helvetica" font-size="13px" font-style="normal" font-weight="normal" text-decoration="normal" x="43.766666889190674" y="10" text-anchor="start" dominant-baseline="alphabetic" transform="matrix(1, 0, 0, 1, 0.5, 0.5)" stroke-opacity="0" stroke-linejoin="bevel" stroke-miterlimit="10">1</text><text fill="#444444" stroke="none" font-family="helvetica" font-size="15px" font-style="normal" font-weight="normal" text-decoration="normal" x="-21.33333396911621" y="91.5" text-anchor="start" dominant-baseline="alphabetic" transform="matrix(6.123233995736766e-17, -1, 1, 6.123233995736766e-17, -71.08333396911621, 121.91666603088379)">Success Rate</text><text fill="none" stroke="rgb(0,0,0)" font-family="helvetica" font-size="15px" font-style="normal" font-weight="normal" text-decoration="normal" x="-21.33333396911621" y="91.5" text-anchor="start" dominant-baseline="alphabetic" transform="matrix(6.123233995736766e-17, -1, 1, 6.123233995736766e-17, -71.08333396911621, 121.91666603088379)" stroke-opacity="0" stroke-linejoin="bevel" stroke-miterlimit="10">Success Rate</text></svg>