<svg version="1.1" xmlns="http://www.w3.org/2000/svg" width="400" height="250"><defs><clipPath id="IezfFZGubbdM"><path fill="none" stroke="none" d="M 0.5 0.5 L 400.5 0.5 L 400.5 250.5 L 0.5 250.5 L 0.5 0.5 Z M 69.5 5.5 L 370.5 5.5 L 370.5 196.5 L 69.5 196.5 L 69.5 5.5 Z" clip-rule="evenodd"/></clipPath><clipPath id="ygQLGpmHRqPQ"><path fill="none" stroke="none" d="M 69.5 5.5 L 370.5 5.5 L 370.5 196.5 L 69.5 196.5 L 69.5 5.5 Z"/></clipPath><clipPath id="VVzXHkMHegAx"><path fill="none" stroke="none" d="M 69.5 5.5 L 370.5 5.5 L 370.5 196.5 L 69.5 196.5 L 69.5 5.5 Z"/></clipPath><clipPath id="QkMNmuITexwi"><path fill="none" stroke="none" d="M 69.5 5.5 L 370.5 5.5 L 370.5 196.5 L 69.5 196.5 L 69.5 5.5 Z"/></clipPath><clipPath id="eTDDDfLifyHV"><path fill="none" stroke="none" d="M 69.5 5.5 L 370.5 5.5 L 370.5 196.5 L 69.5 196.5 L 69.5 5.5 Z"/></clipPath><clipPath id="rCSzTDWcTgHJ"><path fill="none" stroke="none" d="M 69.5 5.5 L 370.5 5.5 L 370.5 196.5 L 69.5 196.5 L 69.5 5.5 Z"/></clipPath></defs><path fill="#ffffff" stroke="none" paint-order="stroke" d="M 0.5 0.5 L 400.5 0.5 L 400.5 250.5 L 0.5 250.5 L 0.5 0.5 Z" clip-path="url(#IezfFZGubbdM)"/><path fill="#ffffff" stroke="none" paint-order="stroke" d="M 69.5 5.5 L 370.5 5.5 L 370.5 196.5 L 69.5 196.5 L 69.5 5.5 Z"/><path fill="none" stroke="#e5e5e5" paint-order="fill" d="M 69.5 5.5 L 370.5 5.5 L 370.5 196.5 L 69.5 196.5 L 69.5 5.5 Z" stroke-linejoin="bevel" stroke-miterlimit="10"/><path fill="none" stroke="#e5e5e5" paint-order="fill" d="M 173.5 196.5 L 173.5 5.5 M 238.5 196.5 L 238.5 5.5 M 277.5 196.5 L 277.5 5.5 M 304.5 196.5 L 304.5 5.5 M 325.5 196.5 L 325.5 5.5 M 342.5 196.5 L 342.5 5.5 M 356.5 196.5 L 356.5 5.5 M 369.5 196.5 L 369.5 5.5" stroke-linejoin="bevel" stroke-miterlimit="10" clip-path="url(#ygQLGpmHRqPQ)"/><path fill="none" stroke="#e5e5e5" paint-order="fill" d="M 69.5 171.5 L 370.5 171.5 M 69.5 145.5 L 370.5 145.5 M 69.5 120.5 L 370.5 120.5 M 69.5 94.5 L 370.5 94.5 M 69.5 69.5 L 370.5 69.5 M 69.5 43.5 L 370.5 43.5 M 69.5 18.5 L 370.5 18.5" stroke-linejoin="bevel" stroke-miterlimit="10" clip-path="url(#VVzXHkMHegAx)"/><path fill="none" stroke="rgb(31,119,180)" paint-order="fill" d="M 83.18181610107422 122.27313995361328 L 83.18181610107422 81.13601684570312" stroke-opacity="1" stroke-linejoin="bevel" stroke-miterlimit="10" clip-path="url(#QkMNmuITexwi)"/><path fill="none" stroke="rgb(214,39,40)" paint-order="fill" d="M 267.18267822265625 101.00930786132812 L 267.18267822265625 56.38315963745117" stroke-opacity="1" stroke-linejoin="bevel" stroke-miterlimit="10" clip-path="url(#QkMNmuITexwi)"/><path fill="none" stroke="rgb(44,160,44)" paint-order="fill" d="M 356.81817626953125 109.03109741210938 L 356.81817626953125 65.61763000488281" stroke-opacity="1" stroke-linejoin="bevel" stroke-miterlimit="10" clip-path="url(#QkMNmuITexwi)"/><path fill="none" stroke="rgb(255,127,14)" paint-order="fill" d="M 256.1004943847656 110.36272430419922 L 256.1004943847656 67.16204071044922" stroke-opacity="1" stroke-linejoin="bevel" stroke-miterlimit="10" clip-path="url(#QkMNmuITexwi)"/><path fill="none" stroke="rgb(0,0,0)" paint-order="fill" d="M 78.18181610107422 122.27313995361328 L 88.18181610107422 122.27313995361328" stroke-opacity="1" stroke-linejoin="bevel" stroke-miterlimit="10" clip-path="url(#QkMNmuITexwi)"/><path fill="none" stroke="rgb(0,0,0)" paint-order="fill" d="M 262.18267822265625 101.00930786132812 L 272.18267822265625 101.00930786132812" stroke-opacity="1" stroke-linejoin="bevel" stroke-miterlimit="10" clip-path="url(#QkMNmuITexwi)"/><path fill="none" stroke="rgb(0,0,0)" paint-order="fill" d="M 351.81817626953125 109.03109741210938 L 361.81817626953125 109.03109741210938" stroke-opacity="1" stroke-linejoin="bevel" stroke-miterlimit="10" clip-path="url(#QkMNmuITexwi)"/><path fill="none" stroke="rgb(0,0,0)" paint-order="fill" d="M 251.10049438476562 110.36272430419922 L 261.1004943847656 110.36272430419922" stroke-opacity="1" stroke-linejoin="bevel" stroke-miterlimit="10" clip-path="url(#QkMNmuITexwi)"/><path fill="none" stroke="rgb(0,0,0)" paint-order="fill" d="M 88.18181610107422 81.13601684570312 L 78.18181610107422 81.13601684570312" stroke-opacity="1" stroke-linejoin="bevel" stroke-miterlimit="10" clip-path="url(#QkMNmuITexwi)"/><path fill="none" stroke="rgb(0,0,0)" paint-order="fill" d="M 272.18267822265625 56.38315963745117 L 262.18267822265625 56.38315963745117" stroke-opacity="1" stroke-linejoin="bevel" stroke-miterlimit="10" clip-path="url(#QkMNmuITexwi)"/><path fill="none" stroke="rgb(0,0,0)" paint-order="fill" d="M 361.81817626953125 65.61763000488281 L 351.81817626953125 65.61763000488281" stroke-opacity="1" stroke-linejoin="bevel" stroke-miterlimit="10" clip-path="url(#QkMNmuITexwi)"/><path fill="none" stroke="rgb(0,0,0)" paint-order="fill" d="M 261.1004943847656 67.16204071044922 L 251.10049438476562 67.16204071044922" stroke-opacity="1" stroke-linejoin="bevel" stroke-miterlimit="10" clip-path="url(#QkMNmuITexwi)"/><path fill="rgb(31,119,180)" stroke="rgb(31,119,180)" paint-order="fill" d="M 88.18181610107422 103.45650482177734 A 5 5 0 0 1 78.18181610107422 103.45650482177734 A 5 5 0 0 1 88.18181610107422 103.45650482177734" fill-opacity="1" clip-path="url(#eTDDDfLifyHV)" stroke-opacity="1" stroke-linejoin="bevel" stroke-miterlimit="10"/><path fill="rgb(214,39,40)" stroke="rgb(214,39,40)" paint-order="fill" d="M 272.18267822265625 80.19563293457031 A 5 5 0 0 1 262.18267822265625 80.19563293457031 A 5 5 0 0 1 272.18267822265625 80.19563293457031" fill-opacity="1" clip-path="url(#eTDDDfLifyHV)" stroke-opacity="1" stroke-linejoin="bevel" stroke-miterlimit="10"/><path fill="rgb(44,160,44)" stroke="rgb(44,160,44)" paint-order="fill" d="M 361.81817626953125 88.91846466064453 A 5 5 0 0 1 351.81817626953125 88.91846466064453 A 5 5 0 0 1 361.81817626953125 88.91846466064453" fill-opacity="1" clip-path="url(#eTDDDfLifyHV)" stroke-opacity="1" stroke-linejoin="bevel" stroke-miterlimit="10"/><path fill="rgb(255,127,14)" stroke="rgb(255,127,14)" paint-order="fill" d="M 261.1004943847656 90.37226867675781 A 5 5 0 0 1 251.10049438476562 90.37226867675781 A 5 5 0 0 1 261.1004943847656 90.37226867675781" fill-opacity="1" clip-path="url(#eTDDDfLifyHV)" stroke-opacity="1" stroke-linejoin="bevel" stroke-miterlimit="10"/><path fill="none" stroke="black" paint-order="fill" d="M 69.5 196.5 L 370.5 196.5" stroke-linejoin="bevel" stroke-miterlimit="10"/><path fill="none" stroke="black" paint-order="fill" d="M 173.5 202.5 L 173.5 194.5 M 238.5 202.5 L 238.5 194.5 M 277.5 202.5 L 277.5 194.5 M 304.5 202.5 L 304.5 194.5 M 325.5 202.5 L 325.5 194.5 M 342.5 202.5 L 342.5 194.5 M 356.5 202.5 L 356.5 194.5 M 369.5 202.5 L 369.5 194.5" stroke-linejoin="bevel" stroke-miterlimit="10"/><path fill="none" stroke="black" paint-order="fill" d="M 163.5 200.5 L 163.5 196.5 M 152.5 200.5 L 152.5 196.5 M 140.5 200.5 L 140.5 196.5 M 125.5 200.5 L 125.5 196.5 M 108.5 200.5 L 108.5 196.5 M 87.5 200.5 L 87.5 196.5 M 173.5 200.5 L 173.5 196.5 M 182.5 200.5 L 182.5 196.5 M 190.5 200.5 L 190.5 196.5 M 198.5 200.5 L 198.5 196.5 M 205.5 200.5 L 205.5 196.5 M 211.5 200.5 L 211.5 196.5 M 217.5 200.5 L 217.5 196.5 M 223.5 200.5 L 223.5 196.5 M 229.5 200.5 L 229.5 196.5 M 234.5 200.5 L 234.5 196.5 M 238.5 200.5 L 238.5 196.5 M 243.5 200.5 L 243.5 196.5 M 247.5 200.5 L 247.5 196.5 M 252.5 200.5 L 252.5 196.5 M 256.5 200.5 L 256.5 196.5 M 259.5 200.5 L 259.5 196.5 M 263.5 200.5 L 263.5 196.5 M 267.5 200.5 L 267.5 196.5 M 270.5 200.5 L 270.5 196.5 M 273.5 200.5 L 273.5 196.5 M 277.5 200.5 L 277.5 196.5 M 280.5 200.5 L 280.5 196.5 M 283.5 200.5 L 283.5 196.5 M 286.5 200.5 L 286.5 196.5 M 288.5 200.5 L 288.5 196.5 M 291.5 200.5 L 291.5 196.5 M 294.5 200.5 L 294.5 196.5 M 296.5 200.5 L 296.5 196.5 M 299.5 200.5 L 299.5 196.5 M 301.5 200.5 L 301.5 196.5 M 304.5 200.5 L 304.5 196.5 M 306.5 200.5 L 306.5 196.5 M 308.5 200.5 L 308.5 196.5 M 310.5 200.5 L 310.5 196.5 M 313.5 200.5 L 313.5 196.5 M 315.5 200.5 L 315.5 196.5 M 317.5 200.5 L 317.5 196.5 M 319.5 200.5 L 319.5 196.5 M 321.5 200.5 L 321.5 196.5 M 323.5 200.5 L 323.5 196.5 M 325.5 200.5 L 325.5 196.5 M 327.5 200.5 L 327.5 196.5 M 328.5 200.5 L 328.5 196.5 M 330.5 200.5 L 330.5 196.5 M 332.5 200.5 L 332.5 196.5 M 334.5 200.5 L 334.5 196.5 M 335.5 200.5 L 335.5 196.5 M 337.5 200.5 L 337.5 196.5 M 339.5 200.5 L 339.5 196.5 M 340.5 200.5 L 340.5 196.5 M 342.5 200.5 L 342.5 196.5 M 343.5 200.5 L 343.5 196.5 M 345.5 200.5 L 345.5 196.5 M 346.5 200.5 L 346.5 196.5 M 348.5 200.5 L 348.5 196.5 M 349.5 200.5 L 349.5 196.5 M 351.5 200.5 L 351.5 196.5 M 352.5 200.5 L 352.5 196.5 M 354.5 200.5 L 354.5 196.5 M 355.5 200.5 L 355.5 196.5 M 356.5 200.5 L 356.5 196.5 M 358.5 200.5 L 358.5 196.5 M 359.5 200.5 L 359.5 196.5 M 360.5 200.5 L 360.5 196.5 M 362.5 200.5 L 362.5 196.5 M 363.5 200.5 L 363.5 196.5 M 364.5 200.5 L 364.5 196.5 M 365.5 200.5 L 365.5 196.5 M 366.5 200.5 L 366.5 196.5 M 368.5 200.5 L 368.5 196.5 M 369.5 200.5 L 369.5 196.5" stroke-linejoin="bevel" stroke-miterlimit="10"/><text fill="#444444" stroke="none" font-family="helvetica" font-size="13px" font-style="normal" font-weight="normal" text-decoration="normal" x="165.99441957473755" y="217" text-anchor="start" dominant-baseline="alphabetic" transform="matrix(1, 0, 0, 1, 0.5, 0.5)">10</text><text fill="none" stroke="rgb(0,0,0)" font-family="helvetica" font-size="13px" font-style="normal" font-weight="normal" text-decoration="normal" x="165.99441957473755" y="217" text-anchor="start" dominant-baseline="alphabetic" transform="matrix(1, 0, 0, 1, 0.5, 0.5)" stroke-opacity="0" stroke-linejoin="bevel" stroke-miterlimit="10">10</text><text fill="#444444" stroke="none" font-family="helvetica" font-size="13px" font-style="normal" font-weight="normal" text-decoration="normal" x="231.212543964386" y="217" text-anchor="start" dominant-baseline="alphabetic" transform="matrix(1, 0, 0, 1, 0.5, 0.5)">20</text><text fill="none" stroke="rgb(0,0,0)" font-family="helvetica" font-size="13px" font-style="normal" font-weight="normal" text-decoration="normal" x="231.212543964386" y="217" text-anchor="start" dominant-baseline="alphabetic" transform="matrix(1, 0, 0, 1, 0.5, 0.5)" stroke-opacity="0" stroke-linejoin="bevel" stroke-miterlimit="10">20</text><text fill="#444444" stroke="none" font-family="helvetica" font-size="13px" font-style="normal" font-weight="normal" text-decoration="normal" x="269.36270570755005" y="217" text-anchor="start" dominant-baseline="alphabetic" transform="matrix(1, 0, 0, 1, 0.5, 0.5)">30</text><text fill="none" stroke="rgb(0,0,0)" font-family="helvetica" font-size="13px" font-style="normal" font-weight="normal" text-decoration="normal" x="269.36270570755005" y="217" text-anchor="start" dominant-baseline="alphabetic" transform="matrix(1, 0, 0, 1, 0.5, 0.5)" stroke-opacity="0" stroke-linejoin="bevel" stroke-miterlimit="10">30</text><text fill="#444444" stroke="none" font-family="helvetica" font-size="13px" font-style="normal" font-weight="normal" text-decoration="normal" x="296.4306683540344" y="217" text-anchor="start" dominant-baseline="alphabetic" transform="matrix(1, 0, 0, 1, 0.5, 0.5)">40</text><text fill="none" stroke="rgb(0,0,0)" font-family="helvetica" font-size="13px" font-style="normal" font-weight="normal" text-decoration="normal" x="296.4306683540344" y="217" text-anchor="start" dominant-baseline="alphabetic" transform="matrix(1, 0, 0, 1, 0.5, 0.5)" stroke-opacity="0" stroke-linejoin="bevel" stroke-miterlimit="10">40</text><text fill="#444444" stroke="none" font-family="helvetica" font-size="13px" font-style="normal" font-weight="normal" text-decoration="normal" x="317.4262127876282" y="217" text-anchor="start" dominant-baseline="alphabetic" transform="matrix(1, 0, 0, 1, 0.5, 0.5)">50</text><text fill="none" stroke="rgb(0,0,0)" font-family="helvetica" font-size="13px" font-style="normal" font-weight="normal" text-decoration="normal" x="317.4262127876282" y="217" text-anchor="start" dominant-baseline="alphabetic" transform="matrix(1, 0, 0, 1, 0.5, 0.5)" stroke-opacity="0" stroke-linejoin="bevel" stroke-miterlimit="10">50</text><text fill="#444444" stroke="none" font-family="helvetica" font-size="13px" font-style="normal" font-weight="normal" text-decoration="normal" x="334.58084535598755" y="217" text-anchor="start" dominant-baseline="alphabetic" transform="matrix(1, 0, 0, 1, 0.5, 0.5)">60</text><text fill="none" stroke="rgb(0,0,0)" font-family="helvetica" font-size="13px" font-style="normal" font-weight="normal" text-decoration="normal" x="334.58084535598755" y="217" text-anchor="start" dominant-baseline="alphabetic" transform="matrix(1, 0, 0, 1, 0.5, 0.5)" stroke-opacity="0" stroke-linejoin="bevel" stroke-miterlimit="10">60</text><text fill="#444444" stroke="none" font-family="helvetica" font-size="13px" font-style="normal" font-weight="normal" text-decoration="normal" x="349.0848431587219" y="217" text-anchor="start" dominant-baseline="alphabetic" transform="matrix(1, 0, 0, 1, 0.5, 0.5)">70</text><text fill="none" stroke="rgb(0,0,0)" font-family="helvetica" font-size="13px" font-style="normal" font-weight="normal" text-decoration="normal" x="349.0848431587219" y="217" text-anchor="start" dominant-baseline="alphabetic" transform="matrix(1, 0, 0, 1, 0.5, 0.5)" stroke-opacity="0" stroke-linejoin="bevel" stroke-miterlimit="10">70</text><text fill="#444444" stroke="none" font-family="helvetica" font-size="13px" font-style="normal" font-weight="normal" text-decoration="normal" x="361.6488080024719" y="217" text-anchor="start" dominant-baseline="alphabetic" transform="matrix(1, 0, 0, 1, 0.5, 0.5)">80</text><text fill="none" stroke="rgb(0,0,0)" font-family="helvetica" font-size="13px" font-style="normal" font-weight="normal" text-decoration="normal" x="361.6488080024719" y="217" text-anchor="start" dominant-baseline="alphabetic" transform="matrix(1, 0, 0, 1, 0.5, 0.5)" stroke-opacity="0" stroke-linejoin="bevel" stroke-miterlimit="10">80</text><text fill="#444444" stroke="none" font-family="helvetica" font-size="15px" font-style="normal" font-weight="normal" text-decoration="normal" x="116.16666412353516" y="242" text-anchor="start" dominant-baseline="alphabetic" transform="matrix(1, 0, 0, 1, 0.5, 0.5)">Model Size (billion parameters)</text><text fill="none" stroke="rgb(0,0,0)" font-family="helvetica" font-size="15px" font-style="normal" font-weight="normal" text-decoration="normal" x="116.16666412353516" y="242" text-anchor="start" dominant-baseline="alphabetic" transform="matrix(1, 0, 0, 1, 0.5, 0.5)" stroke-opacity="0" stroke-linejoin="bevel" stroke-miterlimit="10">Model Size (billion parameters)</text><path fill="none" stroke="black" paint-order="fill" d="M 69.5 196.5 L 69.5 5.5" stroke-linejoin="bevel" stroke-miterlimit="10"/><path fill="none" stroke="black" paint-order="fill" d="M 63.5 196.5 L 71.5 196.5 M 63.5 171.5 L 71.5 171.5 M 63.5 145.5 L 71.5 145.5 M 63.5 120.5 L 71.5 120.5 M 63.5 94.5 L 71.5 94.5 M 63.5 69.5 L 71.5 69.5 M 63.5 43.5 L 71.5 43.5 M 63.5 18.5 L 71.5 18.5" stroke-linejoin="bevel" stroke-miterlimit="10"/><path fill="none" stroke="black" paint-order="fill" d="M 65.5 196.5 L 69.5 196.5 M 65.5 191.5 L 69.5 191.5 M 65.5 186.5 L 69.5 186.5 M 65.5 181.5 L 69.5 181.5 M 65.5 176.5 L 69.5 176.5 M 65.5 171.5 L 69.5 171.5 M 65.5 165.5 L 69.5 165.5 M 65.5 160.5 L 69.5 160.5 M 65.5 155.5 L 69.5 155.5 M 65.5 150.5 L 69.5 150.5 M 65.5 145.5 L 69.5 145.5 M 65.5 140.5 L 69.5 140.5 M 65.5 135.5 L 69.5 135.5 M 65.5 130.5 L 69.5 130.5 M 65.5 125.5 L 69.5 125.5 M 65.5 120.5 L 69.5 120.5 M 65.5 115.5 L 69.5 115.5 M 65.5 109.5 L 69.5 109.5 M 65.5 104.5 L 69.5 104.5 M 65.5 99.5 L 69.5 99.5 M 65.5 94.5 L 69.5 94.5 M 65.5 89.5 L 69.5 89.5 M 65.5 84.5 L 69.5 84.5 M 65.5 79.5 L 69.5 79.5 M 65.5 74.5 L 69.5 74.5 M 65.5 69.5 L 69.5 69.5 M 65.5 64.5 L 69.5 64.5 M 65.5 59.5 L 69.5 59.5 M 65.5 54.5 L 69.5 54.5 M 65.5 48.5 L 69.5 48.5 M 65.5 43.5 L 69.5 43.5 M 65.5 38.5 L 69.5 38.5 M 65.5 33.5 L 69.5 33.5 M 65.5 28.5 L 69.5 28.5 M 65.5 23.5 L 69.5 23.5 M 65.5 18.5 L 69.5 18.5 M 65.5 13.5 L 69.5 13.5 M 65.5 8.5 L 69.5 8.5" stroke-linejoin="bevel" stroke-miterlimit="10"/><text fill="#444444" stroke="none" font-family="helvetica" font-size="13px" font-style="normal" font-weight="normal" text-decoration="normal" x="50.766666889190674" y="201" text-anchor="start" dominant-baseline="alphabetic" transform="matrix(1, 0, 0, 1, 0.5, 0.5)">0</text><text fill="none" stroke="rgb(0,0,0)" font-family="helvetica" font-size="13px" font-style="normal" font-weight="normal" text-decoration="normal" x="50.766666889190674" y="201" text-anchor="start" dominant-baseline="alphabetic" transform="matrix(1, 0, 0, 1, 0.5, 0.5)" stroke-opacity="0" stroke-linejoin="bevel" stroke-miterlimit="10">0</text><text fill="#444444" stroke="none" font-family="helvetica" font-size="13px" font-style="normal" font-weight="normal" text-decoration="normal" x="32.683332443237305" y="175.5584259033203" text-anchor="start" dominant-baseline="alphabetic" transform="matrix(1, 0, 0, 1, 0.5, 0.5)">0.05</text><text fill="none" stroke="rgb(0,0,0)" font-family="helvetica" font-size="13px" font-style="normal" font-weight="normal" text-decoration="normal" x="32.683332443237305" y="175.5584259033203" text-anchor="start" dominant-baseline="alphabetic" transform="matrix(1, 0, 0, 1, 0.5, 0.5)" stroke-opacity="0" stroke-linejoin="bevel" stroke-miterlimit="10">0.05</text><text fill="#444444" stroke="none" font-family="helvetica" font-size="13px" font-style="normal" font-weight="normal" text-decoration="normal" x="39.91666603088379" y="150.11683654785156" text-anchor="start" dominant-baseline="alphabetic" transform="matrix(1, 0, 0, 1, 0.5, 0.5)">0.1</text><text fill="none" stroke="rgb(0,0,0)" font-family="helvetica" font-size="13px" font-style="normal" font-weight="normal" text-decoration="normal" x="39.91666603088379" y="150.11683654785156" text-anchor="start" dominant-baseline="alphabetic" transform="matrix(1, 0, 0, 1, 0.5, 0.5)" stroke-opacity="0" stroke-linejoin="bevel" stroke-miterlimit="10">0.1</text><text fill="#444444" stroke="none" font-family="helvetica" font-size="13px" font-style="normal" font-weight="normal" text-decoration="normal" x="32.683332443237305" y="124.67526245117188" text-anchor="start" dominant-baseline="alphabetic" transform="matrix(1, 0, 0, 1, 0.5, 0.5)">0.15</text><text fill="none" stroke="rgb(0,0,0)" font-family="helvetica" font-size="13px" font-style="normal" font-weight="normal" text-decoration="normal" x="32.683332443237305" y="124.67526245117188" text-anchor="start" dominant-baseline="alphabetic" transform="matrix(1, 0, 0, 1, 0.5, 0.5)" stroke-opacity="0" stroke-linejoin="bevel" stroke-miterlimit="10">0.15</text><text fill="#444444" stroke="none" font-family="helvetica" font-size="13px" font-style="normal" font-weight="normal" text-decoration="normal" x="39.91666603088379" y="99.23368072509766" text-anchor="start" dominant-baseline="alphabetic" transform="matrix(1, 0, 0, 1, 0.5, 0.5)">0.2</text><text fill="none" stroke="rgb(0,0,0)" font-family="helvetica" font-size="13px" font-style="normal" font-weight="normal" text-decoration="normal" x="39.91666603088379" y="99.23368072509766" text-anchor="start" dominant-baseline="alphabetic" transform="matrix(1, 0, 0, 1, 0.5, 0.5)" stroke-opacity="0" stroke-linejoin="bevel" stroke-miterlimit="10">0.2</text><text fill="#444444" stroke="none" font-family="helvetica" font-size="13px" font-style="normal" font-weight="normal" text-decoration="normal" x="32.683332443237305" y="73.79209899902344" text-anchor="start" dominant-baseline="alphabetic" transform="matrix(1, 0, 0, 1, 0.5, 0.5)">0.25</text><text fill="none" stroke="rgb(0,0,0)" font-family="helvetica" font-size="13px" font-style="normal" font-weight="normal" text-decoration="normal" x="32.683332443237305" y="73.79209899902344" text-anchor="start" dominant-baseline="alphabetic" transform="matrix(1, 0, 0, 1, 0.5, 0.5)" stroke-opacity="0" stroke-linejoin="bevel" stroke-miterlimit="10">0.25</text><text fill="#444444" stroke="none" font-family="helvetica" font-size="13px" font-style="normal" font-weight="normal" text-decoration="normal" x="39.91666603088379" y="48.35051727294922" text-anchor="start" dominant-baseline="alphabetic" transform="matrix(1, 0, 0, 1, 0.5, 0.5)">0.3</text><text fill="none" stroke="rgb(0,0,0)" font-family="helvetica" font-size="13px" font-style="normal" font-weight="normal" text-decoration="normal" x="39.91666603088379" y="48.35051727294922" text-anchor="start" dominant-baseline="alphabetic" transform="matrix(1, 0, 0, 1, 0.5, 0.5)" stroke-opacity="0" stroke-linejoin="bevel" stroke-miterlimit="10">0.3</text><text fill="#444444" stroke="none" font-family="helvetica" font-size="13px" font-style="normal" font-weight="normal" text-decoration="normal" x="32.683332443237305" y="22.908939361572266" text-anchor="start" dominant-baseline="alphabetic" transform="matrix(1, 0, 0, 1, 0.5, 0.5)">0.35</text><text fill="none" stroke="rgb(0,0,0)" font-family="helvetica" font-size="13px" font-style="normal" font-weight="normal" text-decoration="normal" x="32.683332443237305" y="22.908939361572266" text-anchor="start" dominant-baseline="alphabetic" transform="matrix(1, 0, 0, 1, 0.5, 0.5)" stroke-opacity="0" stroke-linejoin="bevel" stroke-miterlimit="10">0.35</text><text fill="#444444" stroke="none" font-family="helvetica" font-size="15px" font-style="normal" font-weight="normal" text-decoration="normal" x="-21.566667556762695" y="95.5" text-anchor="start" dominant-baseline="alphabetic" transform="matrix(6.123233995736766e-17, -1, 1, 6.123233995736766e-17, -75.3166675567627, 125.6833324432373)">Success Rate</text><text fill="none" stroke="rgb(0,0,0)" font-family="helvetica" font-size="15px" font-style="normal" font-weight="normal" text-decoration="normal" x="-21.566667556762695" y="95.5" text-anchor="start" dominant-baseline="alphabetic" transform="matrix(6.123233995736766e-17, -1, 1, 6.123233995736766e-17, -75.3166675567627, 125.6833324432373)" stroke-opacity="0" stroke-linejoin="bevel" stroke-miterlimit="10">Success Rate</text></svg>